<svg id="Layer_1" data-name="Layer 1" xmlns="http://www.w3.org/2000/svg" xmlns:xlink="http://www.w3.org/1999/xlink" viewBox="0 0 790.71 450"><defs><style>.cls-1{fill:none;}.cls-2{fill:url(#radial-gradient);}.cls-18,.cls-3{fill:#041860;}.cls-3{opacity:0.6;}.cls-12,.cls-16,.cls-18,.cls-25,.cls-3,.cls-311,.cls-312,.cls-52,.cls-53{isolation:isolate;}.cls-16,.cls-25,.cls-311,.cls-312,.cls-313,.cls-4{fill:#fff;}.cls-5{fill:url(#linear-gradient);}.cls-6{fill:url(#linear-gradient-2);}.cls-7{fill:url(#linear-gradient-3);}.cls-8{fill:#a9ebff;}.cls-9{fill:url(#linear-gradient-4);}.cls-10{fill:url(#linear-gradient-5);}.cls-11{fill:url(#linear-gradient-6);}.cls-12{fill:#13247a;}.cls-12,.cls-52{opacity:0.5;}.cls-13{fill:url(#linear-gradient-7);}.cls-14{fill:url(#linear-gradient-8);}.cls-15{fill:#0f65b2;}.cls-16{opacity:0.4;}.cls-17{fill:#0063ad;}.cls-18,.cls-25{opacity:0.2;}.cls-19{fill:#f4a856;}.cls-20{fill:#fccc6b;}.cls-21{fill:url(#radial-gradient-2);}.cls-22{fill:url(#radial-gradient-3);}.cls-23{fill:#fce586;}.cls-24{fill:url(#linear-gradient-9);}.cls-26{fill:url(#radial-gradient-4);}.cls-27{fill:url(#radial-gradient-5);}.cls-28{fill:url(#radial-gradient-6);}.cls-29{fill:url(#radial-gradient-7);}.cls-30{fill:url(#radial-gradient-8);}.cls-31{fill:url(#radial-gradient-9);}.cls-32{fill:url(#radial-gradient-10);}.cls-33{fill:url(#radial-gradient-11);}.cls-34{fill:url(#radial-gradient-12);}.cls-35{fill:url(#radial-gradient-13);}.cls-36{fill:url(#radial-gradient-14);}.cls-37{fill:url(#radial-gradient-15);}.cls-38{fill:url(#radial-gradient-16);}.cls-39{fill:url(#radial-gradient-17);}.cls-40{fill:url(#radial-gradient-18);}.cls-41{fill:url(#radial-gradient-19);}.cls-42{fill:url(#radial-gradient-20);}.cls-43{fill:url(#radial-gradient-21);}.cls-44{fill:url(#radial-gradient-22);}.cls-45{fill:url(#radial-gradient-23);}.cls-46{fill:url(#linear-gradient-10);}.cls-47{fill:url(#linear-gradient-11);}.cls-48{fill:url(#linear-gradient-12);}.cls-49{fill:url(#linear-gradient-13);}.cls-50{fill:url(#linear-gradient-14);}.cls-51,.cls-52,.cls-53{fill:#7bdaff;}.cls-53{opacity:0.1;}.cls-54{fill:url(#linear-gradient-15);}.cls-55{fill:url(#linear-gradient-16);}.cls-56{fill:url(#linear-gradient-17);}.cls-57{fill:url(#linear-gradient-18);}.cls-58{fill:url(#linear-gradient-19);}.cls-59{fill:url(#linear-gradient-20);}.cls-60{clip-path:url(#clip-path);}.cls-61{fill:#feffff;}.cls-62{fill:#fefeff;}.cls-63{fill:#fefefe;}.cls-64{fill:#fdfefe;}.cls-65{fill:#fdfdfe;}.cls-66{fill:#fcfdfe;}.cls-67{fill:#fbfcfe;}.cls-68{fill:#fbfcfd;}.cls-69{fill:#fafbfd;}.cls-70{fill:#f9fbfd;}.cls-71{fill:#f9fafc;}.cls-72{fill:#f8fafc;}.cls-73{fill:#f7f9fc;}.cls-74{fill:#f6f9fb;}.cls-75{fill:#f6f8fb;}.cls-76{fill:#f5f8fb;}.cls-77{fill:#f5f7fb;}.cls-78{fill:#f4f7fb;}.cls-79{fill:#f4f7fa;}.cls-80{fill:#f3f6fa;}.cls-81{fill:#f2f6fa;}.cls-82{fill:#f2f5fa;}.cls-83{fill:#f1f5f9;}.cls-84{fill:#f1f4f9;}.cls-85{fill:#f0f4f9;}.cls-86{fill:#eff4f9;}.cls-87{fill:#eff3f8;}.cls-88{fill:#eef3f8;}.cls-89{fill:#eef2f8;}.cls-90{fill:#edf2f8;}.cls-91{fill:#ecf1f7;}.cls-92{fill:#ebf0f7;}.cls-93{fill:#eaf0f6;}.cls-94{fill:#eaeff6;}.cls-95{fill:#e9eff6;}.cls-96{fill:#e8eef6;}.cls-97{fill:#e7eef5;}.cls-98{fill:#e7edf5;}.cls-99{fill:#e6edf5;}.cls-100{fill:#e5ecf4;}.cls-101{fill:#e4ebf4;}.cls-102{fill:#e3ebf4;}.cls-103{fill:#e2eaf3;}.cls-104{fill:#e1e9f3;}.cls-105{fill:#e0e8f2;}.cls-106{fill:#dfe8f2;}.cls-107{fill:#dfe7f2;}.cls-108{fill:#dee7f1;}.cls-109{fill:#dde6f1;}.cls-110{fill:#dce6f1;}.cls-111{fill:#dce5f0;}.cls-112{fill:#dbe4f0;}.cls-113{fill:#dae4f0;}.cls-114{fill:#d9e3ef;}.cls-115{fill:#d8e3ef;}.cls-116{fill:#d7e2ef;}.cls-117{fill:#d7e1ee;}.cls-118{fill:#d6e1ee;}.cls-119{fill:#d5e0ee;}.cls-120{fill:#d4e0ed;}.cls-121{fill:#d3dfed;}.cls-122{fill:#d2deed;}.cls-123{fill:#d2deec;}.cls-124{fill:#d1ddec;}.cls-125{fill:#d0dcec;}.cls-126{fill:#cfdceb;}.cls-127{fill:#cedbeb;}.cls-128{fill:#cddbeb;}.cls-129{fill:#ccdaea;}.cls-130{fill:#ccd9ea;}.cls-131{fill:#cbd9e9;}.cls-132{fill:#cad8e9;}.cls-133{fill:#c9d7e9;}.cls-134{fill:#c8d7e8;}.cls-135{fill:#c7d6e8;}.cls-136{fill:#c6d5e8;}.cls-137{fill:#c5d5e7;}.cls-138{fill:#c4d4e7;}.cls-139{fill:#c3d3e6;}.cls-140{fill:#c2d3e6;}.cls-141{fill:#c1d2e6;}.cls-142{fill:#c1d1e5;}.cls-143{fill:#c0d1e5;}.cls-144{fill:#bfd0e5;}.cls-145{fill:#becfe4;}.cls-146{fill:#bdcee4;}.cls-147{fill:#bccee3;}.cls-148{fill:#bbcde3;}.cls-149{fill:#bacce3;}.cls-150{fill:#b9cce2;}.cls-151{fill:#b8cbe2;}.cls-152{fill:#b7cae1;}.cls-153{fill:#b6c9e1;}.cls-154{fill:#b5c9e1;}.cls-155{fill:#b4c8e0;}.cls-156{fill:#b3c7e0;}.cls-157{fill:#b2c7df;}.cls-158{fill:#b1c6df;}.cls-159{fill:#b0c5de;}.cls-160{fill:#afc4de;}.cls-161{fill:#aec4de;}.cls-162{fill:#adc3dd;}.cls-163{fill:#acc2dd;}.cls-164{fill:#abc1dc;}.cls-165{fill:#aac1dc;}.cls-166{fill:#a9c0dc;}.cls-167{fill:#a8bfdb;}.cls-168{fill:#a7bedb;}.cls-169{fill:#a6beda;}.cls-170{fill:#a5bdda;}.cls-171{fill:#a4bcd9;}.cls-172{fill:#a3bbd9;}.cls-173{fill:#a1bad8;}.cls-174{fill:#a0bad8;}.cls-175{fill:#9fb9d8;}.cls-176{fill:#9eb8d7;}.cls-177{fill:#9db7d7;}.cls-178{fill:#9cb6d6;}.cls-179{fill:#9bb6d6;}.cls-180{fill:#9ab5d5;}.cls-181{fill:#99b4d5;}.cls-182{fill:#98b3d4;}.cls-183{fill:#97b2d4;}.cls-184{fill:#96b2d4;}.cls-185{fill:#94b1d3;}.cls-186{fill:#93b0d3;}.cls-187{fill:#92afd2;}.cls-188{fill:#91aed2;}.cls-189{fill:#90aed1;}.cls-190{fill:#8fadd1;}.cls-191{fill:#8eacd0;}.cls-192{fill:#8dabd0;}.cls-193{fill:#8caacf;}.cls-194{fill:#8aa9cf;}.cls-195{fill:#89a9cf;}.cls-196{fill:#88a8ce;}.cls-197{fill:#87a7ce;}.cls-198{fill:#86a6cd;}.cls-199{fill:#85a5cd;}.cls-200{fill:#84a4cc;}.cls-201{fill:#82a4cc;}.cls-202{fill:#81a3cb;}.cls-203{fill:#80a2cb;}.cls-204{fill:#7fa1ca;}.cls-205{fill:#7ea0ca;}.cls-206{fill:#7d9fc9;}.cls-207{fill:#7b9ec9;}.cls-208{fill:#7a9ec8;}.cls-209{fill:#799dc8;}.cls-210{fill:#789cc7;}.cls-211{fill:#779bc7;}.cls-212{fill:#759ac6;}.cls-213{fill:#7499c6;}.cls-214{fill:#7398c5;}.cls-215{fill:#7297c5;}.cls-216{fill:#7197c4;}.cls-217{fill:#6f96c4;}.cls-218{fill:#6e95c3;}.cls-219{fill:#6d94c3;}.cls-220{fill:#6c93c2;}.cls-221{fill:#6b92c2;}.cls-222{fill:#6991c1;}.cls-223{fill:#6890c1;}.cls-224{fill:#678fc0;}.cls-225{fill:#668fc0;}.cls-226{fill:#648ebf;}.cls-227{fill:#638dbf;}.cls-228{fill:#628cbe;}.cls-229{fill:#618bbe;}.cls-230{fill:#5f8abd;}.cls-231{fill:#5e89bd;}.cls-232{fill:#5d88bc;}.cls-233{fill:#5c87bc;}.cls-234{fill:#5a86bb;}.cls-235{fill:#5985bb;}.cls-236{fill:#5884ba;}.cls-237{fill:#5784ba;}.cls-238{fill:#5583b9;}.cls-239{fill:#5482b9;}.cls-240{fill:#5381b8;}.cls-241{fill:#5280b8;}.cls-242{fill:#507fb7;}.cls-243{fill:#4f7eb7;}.cls-244{fill:#4e7db6;}.cls-245{fill:#4c7cb5;}.cls-246{fill:#4b7bb5;}.cls-247{fill:#4a7ab4;}.cls-248{fill:#4979b4;}.cls-249{fill:#4778b3;}.cls-250{fill:#4677b3;}.cls-251{fill:#4576b2;}.cls-252{fill:#4375b2;}.cls-253{fill:#4274b1;}.cls-254{fill:#4173b1;}.cls-255{fill:#3f72b0;}.cls-256{fill:#3e72b0;}.cls-257{fill:#3d71af;}.cls-258{fill:#3b70ae;}.cls-259{fill:#3a6fae;}.cls-260{fill:#396ead;}.cls-261{fill:#376dad;}.cls-262{fill:#366cac;}.cls-263{fill:#356bac;}.cls-264{fill:#336aab;}.cls-265{fill:#3269ab;}.cls-266{fill:#3168aa;}.cls-267{fill:#2f67aa;}.cls-268{fill:#2e66a9;}.cls-269{fill:#2d65a8;}.cls-270{fill:#2b64a8;}.cls-271{fill:#2a63a7;}.cls-272{fill:#2962a7;}.cls-273{fill:#2761a6;}.cls-274{fill:#2660a6;}.cls-275{fill:#255fa5;}.cls-276{fill:#235ea4;}.cls-277{fill:#225da4;}.cls-278{fill:#205ca3;}.cls-279{fill:#1f5ba3;}.cls-280{fill:#1e5aa2;}.cls-281{fill:#1c59a2;}.cls-282{fill:#1b58a1;}.cls-283{fill:#1957a0;}.cls-284{fill:#1856a0;}.cls-285{fill:#17559f;}.cls-286{fill:#15549f;}.cls-287{fill:#14539e;}.cls-288{fill:#12529e;}.cls-289{fill:#11519d;}.cls-290{fill:#104f9c;}.cls-291{fill:#0e4e9c;}.cls-292{fill:#0d4d9b;}.cls-293{fill:#0b4c9b;}.cls-294{fill:#0a4b9a;}.cls-295{fill:#094a9a;}.cls-296{fill:#074999;}.cls-297{fill:#064898;}.cls-298{fill:#044798;}.cls-299{fill:#034697;}.cls-300{fill:#014597;}.cls-301{fill:#004496;}.cls-302{fill:url(#linear-gradient-21);}.cls-303{fill:url(#linear-gradient-22);}.cls-304{fill:url(#linear-gradient-23);}.cls-305{fill:url(#linear-gradient-24);}.cls-306{fill:#dde1ed;}.cls-307{fill:url(#linear-gradient-25);}.cls-308{fill:url(#linear-gradient-26);}.cls-309{fill:url(#linear-gradient-27);}.cls-310{fill:url(#linear-gradient-28);}.cls-311{font-size:14px;letter-spacing:0.07em;}.cls-311,.cls-312{font-family:Poppins-Bold, Poppins;font-weight:700;}.cls-312{font-size:16.72px;letter-spacing:0.07em;}.cls-313{font-size:12px;font-family:Poppins-Regular, Poppins;}</style><radialGradient id="radial-gradient" cx="265.95" cy="203" r="740.31" gradientTransform="matrix(1.32, 0, 0, -1, -130.48, 452)" gradientUnits="userSpaceOnUse"><stop offset="0" stop-color="#2573ba"/><stop offset="1" stop-color="#041860"/></radialGradient><linearGradient id="linear-gradient" x1="311.4" y1="273.12" x2="283.59" y2="294.61" gradientTransform="matrix(1, 0, 0, -1, 0, 452)" gradientUnits="userSpaceOnUse"><stop offset="0" stop-color="#59bdef"/><stop offset="1" stop-color="#7bdaff"/></linearGradient><linearGradient id="linear-gradient-2" x1="311.51" y1="262.88" x2="327.07" y2="262.88" gradientTransform="matrix(1, 0, 0, -1, 0, 452)" gradientUnits="userSpaceOnUse"><stop offset="0" stop-color="#2573ba"/><stop offset="1" stop-color="#0063ad"/></linearGradient><linearGradient id="linear-gradient-3" x1="291.93" y1="264.04" x2="311.51" y2="264.04" gradientTransform="matrix(1, 0, 0, -1, 0, 452)" gradientUnits="userSpaceOnUse"><stop offset="0" stop-color="#3a9bd5"/><stop offset="1" stop-color="#2573ba"/></linearGradient><linearGradient id="linear-gradient-4" x1="295.49" y1="274.83" x2="303.98" y2="274.83" xlink:href="#linear-gradient-2"/><linearGradient id="linear-gradient-5" x1="300.88" y1="271.72" x2="309.36" y2="271.72" xlink:href="#linear-gradient-2"/><linearGradient id="linear-gradient-6" x1="306.27" y1="268.61" x2="314.75" y2="268.61" xlink:href="#linear-gradient-2"/><linearGradient id="linear-gradient-7" x1="381.2" y1="261.57" x2="581.68" y2="261.57" gradientTransform="matrix(1, 0, 0, -1, -0.06, 452)" gradientUnits="userSpaceOnUse"><stop offset="0" stop-color="#3a9bd5"/><stop offset="0.52" stop-color="#3088c8"/><stop offset="1" stop-color="#297bbf"/></linearGradient><linearGradient id="linear-gradient-8" x1="291.36" y1="-92.58" x2="410.62" y2="-155.42" gradientTransform="matrix(0.87, 0.5, 0, -1.15, 110.68, -126.96)" xlink:href="#linear-gradient"/><radialGradient id="radial-gradient-2" cx="1704.64" cy="841.58" r="19.33" gradientTransform="matrix(0.62, -0.78, -0.78, -0.62, -37.03, 2049.71)" gradientUnits="userSpaceOnUse"><stop offset="0" stop-color="#fce586"/><stop offset="0.23" stop-color="#fcdb7b"/><stop offset="0.62" stop-color="#fcd06f"/><stop offset="1" stop-color="#fccc6b"/></radialGradient><radialGradient id="radial-gradient-3" cx="1714.07" cy="824.29" r="45.98" gradientTransform="matrix(0.95, -0.3, -0.3, -0.95, -1010.45, 1497.78)" xlink:href="#radial-gradient-2"/><linearGradient id="linear-gradient-9" x1="337.05" y1="296.36" x2="419.98" y2="296.36" gradientTransform="matrix(1, 0, 0, -1, -0.06, 452)" gradientUnits="userSpaceOnUse"><stop offset="0" stop-color="#7bdaff"/><stop offset="1" stop-color="#59bdef"/></linearGradient><radialGradient id="radial-gradient-4" cx="886.55" cy="1048.22" r="19.33" gradientTransform="matrix(0.96, -0.29, -0.29, -0.96, -174.01, 1533.23)" xlink:href="#radial-gradient-2"/><radialGradient id="radial-gradient-5" cx="895.93" cy="1030.91" r="45.98" gradientTransform="matrix(0.96, -0.29, -0.29, -0.96, -174.01, 1533.23)" xlink:href="#radial-gradient-2"/><radialGradient id="radial-gradient-6" cx="889.75" cy="1050.7" r="19.33" gradientTransform="matrix(0.96, -0.29, -0.29, -0.96, -174.01, 1533.23)" xlink:href="#radial-gradient-2"/><radialGradient id="radial-gradient-7" cx="899.12" cy="1033.4" r="45.98" gradientTransform="matrix(0.96, -0.29, -0.29, -0.96, -174.01, 1533.23)" xlink:href="#radial-gradient-2"/><radialGradient id="radial-gradient-8" cx="900.91" cy="1028.59" r="19.33" gradientTransform="matrix(0.95, -0.3, -0.3, -0.95, -169.51, 1533.07)" xlink:href="#radial-gradient-2"/><radialGradient id="radial-gradient-9" cx="910.28" cy="1011.29" r="45.98" gradientTransform="matrix(0.95, -0.3, -0.3, -0.95, -169.5, 1533.07)" xlink:href="#radial-gradient-2"/><radialGradient id="radial-gradient-10" cx="873.66" cy="1032.05" r="19.33" gradientTransform="matrix(0.95, -0.3, -0.3, -0.95, -169.4, 1532.93)" xlink:href="#radial-gradient-2"/><radialGradient id="radial-gradient-11" cx="884.08" cy="1015.87" r="45.98" gradientTransform="matrix(0.96, -0.29, -0.29, -0.96, -174.01, 1533.23)" xlink:href="#radial-gradient-2"/><radialGradient id="radial-gradient-12" cx="888.55" cy="1032.45" r="19.33" gradientTransform="matrix(0.3, 0.95, 0.95, -0.3, -864.54, -259.68)" xlink:href="#radial-gradient-2"/><radialGradient id="radial-gradient-13" cx="897.78" cy="1016.87" r="45.98" gradientTransform="matrix(0.96, -0.29, -0.29, -0.96, -174.01, 1533.23)" xlink:href="#radial-gradient-2"/><radialGradient id="radial-gradient-14" cx="892.55" cy="1035.73" r="19.33" gradientTransform="matrix(0.96, -0.29, -0.29, -0.96, -174.01, 1533.23)" xlink:href="#radial-gradient-2"/><radialGradient id="radial-gradient-15" cx="901.92" cy="1018.43" r="45.98" gradientTransform="matrix(0.96, -0.29, -0.29, -0.96, -174.01, 1533.23)" xlink:href="#radial-gradient-2"/><radialGradient id="radial-gradient-16" cx="895.85" cy="1040.16" r="19.33" gradientTransform="matrix(0.3, 0.95, 0.95, -0.3, -870.53, -272.77)" xlink:href="#radial-gradient-2"/><radialGradient id="radial-gradient-17" cx="905.22" cy="1022.85" r="45.98" gradientTransform="matrix(0.96, -0.29, -0.29, -0.96, -174.01, 1533.23)" xlink:href="#radial-gradient-2"/><radialGradient id="radial-gradient-18" cx="618.46" cy="1015.42" r="19.33" gradientTransform="matrix(1, -0.09, -0.09, -1, -135.07, 1341.64)" xlink:href="#radial-gradient-2"/><radialGradient id="radial-gradient-19" cx="627.83" cy="998.12" r="45.98" gradientTransform="matrix(1, -0.09, -0.09, -1, -135.07, 1341.64)" xlink:href="#radial-gradient-2"/><radialGradient id="radial-gradient-20" cx="210.79" cy="927.39" r="19.33" gradientTransform="matrix(0.3, 0.95, 0.95, -0.3, -568.38, 286.06)" xlink:href="#radial-gradient-2"/><radialGradient id="radial-gradient-21" cx="219.06" cy="911.77" r="45.98" gradientTransform="matrix(0.98, 0.22, 0.22, -0.98, -36.58, 1075.05)" xlink:href="#radial-gradient-2"/><radialGradient id="radial-gradient-22" cx="1588.91" cy="859.96" r="19.33" gradientTransform="matrix(0.69, -0.73, -0.73, -0.69, -102.81, 2001.41)" xlink:href="#radial-gradient-2"/><radialGradient id="radial-gradient-23" cx="1598.29" cy="842.66" r="45.98" gradientTransform="matrix(0.69, -0.73, -0.73, -0.69, -102.81, 2001.41)" xlink:href="#radial-gradient-2"/><linearGradient id="linear-gradient-10" x1="-497.43" y1="271.05" x2="-403.52" y2="238.41" gradientTransform="matrix(0.87, 0.5, 0, -1.15, 849.54, 777.32)" gradientUnits="userSpaceOnUse"><stop offset="0" stop-color="#2573ba"/><stop offset="0.91" stop-color="#0364ae"/><stop offset="1" stop-color="#0063ad"/></linearGradient><linearGradient id="linear-gradient-11" x1="-1335.54" y1="266.68" x2="-1295.58" y2="266.68" gradientTransform="translate(-907.27 452) rotate(180)" gradientUnits="userSpaceOnUse"><stop offset="0" stop-color="#0063ad"/><stop offset="1" stop-color="#2573ba"/></linearGradient><linearGradient id="linear-gradient-12" x1="-533.09" y1="259.11" x2="-457.19" y2="259.11" gradientTransform="matrix(0.87, 0.5, 0, -1.15, 849.54, 777.32)" xlink:href="#linear-gradient-9"/><linearGradient id="linear-gradient-13" x1="535.94" y1="250.29" x2="736.1" y2="144.83" gradientTransform="matrix(1, 0, 0, -1, -0.06, 452)" gradientUnits="userSpaceOnUse"><stop offset="0" stop-color="#3a9bd5"/><stop offset="0.31" stop-color="#3a9bd5"/><stop offset="0.36" stop-color="#3a9bd5"/><stop offset="0.6" stop-color="#3999d4"/><stop offset="0.69" stop-color="#3592cf"/><stop offset="0.75" stop-color="#2f86c7"/><stop offset="0.8" stop-color="#2676bc"/><stop offset="0.81" stop-color="#2573ba"/></linearGradient><linearGradient id="linear-gradient-14" x1="1754.31" y1="338.2" x2="1886.17" y2="268.72" gradientTransform="matrix(1, -0.58, -0.87, -0.5, -916.85, 1455.24)" xlink:href="#linear-gradient"/><linearGradient id="linear-gradient-15" x1="605.75" y1="-454.92" x2="376.95" y2="-425.78" gradientTransform="matrix(0.87, 0.5, 0, -1.15, 248.95, -589.76)" xlink:href="#linear-gradient"/><linearGradient id="linear-gradient-16" x1="-269.92" y1="422.57" x2="-161.7" y2="384.95" xlink:href="#linear-gradient-10"/><linearGradient id="linear-gradient-17" x1="-1534.05" y1="333.19" x2="-1488" y2="333.19" xlink:href="#linear-gradient-11"/><linearGradient id="linear-gradient-18" x1="-310.94" y1="409.31" x2="-223.47" y2="409.31" gradientTransform="matrix(0.87, 0.5, 0, -1.15, 849.54, 777.32)" xlink:href="#linear-gradient-9"/><linearGradient id="linear-gradient-19" x1="40.39" y1="253.52" x2="238.43" y2="149.17" xlink:href="#linear-gradient-13"/><linearGradient id="linear-gradient-20" x1="1510.17" y1="628.76" x2="1640.63" y2="560.02" gradientTransform="matrix(1, -0.58, -0.87, -0.5, -916.85, 1455.24)" xlink:href="#linear-gradient"/><clipPath id="clip-path"><polygon class="cls-1" points="207.83 260.21 176.09 281.26 73.17 230.07 104.91 209.02 207.83 260.21"/></clipPath><linearGradient id="linear-gradient-21" x1="1819.38" y1="1263.22" x2="1628.62" y2="1287.52" gradientTransform="matrix(1, -0.58, -0.87, -0.5, -451.36, 1785.06)" xlink:href="#linear-gradient"/><linearGradient id="linear-gradient-22" x1="183.02" y1="230.85" x2="149.75" y2="212.95" gradientTransform="matrix(1, 0, 0, -1, -0.06, 452)" xlink:href="#linear-gradient"/><linearGradient id="linear-gradient-23" x1="80.6" y1="344.67" x2="42.37" y2="331.83" gradientTransform="matrix(1, 0, 0, -1, -0.06, 452)" xlink:href="#linear-gradient"/><linearGradient id="linear-gradient-24" x1="64.8" y1="277.28" x2="215.9" y2="277.28" gradientTransform="matrix(1, 0, 0, -1, -0.06, 452)" xlink:href="#linear-gradient"/><linearGradient id="linear-gradient-25" x1="-4952.06" y1="408.85" x2="-4979.39" y2="438.5" gradientTransform="matrix(-0.85, 0.49, -0.92, -0.53, -3641.72, 2954.71)" gradientUnits="userSpaceOnUse"><stop offset="0.77" stop-color="#59bdef"/><stop offset="0.85" stop-color="#55b8eb"/><stop offset="0.93" stop-color="#49abe1"/><stop offset="1" stop-color="#3a9bd5"/></linearGradient><linearGradient id="linear-gradient-26" x1="-3012.23" y1="403.48" x2="-3039.56" y2="433.12" gradientTransform="matrix(0.85, -0.49, -0.92, -0.53, 3181.97, -996.03)" xlink:href="#linear-gradient-25"/><linearGradient id="linear-gradient-27" x1="-4997.45" y1="390.54" x2="-4997.45" y2="435.55" gradientTransform="matrix(-0.85, 0.49, -0.92, -0.53, -3641.72, 2954.71)" gradientUnits="userSpaceOnUse"><stop offset="0.77" stop-color="#3a9bd5"/><stop offset="0.84" stop-color="#3896d2"/><stop offset="0.92" stop-color="#3189c9"/><stop offset="1" stop-color="#2573ba"/></linearGradient><linearGradient id="linear-gradient-28" x1="-5001.37" y1="459.29" x2="-4961.61" y2="438.22" gradientTransform="matrix(-0.85, 0.49, -0.92, -0.53, -3641.72, 2954.71)" xlink:href="#linear-gradient-9"/></defs><title>slider</title><g id="Ñëîé_1" data-name="Ñëîé 1"><rect class="cls-2" width="790.71" height="450"/><polygon class="cls-3" points="311.51 213.7 291.93 202.39 307.49 193.41 327.07 204.72 311.51 213.7"/><path class="cls-4" d="M312.28,218l-27.72-16,22.16-12.79,27.72,16Zm-26.34-16,26.38,15.23,20.82-12L306.76,190Z"/><polygon class="cls-5" points="311.51 187.56 291.93 176.25 307.49 167.27 327.07 178.57 311.51 187.56"/><polygon class="cls-6" points="327.07 190.7 327.07 178.57 311.51 187.56 311.51 199.68 327.07 190.7"/><polygon class="cls-7" points="291.93 176.25 291.93 188.38 311.51 199.68 311.51 187.56 291.93 176.25"/><polygon class="cls-4" points="303.97 173.41 295.49 178.31 295.49 180.93 298.01 182.39 298.01 179.76 306.49 174.87 303.97 173.41"/><polygon class="cls-4" points="309.36 176.52 300.88 181.42 300.88 184.04 303.39 185.49 303.39 182.87 311.87 177.97 309.36 176.52"/><polygon class="cls-4" points="314.75 179.63 306.27 184.53 306.27 187.15 308.79 188.6 308.79 185.98 317.26 181.09 314.75 179.63"/><polygon class="cls-8" points="303.97 173.41 303.97 174.47 305.59 175.39 306.49 174.87 303.97 173.41"/><polygon class="cls-8" points="296.41 180.39 295.49 180.93 298.01 182.39 298.01 181.29 296.41 180.39"/><polygon class="cls-9" points="303.97 173.41 295.49 178.31 295.49 180.93 296.41 180.39 296.41 178.84 303.98 174.47 303.97 173.41"/><polygon class="cls-8" points="309.36 176.52 309.36 177.58 310.97 178.49 311.87 177.97 309.36 176.52"/><polygon class="cls-8" points="301.79 183.5 300.88 184.04 303.39 185.49 303.39 184.4 301.79 183.5"/><polygon class="cls-10" points="309.36 176.52 300.88 181.42 300.88 184.04 301.79 183.5 301.79 181.95 309.36 177.58 309.36 176.52"/><polygon class="cls-8" points="314.75 179.63 314.75 180.69 316.37 181.61 317.26 181.09 314.75 179.63"/><polygon class="cls-8" points="307.18 186.61 306.27 187.15 308.79 188.6 308.79 187.51 307.18 186.61"/><polygon class="cls-11" points="314.75 179.63 306.27 184.53 306.27 187.15 307.18 186.61 307.18 185.06 314.75 180.69 314.75 179.63"/><path class="cls-4" d="M413.19,320.91c-23,0-45.93-5.05-63.42-15.14-17-9.82-26.36-22.89-26.36-36.81s9.36-27,26.36-36.81c35-20.18,91.86-20.19,126.83,0,17,9.85,26.34,22.85,26.34,36.85s-9.36,27-26.36,36.81h0C459.12,315.86,436.15,320.91,413.19,320.91Zm0-103.24c-22.85,0-45.69,5-63.08,15.06-16.79,9.69-26,22.56-26,36.23s9.24,26.53,26,36.23c34.78,20.08,91.38,20.08,126.16,0h0c16.79-9.69,26-22.56,26-36.23s-9.24-26.53-26-36.23c-17.39-10-40.24-15.06-63.08-15.06Z"/><ellipse class="cls-12" cx="413.19" cy="268.96" rx="64.13" ry="37.02"/><path class="cls-13" d="M454,125.13,388.37,87.19a2.8,2.8,0,0,0-2.78-.25l-4.45,2.6,2.91,1.75V245.12c0,3.19,1.93,6.88,4.32,8.26l64.89,37.5-.92,3.3,4.49-2.62h0c.93-.52,1.52-1.75,1.52-3.51V133.39C458.35,130.2,456.41,126.51,454,125.13Z"/><path class="cls-14" d="M449.47,294l-65.66-38c-2.38-1.37-4.32-5.07-4.32-8.26V93.11c0-3.18,1.94-4.65,4.32-3.27l65.66,37.94c2.39,1.38,4.32,5.08,4.32,8.26V290.7C453.79,293.89,451.86,295.35,449.47,294Z"/><polygon class="cls-15" points="453.79 290.81 379.49 247.88 379.49 93 453.79 135.93 453.79 290.81"/><path class="cls-16" d="M441.94,293.79l-66.31-38.32a8,8,0,0,1-4-7V102.85a2.65,2.65,0,0,1,2.64-2.66,2.7,2.7,0,0,1,1.36.37l66.31,38.32a8,8,0,0,1,4,7V291.5a2.65,2.65,0,0,1-2.64,2.66A2.7,2.7,0,0,1,441.94,293.79Z"/><path class="cls-4" d="M443.25,294.44a2.92,2.92,0,0,1-1.47-.4l-66.32-38.32a8.34,8.34,0,0,1-4.16-7.21V102.85a2.95,2.95,0,0,1,4.41-2.54L442,138.62a8.35,8.35,0,0,1,4.16,7.22V291.5a3,3,0,0,1-2.93,2.94Zm-69-193.94a2.45,2.45,0,0,0-1.18.31,2.33,2.33,0,0,0-1.18,2v145.7a7.77,7.77,0,0,0,3.88,6.71l66.31,38.31a2.36,2.36,0,0,0,3.22-.88,2.33,2.33,0,0,0,.31-1.12V145.84a7.76,7.76,0,0,0-3.87-6.71l-66.32-38.32a2.45,2.45,0,0,0-1.18-.31Z"/><path class="cls-17" d="M421.55,115.3l-9.82-5.66a1.47,1.47,0,0,1-.6-1.16h0c0-.44.27-.65.6-.45l9.82,5.66a1.47,1.47,0,0,1,.6,1.16h0C422.15,115.29,421.88,115.49,421.55,115.3Z"/><path class="cls-18" d="M425.59,203.21c1.34.78,2.43-.05,2.43-1.84V147.59a5.84,5.84,0,0,0-2.43-4.65L371.8,111.88a9.08,9.08,0,0,0-.21,1.94V172Z"/><path class="cls-19" d="M385.17,183.28v1.33a8.72,8.72,0,0,0-4.34-.64c-6.08.44-13.17,5.26-15.83,10.75a8.91,8.91,0,0,0-1,4.17l-1.24-.4,1.33,1.95h0c1.11,1.71,3.35,2.67,6.45,2.44,6.09-.45,13.18-5.26,15.83-10.76,1.33-2.74,1.3-5.14.18-6.79h0Z"/><path class="cls-20" d="M385,190.08c-2.66,5.49-9.74,10.31-15.83,10.75s-8.87-3.65-6.21-9.14,9.75-10.31,15.83-10.75S387.65,184.58,385,190.08Z"/><path class="cls-21" d="M385,190.08c-2.66,5.49-9.74,10.31-15.83,10.75s-8.87-3.65-6.21-9.14,9.75-10.31,15.83-10.75S387.65,184.58,385,190.08Z"/><path class="cls-19" d="M377.79,196.35a16.58,16.58,0,0,1-7.85,3c-2.52.18-4.45-.53-5.46-2s-1-3.55.13-5.82c2.25-4.64,8.25-8.72,13.39-9.09,2.52-.19,4.46.53,5.47,2s1,3.56-.14,5.83A16.6,16.6,0,0,1,377.79,196.35Zm-7.51-10.75a16.4,16.4,0,0,0-5.46,6c-1.06,2.19-1.11,4.18-.15,5.59s2.82,2.1,5.25,1.92c5.07-.37,11-4.39,13.2-9,1.06-2.2,1.12-4.18.16-5.6s-2.83-2.09-5.26-1.91A16.25,16.25,0,0,0,370.28,185.6Z"/><ellipse class="cls-22" cx="373.97" cy="190.9" rx="11.36" ry="6.56" transform="translate(-42.65 243.07) rotate(-34.18)"/><path class="cls-19" d="M365,192a17.82,17.82,0,0,1,13.3-9c2.41-.18,4.21.5,5.19,1.75-.89-1.53-2.81-2.4-5.5-2.2-5.11.38-11.06,4.42-13.29,9-1.18,2.43-1.08,4.53,0,5.93C363.94,196.11,363.94,194.19,365,192Z"/><path class="cls-23" d="M384.7,189.65c-2.66,5.49-9.76,10.35-15.83,10.75-2.91.22-5.07-.61-6.23-2.13,1.07,1.79,3.34,2.79,6.52,2.56,6.09-.44,13.17-5.26,15.83-10.75,1.39-2.87,1.29-5.35,0-7C386,184.72,385.94,187,384.7,189.65Z"/><path class="cls-19" d="M383.14,196.58a17.16,17.16,0,0,0,3.24-4.46c1.33-2.74,1.3-5.14.18-6.79l-1.39-2.05-.07-.08-.09-.13v.05c-1.16-1.55-3.32-2.4-6.26-2.18a20.19,20.19,0,0,0-10.31,4.28l11,11.36Z"/><path class="cls-4" d="M418.62,147.37,340.56,102.3a1.54,1.54,0,0,0-1.59-.12h0l-1.16.68.53.08a3.13,3.13,0,0,0-.22,1.21v53.79a5.85,5.85,0,0,0,2.44,4.65l78.06,45.07a2.35,2.35,0,0,0,.43.19v.61l1.17-.68h0a2.16,2.16,0,0,0,.85-2V152A5.85,5.85,0,0,0,418.62,147.37Z"/><path class="cls-24" d="M417.49,208.31l-78.06-45.07a5.85,5.85,0,0,1-2.44-4.65V104.8c0-1.79,1.09-2.61,2.44-1.84l78.06,45a5.84,5.84,0,0,1,2.43,4.65v53.79C419.94,208.26,418.83,209.09,417.49,208.31Z"/><polygon class="cls-4" points="358.55 163.12 343.73 154.57 343.73 152.59 358.55 161.14 358.55 163.12"/><polygon class="cls-4" points="376.76 173.64 361.94 165.08 361.94 163.1 376.76 171.66 376.76 173.64"/><polygon class="cls-4" points="394.98 184.16 380.16 175.6 380.16 173.62 394.98 182.18 394.98 184.16"/><polygon class="cls-4" points="413.19 194.67 398.37 186.12 398.37 184.13 413.19 192.69 413.19 194.67"/><path class="cls-25" d="M417.49,148l-78.06-45c-1.35-.77-2.44,0-2.44,1.84v53.79a5.58,5.58,0,0,0,.12,1c4.15-3,21-12.29,53.3,5.51,11.74,6.48,21.56,5.62,29.51,1.38v-13.8A5.85,5.85,0,0,0,417.49,148Z"/><path class="cls-25" d="M369.35,145.3a75.64,75.64,0,0,0,27.73-9.05L339.43,103c-1.35-.77-2.44,0-2.44,1.84v51.48C342.75,151.74,352.59,147.46,369.35,145.3Z"/><path class="cls-19" d="M387.07,275.45l-.74,1.11a8.72,8.72,0,0,0-3.21-3c-5.28-3.08-13.84-3.12-19.14-.09a8.82,8.82,0,0,0-3.19,2.88l-.79-1v2.37h0c-.06,2,1.25,4.1,3.93,5.66,5.27,3.08,13.84,3.12,19.14.09,2.65-1.52,4-3.51,4-5.51h0Z"/><path class="cls-20" d="M383.08,281c-5.3,3-13.86,3-19.14-.08s-5.25-8,.05-11.05,13.87-3,19.14.08S388.38,277.93,383.08,281Z"/><path class="cls-26" d="M383.08,281c-5.3,3-13.86,3-19.14-.08s-5.25-8,.05-11.05,13.87-3,19.14.08S388.38,277.93,383.08,281Z"/><path class="cls-19" d="M373.6,282.06a16.53,16.53,0,0,1-8.17-2c-2.18-1.27-3.38-3-3.37-4.76s1.22-3.47,3.41-4.72c4.47-2.56,11.73-2.52,16.18.07,2.18,1.27,3.37,3,3.37,4.76s-1.22,3.47-3.41,4.72A16.54,16.54,0,0,1,373.6,282.06ZM373.48,269a16.2,16.2,0,0,0-7.9,1.87c-2.11,1.21-3.28,2.81-3.29,4.52s1.15,3.33,3.25,4.56a17.65,17.65,0,0,0,15.95.07c2.12-1.21,3.29-2.82,3.3-4.53s-1.15-3.32-3.25-4.55A16.41,16.41,0,0,0,373.48,269Z"/><path class="cls-27" d="M381.55,280.07a17.77,17.77,0,0,1-16.07-.07c-4.42-2.58-4.4-6.74,0-9.28s11.65-2.51,16.07.07S386,277.53,381.55,280.07Z"/><path class="cls-19" d="M365.52,271.26c4.45-2.54,11.64-2.51,16.07.08,2.09,1.22,3.19,2.79,3.3,4.38.13-1.77-1-3.57-3.3-4.93-4.42-2.58-11.62-2.61-16.07-.07-2.34,1.34-3.45,3.13-3.33,4.9C362.31,274,363.42,272.47,365.52,271.26Z"/><path class="cls-23" d="M383.09,280.45c-5.3,3-13.87,3-19.14-.09-2.53-1.47-3.83-3.37-3.93-5.28-.13,2.08,1.17,4.19,3.92,5.8,5.28,3.07,13.84,3.11,19.14.08,2.77-1.58,4.09-3.68,4-5.76C386.94,277.11,385.62,279,383.09,280.45Z"/><path class="cls-19" d="M389.4,272.14l-.75,1.11a8.64,8.64,0,0,0-3.21-3c-5.27-3.08-13.84-3.11-19.14-.09a8.82,8.82,0,0,0-3.19,2.88l-.78-1v2.36h0c-.06,2,1.25,4.09,3.94,5.66,5.27,3.07,13.84,3.11,19.14.08,2.65-1.51,4-3.51,4-5.51h0Z"/><path class="cls-20" d="M385.41,277.65c-5.3,3-13.87,3-19.14-.09s-5.25-8,.05-11.05,13.86-3,19.14.09S390.71,274.62,385.41,277.65Z"/><path class="cls-28" d="M385.41,277.65c-5.3,3-13.87,3-19.14-.09s-5.25-8,.05-11.05,13.86-3,19.14.09S390.71,274.62,385.41,277.65Z"/><path class="cls-19" d="M375.94,278.75a16.53,16.53,0,0,1-8.17-2c-2.18-1.27-3.37-3-3.37-4.75s1.22-3.48,3.41-4.73c4.47-2.55,11.73-2.52,16.18.08,2.18,1.27,3.38,2.95,3.37,4.75s-1.22,3.47-3.41,4.72A16.43,16.43,0,0,1,375.94,278.75Zm-.12-13.12a16.32,16.32,0,0,0-7.9,1.87c-2.11,1.21-3.28,2.82-3.29,4.53s1.15,3.32,3.25,4.55c4.39,2.56,11.55,2.59,16,.07,2.11-1.2,3.28-2.81,3.29-4.52s-1.15-3.33-3.25-4.56a16.4,16.4,0,0,0-8.12-1.94Z"/><path class="cls-29" d="M383.88,276.75c-4.45,2.54-11.65,2.51-16.07-.07s-4.41-6.73,0-9.28,11.64-2.51,16.07.08S388.32,274.21,383.88,276.75Z"/><path class="cls-19" d="M367.85,268c4.44-2.54,11.64-2.51,16.06.07,2.1,1.22,3.19,2.79,3.3,4.38.14-1.77-1-3.56-3.29-4.92-4.43-2.59-11.62-2.62-16.07-.08-2.35,1.34-3.46,3.13-3.34,4.9C364.63,270.71,365.74,269.15,367.85,268Z"/><path class="cls-23" d="M385.41,277.13c-5.3,3-13.87,3-19.14-.08-2.52-1.48-3.83-3.38-3.93-5.29-.13,2.08,1.18,4.2,3.93,5.8,5.27,3.08,13.84,3.11,19.14.09,2.76-1.58,4.09-3.68,4-5.77C389.27,273.79,387.94,275.68,385.41,277.13Z"/><path class="cls-19" d="M407.23,288.62l-.75,1.11a8.64,8.64,0,0,0-3.21-3c-5.27-3.07-13.84-3.11-19.14-.08a8.86,8.86,0,0,0-3.18,2.87l-.79-1v2.36h0c-.06,2,1.24,4.09,3.93,5.66,5.27,3.07,13.84,3.11,19.14.08,2.65-1.51,4-3.51,4-5.5h0Z"/><ellipse class="cls-20" cx="391.93" cy="287.26" rx="13.53" ry="7.81"/><ellipse class="cls-30" cx="391.93" cy="287.26" rx="13.53" ry="7.81"/><path class="cls-19" d="M393.76,295.23a16.57,16.57,0,0,1-8.18-2c-2.17-1.27-3.37-3-3.36-4.75s1.22-3.47,3.41-4.73c4.47-2.55,11.73-2.52,16.18.08,2.18,1.27,3.37,3,3.36,4.75s-1.21,3.47-3.4,4.72A16.43,16.43,0,0,1,393.76,295.23Zm-.12-13.11a16.45,16.45,0,0,0-7.9,1.86c-2.11,1.21-3.28,2.82-3.29,4.53s1.15,3.33,3.25,4.55a17.65,17.65,0,0,0,15.95.07c2.12-1.2,3.29-2.81,3.29-4.52s-1.14-3.33-3.25-4.55a16.24,16.24,0,0,0-8.05-1.94Z"/><ellipse class="cls-31" cx="391.94" cy="287.26" rx="11.36" ry="6.56"/><path class="cls-19" d="M385.68,284.43a17.77,17.77,0,0,1,16.07.07c2.09,1.22,3.19,2.79,3.3,4.38.13-1.77-1-3.56-3.3-4.92-4.42-2.58-11.62-2.62-16.07-.08-2.34,1.34-3.45,3.13-3.34,4.9C382.46,287.19,383.58,285.63,385.68,284.43Z"/><path class="cls-23" d="M403.24,293.61c-5.29,3-13.86,3-19.14-.08-2.52-1.48-3.83-3.38-3.93-5.29-.12,2.09,1.18,4.2,3.93,5.8,5.27,3.08,13.84,3.12,19.14.09,2.77-1.58,4.09-3.68,4-5.77C407.1,290.27,405.78,292.16,403.24,293.61Z"/><path class="cls-19" d="M380.17,293.31l-.75,1.11a8.64,8.64,0,0,0-3.21-3c-5.27-3.08-13.84-3.12-19.14-.09a8.82,8.82,0,0,0-3.19,2.88l-.78-1v2.37h0c-.06,2,1.25,4.09,3.94,5.66,5.27,3.08,13.84,3.11,19.14.09,2.65-1.52,4-3.51,4-5.51h0Z"/><ellipse class="cls-20" cx="364.99" cy="291.94" rx="13.53" ry="7.81"/><ellipse class="cls-32" cx="364.99" cy="291.94" rx="13.53" ry="7.81"/><path class="cls-19" d="M366.69,299.92a16.53,16.53,0,0,1-8.17-2c-2.18-1.27-3.37-3-3.37-4.76s1.22-3.47,3.41-4.72c4.47-2.56,11.73-2.52,16.18.07,2.18,1.27,3.38,3,3.37,4.75s-1.22,3.48-3.41,4.73A16.54,16.54,0,0,1,366.69,299.92Zm-.12-13.11a16.32,16.32,0,0,0-7.9,1.87c-2.11,1.21-3.28,2.81-3.29,4.52s1.15,3.33,3.25,4.56c4.39,2.56,11.55,2.59,16,.07,2.11-1.21,3.28-2.82,3.29-4.53s-1.15-3.32-3.25-4.55a16.45,16.45,0,0,0-8.1-1.94Z"/><path class="cls-33" d="M374.65,297.93c-4.45,2.54-11.65,2.51-16.07-.07s-4.41-6.74,0-9.28a17.77,17.77,0,0,1,16.07.07C379.11,291.23,379.09,295.39,374.65,297.93Z"/><path class="cls-19" d="M358.62,289.12c4.44-2.54,11.64-2.51,16.06.07,2.1,1.23,3.19,2.8,3.3,4.39.14-1.77-1-3.57-3.29-4.93a17.77,17.77,0,0,0-16.07-.07c-2.35,1.34-3.46,3.13-3.34,4.89C355.4,291.89,356.51,290.33,358.62,289.12Z"/><path class="cls-23" d="M376.18,298.31c-5.3,3-13.87,3-19.14-.09-2.52-1.47-3.83-3.37-3.93-5.28-.13,2.08,1.18,4.19,3.93,5.8,5.27,3.07,13.84,3.11,19.14.08,2.76-1.58,4.09-3.68,4-5.76C380,295,378.71,296.86,376.18,298.31Z"/><path class="cls-19" d="M392.94,288.34l-.75,1.11a8.64,8.64,0,0,0-3.21-3c-5.27-3.08-13.84-3.11-19.14-.09a9,9,0,0,0-3.18,2.88l-.79-1v2.36h0c-.06,2,1.24,4.09,3.93,5.65,5.27,3.08,13.84,3.12,19.14.09,2.65-1.51,4-3.51,4-5.51h0Z"/><ellipse class="cls-20" cx="379.46" cy="288.29" rx="7.81" ry="13.53" transform="translate(89.45 666.44) rotate(-89.74)"/><ellipse class="cls-34" cx="379.46" cy="288.29" rx="7.81" ry="13.53" transform="translate(89.45 666.44) rotate(-89.74)"/><path class="cls-19" d="M379.5,295a16.57,16.57,0,0,1-8.18-2c-2.17-1.27-3.37-3-3.36-4.75s1.22-3.48,3.41-4.73c4.47-2.55,11.73-2.52,16.18.08,2.18,1.27,3.37,2.95,3.36,4.75s-1.21,3.47-3.4,4.72A16.43,16.43,0,0,1,379.5,295Zm-.12-13.12a16.2,16.2,0,0,0-7.9,1.87c-2.11,1.21-3.28,2.82-3.29,4.53s1.15,3.32,3.25,4.55a17.65,17.65,0,0,0,15.95.07c2.12-1.21,3.29-2.81,3.29-4.52s-1.14-3.33-3.25-4.56a16.39,16.39,0,0,0-8.05-2Z"/><path class="cls-35" d="M387.45,293a17.77,17.77,0,0,1-16.07-.07c-4.42-2.58-4.41-6.74,0-9.28s11.65-2.51,16.07.07S391.94,290.41,387.45,293Z"/><path class="cls-19" d="M371.42,284.15c4.45-2.55,11.64-2.51,16.07.07,2.09,1.22,3.19,2.79,3.3,4.38.13-1.77-1-3.57-3.3-4.93-4.42-2.58-11.62-2.61-16.07-.07-2.34,1.34-3.45,3.13-3.34,4.9C368.2,286.91,369.32,285.35,371.42,284.15Z"/><path class="cls-23" d="M388.94,293.33c-5.29,3-13.86,3-19.14-.09-2.52-1.47-3.83-3.37-3.93-5.28-.12,2.08,1.18,4.2,3.93,5.8,5.27,3.07,13.84,3.11,19.14.08,2.77-1.57,4.09-3.67,4-5.76C392.84,290,391.52,291.88,388.94,293.33Z"/><path class="cls-19" d="M396.47,285.63l-.75,1.11a8.72,8.72,0,0,0-3.21-3c-5.27-3.07-13.84-3.11-19.14-.08a8.79,8.79,0,0,0-3.18,2.88l-.79-1v2.37h0c-.06,2,1.24,4.09,3.93,5.66,5.27,3.07,13.84,3.11,19.14.09,2.65-1.52,4-3.51,4-5.51h0Z"/><path class="cls-20" d="M392.48,291.14c-5.3,3-13.87,3-19.14-.09s-5.25-8,.05-11.05,13.87-3,19.14.09S397.78,288.11,392.48,291.14Z"/><path class="cls-36" d="M392.48,291.14c-5.3,3-13.87,3-19.14-.09s-5.25-8,.05-11.05,13.87-3,19.14.09S397.78,288.11,392.48,291.14Z"/><path class="cls-19" d="M383,292.24a16.57,16.57,0,0,1-8.18-2c-2.17-1.27-3.37-2.95-3.36-4.75s1.22-3.47,3.41-4.72c4.47-2.56,11.73-2.53,16.18.07,2.18,1.27,3.37,3,3.36,4.75s-1.21,3.48-3.4,4.73A16.67,16.67,0,0,1,383,292.24Zm-.12-13.11a16.25,16.25,0,0,0-7.94,1.87c-2.11,1.2-3.28,2.81-3.29,4.52s1.15,3.33,3.25,4.56c4.39,2.55,11.54,2.59,16,.07,2.12-1.21,3.29-2.82,3.29-4.53s-1.14-3.32-3.25-4.55A16.33,16.33,0,0,0,382.88,279.13Z"/><path class="cls-37" d="M390.94,290.25c-4.45,2.54-11.64,2.51-16.07-.08s-4.41-6.73,0-9.27,11.65-2.51,16.07.07S395.4,287.7,390.94,290.25Z"/><path class="cls-19" d="M374.94,281.44a17.77,17.77,0,0,1,16.07.07c2.09,1.22,3.19,2.8,3.3,4.38.13-1.76-1-3.56-3.3-4.92-4.42-2.58-11.62-2.61-16.07-.07-2.34,1.34-3.45,3.12-3.34,4.89C371.7,284.21,372.82,282.64,374.94,281.44Z"/><path class="cls-23" d="M392.48,290.62c-5.29,3-13.86,3-19.14-.08-2.52-1.47-3.83-3.37-3.93-5.29-.12,2.09,1.18,4.2,3.93,5.8,5.27,3.08,13.84,3.12,19.14.09,2.77-1.58,4.09-3.68,4-5.77C396.34,287.29,395,289.18,392.48,290.62Z"/><path class="cls-19" d="M398.33,280.43l-.75,1.11a8.64,8.64,0,0,0-3.21-3c-5.27-3.07-13.84-3.11-19.14-.08a8.8,8.8,0,0,0-3.19,2.87l-.78-1v2.36h0c-.06,2,1.25,4.09,3.94,5.66,5.27,3.07,13.84,3.11,19.14.08,2.64-1.51,4-3.51,4-5.51h0Z"/><ellipse class="cls-20" cx="384.81" cy="280.39" rx="7.81" ry="13.53" transform="translate(102.68 663.92) rotate(-89.74)"/><ellipse class="cls-38" cx="384.81" cy="280.39" rx="7.81" ry="13.53" transform="translate(102.68 663.92) rotate(-89.74)"/><path class="cls-19" d="M384.85,287a16.53,16.53,0,0,1-8.17-2c-2.18-1.27-3.37-3-3.37-4.75s1.22-3.47,3.41-4.73c4.47-2.55,11.73-2.52,16.18.08,2.18,1.27,3.38,3,3.37,4.75s-1.22,3.47-3.41,4.72A16.43,16.43,0,0,1,384.85,287Zm-.12-13.11a16.45,16.45,0,0,0-7.9,1.86c-2.11,1.21-3.28,2.82-3.29,4.53s1.15,3.33,3.25,4.55c4.39,2.56,11.55,2.59,16,.07,2.11-1.2,3.28-2.81,3.29-4.52s-1.15-3.33-3.25-4.55a16.31,16.31,0,0,0-8.1-1.9Z"/><path class="cls-39" d="M392.8,285c-4.44,2.55-11.64,2.51-16.06-.07s-4.41-6.73,0-9.28,11.64-2.51,16.07.08S397.25,282.5,392.8,285Z"/><path class="cls-19" d="M376.77,276.24c4.45-2.54,11.65-2.51,16.07.07,2.1,1.22,3.19,2.79,3.3,4.38.13-1.77-1-3.56-3.29-4.92-4.43-2.59-11.62-2.62-16.07-.08-2.35,1.34-3.46,3.13-3.34,4.9C373.56,279,374.67,277.44,376.77,276.24Z"/><path class="cls-23" d="M394.34,285.42c-5.3,3-13.87,3-19.14-.08-2.52-1.48-3.83-3.38-3.93-5.29-.13,2.09,1.18,4.2,3.93,5.8,5.27,3.08,13.84,3.12,19.14.09,2.76-1.58,4.08-3.68,4-5.77C398.2,282.08,396.87,284,394.34,285.42Z"/><path class="cls-19" d="M407.68,282.58l-1,.93a8.82,8.82,0,0,0-2.53-3.58c-4.53-4.08-12.91-5.88-18.72-4a8.83,8.83,0,0,0-3.71,2.17l-.55-1.18-.5,2.32h0c-.48,2,.38,4.26,2.69,6.35,4.53,4.09,12.91,5.88,18.72,4,2.9-.94,4.61-2.62,5-4.58h0Z"/><path class="cls-20" d="M402.65,287.16c-5.81,1.88-14.19.08-18.72-4s-3.5-8.93,2.31-10.81,14.18-.09,18.72,4S408.45,285.28,402.65,287.16Z"/><path class="cls-40" d="M402.65,287.16c-5.81,1.88-14.19.08-18.72-4s-3.5-8.93,2.31-10.81,14.18-.09,18.72,4S408.45,285.28,402.65,287.16Z"/><path class="cls-19" d="M393.13,286.29a16.4,16.4,0,0,1-7.59-3.6c-1.87-1.68-2.7-3.58-2.32-5.34s1.9-3.15,4.3-3.92c4.9-1.59,12-.07,15.82,3.38,1.88,1.69,2.7,3.59,2.32,5.34s-1.9,3.15-4.3,3.93A16.51,16.51,0,0,1,393.13,286.29Zm2.57-12.86a16.26,16.26,0,0,0-8.11.22c-2.32.75-3.79,2.08-4.15,3.75s.44,3.49,2.25,5.12c3.77,3.41,10.77,4.9,15.6,3.34,2.32-.75,3.79-2.08,4.15-3.76s-.44-3.49-2.25-5.12a16.32,16.32,0,0,0-7.49-3.55Z"/><path class="cls-41" d="M401.33,286a17.75,17.75,0,0,1-15.71-3.36c-3.81-3.43-2.94-7.5,1.93-9.07a17.74,17.74,0,0,1,15.72,3.36C407.07,280.33,406.2,284.39,401.33,286Z"/><path class="cls-19" d="M387.44,274.07a17.75,17.75,0,0,1,15.71,3.36c1.8,1.62,2.56,3.39,2.33,5,.5-1.7-.21-3.68-2.21-5.49a17.74,17.74,0,0,0-15.72-3.36c-2.56.83-4,2.35-4.27,4.11C383.73,276.12,385.14,274.82,387.44,274.07Z"/><path class="cls-23" d="M402.75,286.65c-5.8,1.88-14.18.09-18.71-4-2.17-2-3.06-4.08-2.77-6-.55,2,.3,4.35,2.66,6.49,4.53,4.08,12.91,5.88,18.72,4,3-1,4.75-2.77,5.07-4.83C407.21,284.18,405.53,285.75,402.75,286.65Z"/><path class="cls-19" d="M387,225.62l-1.19.6a8.77,8.77,0,0,0-1.33-4.18c-3.07-5.27-10.51-9.53-16.61-9.5a8.72,8.72,0,0,0-4.19.94l-.18-1.29-1.17,2.05h0c-1.06,1.74-.93,4.18.63,6.86,3.08,5.27,10.52,9.53,16.62,9.5,3.05,0,5.19-1.09,6.18-2.83h0Z"/><ellipse class="cls-20" cx="375.28" cy="218.88" rx="7.81" ry="13.53" transform="translate(-0.97 436.09) rotate(-60.25)"/><ellipse class="cls-42" cx="375.28" cy="218.88" rx="7.81" ry="13.53" transform="translate(-0.97 436.09) rotate(-60.25)"/><path class="cls-19" d="M372.06,224.74a16.53,16.53,0,0,1-6.12-5.74c-1.27-2.17-1.48-4.23-.59-5.79s2.77-2.42,5.29-2.43c5.15,0,11.45,3.58,14.05,8,1.27,2.18,1.48,4.23.59,5.79s-2.79,2.43-5.34,2.43A16.31,16.31,0,0,1,372.06,224.74Zm6.35-11.47a16.19,16.19,0,0,0-7.79-2.26c-2.44,0-4.24.83-5.09,2.31s-.64,3.46.58,5.57c2.56,4.39,8.78,7.94,13.86,7.91,2.43,0,4.24-.83,5.09-2.31s.64-3.46-.59-5.57A16.36,16.36,0,0,0,378.41,213.27Z"/><path class="cls-43" d="M379.94,226.92a17.77,17.77,0,0,1-13.95-8c-2.59-4.43-.52-8,4.6-8.06s11.37,3.55,14,8S385.09,226.9,379.94,226.92Z"/><path class="cls-19" d="M370.35,211.36c5.12,0,11.37,3.55,13.95,8,1.22,2.09,1.4,4,.71,5.43,1-1.47.92-3.57-.44-5.9-2.58-4.43-8.83-8-13.95-8-2.7,0-4.55,1-5.32,2.62C366.19,212.19,367.94,211.37,370.35,211.36Z"/><path class="cls-23" d="M381.11,228c-6.1,0-13.54-4.22-16.61-9.49-1.47-2.53-1.68-4.83-.82-6.54-1.14,1.75-1,4.23.56,7,3.08,5.28,10.52,9.53,16.62,9.5,3.18,0,5.37-1.19,6.3-3.06C386.12,227,384,228,381.11,228Z"/><path class="cls-19" d="M384.43,249.3l-.1,1.33a8.8,8.8,0,0,0-4.27-1c-6.1-.08-13.58,4.11-16.69,9.36a8.8,8.8,0,0,0-1.36,4.07l-1.19-.51,1.12,2.05h0c.95,1.8,3.1,2.94,6.21,3,6.1.08,13.58-4.12,16.69-9.36,1.56-2.63,1.74-5,.76-6.76h0Z"/><path class="cls-20" d="M383.67,256.06c-3.11,5.24-10.59,9.44-16.69,9.36s-8.52-4.39-5.41-9.64,10.6-9.44,16.7-9.36S386.79,250.81,383.67,256.06Z"/><path class="cls-44" d="M383.67,256.06c-3.11,5.24-10.59,9.44-16.69,9.36s-8.52-4.39-5.41-9.64,10.6-9.44,16.7-9.36S386.79,250.81,383.67,256.06Z"/><path class="cls-19" d="M375.94,261.69a16.66,16.66,0,0,1-8.08,2.32c-2.52,0-4.39-.91-5.27-2.48s-.65-3.62.64-5.78c2.63-4.43,9-8,14.11-7.92,2.53,0,4.4.91,5.27,2.48s.66,3.62-.63,5.78A16.32,16.32,0,0,1,375.94,261.69Zm-6.56-11.35a16.26,16.26,0,0,0-5.95,5.52c-1.25,2.1-1.47,4.07-.64,5.56s2.64,2.33,5.08,2.36c5.08.06,11.32-3.44,13.91-7.8,1.25-2.1,1.47-4.07.63-5.56s-2.63-2.33-5.07-2.36a16.34,16.34,0,0,0-7.94,2.28Z"/><path class="cls-45" d="M381.94,256c-2.62,4.4-8.89,7.92-14,7.86s-7.16-3.69-4.54-8.1a17.75,17.75,0,0,1,14-7.86C382.51,248,384.52,251.63,381.94,256Z"/><path class="cls-19" d="M363.61,256.28c2.62-4.41,8.9-7.93,14-7.86,2.42,0,4.15.86,5,2.18-.76-1.6-2.6-2.62-5.3-2.66-5.12-.06-11.4,3.46-14,7.86-1.38,2.33-1.47,4.43-.49,5.91C362.18,260.27,362.38,258.36,363.61,256.28Z"/><path class="cls-23" d="M383.42,255.61c-3.12,5.24-10.59,9.44-16.69,9.36-2.92,0-5-1-6-2.66.92,1.88,3.1,3.07,6.28,3.11,6.1.08,13.58-4.12,16.69-9.36,1.63-2.74,1.75-5.22.62-7C385.13,250.8,384.94,253.1,383.42,255.61Z"/><path class="cls-4" d="M304.3,249.37a2.7,2.7,0,0,1-1.36-.37l-35-20.23a.62.62,0,0,1-.32-.55.65.65,0,0,1,.32-.56l31-17.89.31.54-31,17.89,35,20.26a2,2,0,0,0,2,0l20.9-12a2.66,2.66,0,0,1,2.67,0l8.56,5-.32.53-8.55-5a2,2,0,0,0-2.05,0l-20.9,12A2.65,2.65,0,0,1,304.3,249.37Z"/><path class="cls-46" d="M460.88,219.54l-32.61-35-32.62-2.63S390.4,226.12,428.27,273C466.13,269.81,460.88,219.54,460.88,219.54Z"/><polygon class="cls-47" points="395.65 181.88 388.31 186.11 420.93 188.75 428.27 184.51 395.65 181.88"/><path class="cls-48" d="M453.55,223.78l-32.62-35-13.42-1.35-19.2-1.29s-5.24,44.22,32.62,91.12C458.79,274.05,453.55,223.78,453.55,223.78Z"/><path class="cls-4" d="M453.55,223.78l-32.62-35-32.62-2.64.92-.53,33,2.67,32.62,35s4.38,42-23.82,51.66C457.78,264.44,453.55,223.78,453.55,223.78Z"/><path class="cls-25" d="M449.59,224.32l-29.33-31.49-12.06-1.22-17.26-1.15s-4.71,39.75,29.33,81.92C454.3,269.52,449.59,224.32,449.59,224.32Z"/><path class="cls-12" d="M753.24,296.43l-69.27,40c-3.1,1.79-7.78,2-10.46.43L521.67,249.21c-2.68-1.55-2.34-4.25.75-6l69.27-40c3.1-1.79,7.78-2,10.46-.43L754,290.44C756.67,291.94,756.34,294.64,753.24,296.43Z"/><path class="cls-49" d="M755.8,271.31l-14.27-2.49L602.15,188.35c-2.68-1.54-7.36-1.35-10.46.44l-64.56,37.29-7.27-1.27v7.39h0a3.06,3.06,0,0,0,1.8,2.63L673.51,322.5c2.68,1.55,7.36,1.35,10.46-.43l69.27-40c1.72-1,2.59-2.27,2.56-3.47h0Z"/><path class="cls-50" d="M753.24,274.72l-69.27,40c-3.1,1.79-7.78,2-10.46.44L521.67,227.5c-2.68-1.55-2.34-4.25.75-6l69.27-40c3.1-1.79,7.78-2,10.46-.43L754,268.73C756.67,270.23,756.34,272.93,753.24,274.72Z"/><path class="cls-4" d="M753.24,273.78l-69.27,40c-3.1,1.79-7.78,2-10.46.43L521.67,226.56a3.42,3.42,0,0,1-1.76-2.14,3,3,0,0,0,1.76,3.08l151.84,87.67c2.68,1.54,7.36,1.35,10.46-.44l69.27-40c1.93-1.11,2.78-2.58,2.51-3.9A4.64,4.64,0,0,1,753.24,273.78Z"/><polygon class="cls-15" points="753.35 268.31 672.87 314.79 522.32 227.87 602.8 181.39 753.35 268.31"/><path class="cls-17" d="M567.44,199.59l-10.69,6.17a1.71,1.71,0,0,1-1.57.06l-.11-.06c-.4-.23-.35-.64.12-.9l10.69-6.18a1.78,1.78,0,0,1,1.56-.06l.11.06C567.94,198.91,567.94,199.32,567.44,199.59Z"/><polygon class="cls-4" points="541.92 228.63 540.57 229.41 537.38 227.56 538.73 226.78 541.92 228.63"/><polygon class="cls-4" points="544.41 227.19 543.06 227.97 539.86 226.13 541.21 225.35 544.41 227.19"/><polygon class="cls-4" points="546.89 225.76 545.54 226.54 542.35 224.69 543.7 223.91 546.89 225.76"/><polygon class="cls-4" points="549.38 224.32 548.03 225.1 544.83 223.26 546.18 222.48 549.38 224.32"/><path class="cls-4" d="M595.08,90.32a4.76,4.76,0,1,1-4.76,4.76,4.76,4.76,0,0,1,4.76-4.76Z"/><path class="cls-51" d="M579.72,90.32a4.76,4.76,0,1,1-4.78,4.76,4.76,4.76,0,0,1,4.78-4.76Z"/><path class="cls-52" d="M564.37,90.32a4.76,4.76,0,1,1-4.76,4.76,4.76,4.76,0,0,1,4.76-4.76Z"/><path class="cls-53" d="M549,90.32a4.76,4.76,0,1,1-4.76,4.76A4.76,4.76,0,0,1,549,90.32Z"/><ellipse class="cls-3" cx="621.61" cy="237.62" rx="26.9" ry="15.53"/><path class="cls-4" d="M621.61,261.93c-10.7,0-21.39-2.35-29.53-7.05s-12.34-10.72-12.34-17.26,4.38-12.66,12.34-17.25c16.28-9.4,42.77-9.4,59,0,8,4.59,12.34,10.72,12.34,17.25s-4.38,12.67-12.34,17.26C643,259.58,632.3,261.93,621.61,261.93Zm0-47.91c-10.57,0-21.13,2.33-29.17,7-7.73,4.46-12,10.37-12,16.63s4.25,12.18,12,16.64c16.08,9.28,42.25,9.28,58.34,0,7.72-4.46,12-10.37,12-16.64s-4.25-12.17-12-16.63c-8-4.67-18.61-7-29.17-7Z"/><path class="cls-4" d="M730.43,146.08,614.94,79.42a2.33,2.33,0,0,0-2.36-.19h0l-1.71,1,.79.11a4.42,4.42,0,0,0-.32,1.8v79.55c0,2.66,1.61,5.74,3.6,6.88L730.4,235.24a3.65,3.65,0,0,0,.64.28v.91l1.72-1h0a3.17,3.17,0,0,0,1.25-2.91V153C734,150.31,732.42,147.23,730.43,146.08Z"/><path class="cls-54" d="M728.76,236.21,613.29,169.55c-2-1.15-3.6-4.23-3.6-6.88V83.12c0-2.65,1.61-3.87,3.6-2.72l115.47,66.66c2,1.15,3.6,4.23,3.6,6.88v79.55C732.36,236.14,730.75,237.36,728.76,236.21Z"/><polygon class="cls-4" points="641.57 169.38 619.65 156.72 619.65 153.79 641.57 166.45 641.57 169.38"/><polygon class="cls-4" points="668.51 184.93 646.6 172.28 646.6 169.35 668.51 182 668.51 184.93"/><polygon class="cls-4" points="695.46 200.49 673.54 187.83 673.54 184.9 695.46 197.56 695.46 200.49"/><polygon class="cls-4" points="722.4 216.04 700.48 203.39 700.48 200.46 722.4 213.11 722.4 216.04"/><path class="cls-18" d="M635.66,111.7l-26-2.11v53.08c0,2.65,1.61,5.73,3.6,6.88l50,28.85c12.91-18.3,10-46.34,10-46.34Z"/><path class="cls-55" d="M664.37,158.25l-37.59-40.36-37.59-3s-6,51,37.59,105C670.41,216.19,664.37,158.25,664.37,158.25Z"/><polygon class="cls-56" points="589.19 114.85 580.73 119.73 618.32 122.77 626.78 117.89 589.19 114.85"/><path class="cls-57" d="M655.94,163.14l-37.59-40.37-15.45-1.56-22.14-1.48s-6,51,37.59,105C661.94,221.07,655.94,163.14,655.94,163.14Z"/><path class="cls-4" d="M655.94,163.14l-37.59-40.37-37.59-3,1.06-.61,38.09,3.08L657.5,162.6s5,48.43-27.44,59.53C660.79,210,655.94,163.14,655.94,163.14Z"/><path class="cls-25" d="M651.35,163.76l-33.8-36.29-13.9-1.4-19.9-1.33s-5.43,45.81,33.8,94.41C656.78,215.85,651.35,163.76,651.35,163.76Z"/><rect class="cls-4" x="591.36" y="137.54" width="1.88" height="1.88" transform="translate(75.56 459.38) rotate(-45)"/><rect class="cls-4" x="596.18" y="137.51" width="1.88" height="1.88" transform="translate(76.99 462.78) rotate(-45)"/><rect class="cls-4" x="593.77" y="135.13" width="1.88" height="1.88" transform="translate(77.97 460.38) rotate(-45)"/><rect class="cls-4" x="593.77" y="139.91" width="1.88" height="1.88" transform="translate(74.59 461.78) rotate(-45)"/><path class="cls-4" d="M731.86,131.39l-2.73-2.74,6.57-6.57-6.57-6.57,2.73-2.74,9.31,9.31Zm-1.64-2.74,1.64,1.65,8.22-8.22-8.22-8.22-1.64,1.65,6.57,6.57Z"/><polygon class="cls-52" points="721.67 113.32 719.49 115.51 726.06 122.08 719.49 128.65 721.67 130.84 728.25 124.27 730.44 122.08 721.67 113.32"/><path class="cls-4" d="M678.12,290a.52.52,0,0,1-.52-.48.53.53,0,0,1,.48-.57,54.2,54.2,0,0,0,22.35-6.78c7-4.06,11.25-8.1,12.52-12a.53.53,0,0,1,1,.33c-1.35,4.17-5.73,8.41-13,12.61A55.15,55.15,0,0,1,678.16,290Z"/><path class="cls-4" d="M713.87,268a.54.54,0,0,1-.53-.51c-.11-3.11-2.38-6-6.55-8.45-9.24-5.33-21.29-5.3-33.93.08a.55.55,0,0,1-.71-.3.54.54,0,0,1,.3-.7c13-5.52,25.33-5.53,34.86,0,4.51,2.61,7,5.83,7.09,9.32a.53.53,0,0,1-.51.55h0Z"/><path class="cls-4" d="M670.11,290h0a28,28,0,0,1-11.24-3.22c-3.26-1.88-5.29-4.43-5.87-7.36a1.33,1.33,0,0,1,.34-1.16,3.21,3.21,0,0,1,2.57-.88,2.52,2.52,0,0,1,2.42,1.41,8.92,8.92,0,0,0,4.44,5.13c8.21,4.73,24,3.32,35.23-3.16,7.23-4.18,11.06-8.44,11.06-12.32,0-2.73-1.94-5.29-5.6-7.41-9.46-5.46-22.3-4.31-35.22,3.16-4.67,2.69-8,6-9.42,9.29a2.41,2.41,0,0,1-2.25,1.16,2.76,2.76,0,0,1-2.38-1,1.21,1.21,0,0,1-.07-1.19c1.91-3.86,5.75-7.54,11.11-10.64a.54.54,0,0,1,.72.2.52.52,0,0,1-.18.7h0c-5.18,3-8.87,6.52-10.69,10.19a.15.15,0,0,0,0,.16,1.76,1.76,0,0,0,1.46.49,1.52,1.52,0,0,0,1.31-.53c1.5-3.5,5-7,9.86-9.78,13.26-7.66,26.48-8.81,36.27-3.16,4,2.32,6.13,5.19,6.13,8.32,0,4.34-3.9,8.79-11.59,13.23-11.51,6.65-27.78,8.06-36.27,3.16a10,10,0,0,1-4.93-5.75c-.08-.28-.66-.6-1.46-.65a2.27,2.27,0,0,0-1.73.52.34.34,0,0,0-.1.27c.52,2.62,2.38,4.92,5.37,6.65a26.8,26.8,0,0,0,10.81,3.08.53.53,0,0,1-.05,1.05Z"/><path class="cls-4" d="M683.35,284.57a2.91,2.91,0,0,1-2.1-.78,1.24,1.24,0,0,1-.3-1.24,2,2,0,0,1,1.62-1.18,33.19,33.19,0,0,0,10-3.73c4.86-2.8,7.61-5.6,8-8.1a4.06,4.06,0,0,0-1.28-3.46,1.34,1.34,0,0,1-.39-1.24,2,2,0,0,1,1.37-1.29,3.66,3.66,0,0,1,3.62.62,6.33,6.33,0,0,1,2,5c-.2,2.59-2.08,5.28-5.58,8a.52.52,0,1,1-.64-.83c3.25-2.52,5-4.95,5.17-7.24a5.35,5.35,0,0,0-1.66-4.17,2.69,2.69,0,0,0-2.51-.35c-.46.16-.66.39-.69.53s0,.13.11.28a5,5,0,0,1,1.57,4.34c-.4,2.87-3.25,5.85-8.47,8.86a34.89,34.89,0,0,1-10.31,3.85,1.12,1.12,0,0,0-.83.48.42.42,0,0,0,.08.21,2.15,2.15,0,0,0,1.85.37,39.67,39.67,0,0,0,11.33-4.29.54.54,0,0,1,.72.2.51.51,0,0,1-.17.7h0a40.54,40.54,0,0,1-11.64,4.41A4,4,0,0,1,683.35,284.57Z"/><path class="cls-4" d="M675,285.38h-.08a20.69,20.69,0,0,1-9.63-2.34c-2.75-1.59-4.21-3.82-4.21-6.44,0-4,3.49-8.38,9.33-11.76,9.26-5.34,18.51-7.06,26.06-4.83a2.05,2.05,0,0,1,1.53,1.28,1.29,1.29,0,0,1-.31,1.26h0a3.55,3.55,0,0,1-3.5.71c-5.39-1.62-12.19-.47-19.15,3.22-.26.14-.36.28-.36.37s.12.22.3.33a2.55,2.55,0,0,0,2.16,0c6.92-3.66,13.38-4.33,17.7-1.83,1.74,1,2.66,2.32,2.66,3.8,0,2.45-2.4,5.07-7.12,7.8-6.48,3.74-15,4.89-19,2.57a4.16,4.16,0,0,1-2.2-2.95c-.24-1.6.51-3.38,2.16-5.18.1-.1.08-.16.08-.17a1.08,1.08,0,0,0-.48-.4,2.35,2.35,0,0,0-2.25.25c-1.82,2-2.68,4-2.42,5.77a4.91,4.91,0,0,0,2.68,3.48,14.54,14.54,0,0,0,6.29,1.62c1.35.07,2.31.74,2.36,1.62a1.38,1.38,0,0,1-.42,1.05A3,3,0,0,1,675,285.38Zm14.58-25.27c-5.8,0-12.23,1.92-18.68,5.64-5.52,3.19-8.81,7.24-8.81,10.85,0,2.22,1.28,4.14,3.69,5.53a19.83,19.83,0,0,0,9.13,2.2,2,2,0,0,0,1.43-.43.32.32,0,0,0,.12-.22c0-.27-.54-.62-1.37-.66a15.61,15.61,0,0,1-6.75-1.76,6,6,0,0,1-3.19-4.23c-.32-2.07.63-4.43,2.68-6.64a3.32,3.32,0,0,1,3.42-.51,1.69,1.69,0,0,1,1.11,1.14,1.25,1.25,0,0,1-.34,1.12c-1.4,1.52-2.08,3.05-1.89,4.3a3.11,3.11,0,0,0,1.69,2.2c3.73,2.16,11.8,1,18-2.57,4.26-2.46,6.6-4.9,6.6-6.89,0-1.1-.72-2.08-2.14-2.89-4-2.31-10.08-1.64-16.68,1.85a3.57,3.57,0,0,1-3.17-.05,1.45,1.45,0,0,1-.83-1.26,1.55,1.55,0,0,1,.92-1.28c7.2-3.82,14.29-5,19.94-3.3a2.6,2.6,0,0,0,2.41-.39h0c.13-.15.11-.24.1-.28a1.23,1.23,0,0,0-.83-.57,23.45,23.45,0,0,0-6.56-.9Z"/><path class="cls-4" d="M677.52,278.43a6.3,6.3,0,0,1-3.11-.66,2.35,2.35,0,0,1-1.29-2.1c0-1.88,2-4.17,5.42-6.12,5.5-3.18,10.3-4.05,13.18-2.39a2.67,2.67,0,0,1,1.54,2.24c0,1.53-1.39,3.25-4.25,5.12a3.5,3.5,0,0,1-3.34.06,1.53,1.53,0,0,1-.83-1.22,1.43,1.43,0,0,1,.72-1.2c2.3-1.49,2.3-2.1,2.3-2.1-.64-.37-2.58-.06-6.08,2-2.43,1.4-3.43,2.6-3.43,2.93a.52.52,0,0,1-.51.53h0a.52.52,0,0,1-.53-.51h0c0-1.45,3-3.32,4-3.85,2.4-1.39,5.58-2.87,7.07-2a1.09,1.09,0,0,1,.58.91c0,.51-.26,1.38-2.77,3-.15.1-.25.21-.24.3s.08.2.3.33a2.52,2.52,0,0,0,2.24,0c3.32-2.17,3.78-3.57,3.77-4.21a1.71,1.71,0,0,0-1-1.36c-1.21-.69-4.8-1.85-12.14,2.39-3,1.71-4.89,3.76-4.89,5.21a1.32,1.32,0,0,0,.76,1.19c1.28.73,3.79.69,6.72-.11a.51.51,0,0,1,.64.36.53.53,0,0,1-.37.65A16.77,16.77,0,0,1,677.52,278.43Z"/><path class="cls-4" d="M668.82,260.35h-.17l-13.85-8a.34.34,0,0,1-.19-.44.33.33,0,0,1,.44-.19l.09.05,13.84,8a.33.33,0,0,1,.13.45.34.34,0,0,1-.29.17Z"/><path class="cls-12" d="M255.38,296.47l-68.54,39.59c-3.06,1.76-7.69,2-10.34.42L26.26,249.75c-2.65-1.53-2.32-4.21.74-6l68.55-39.59c3.06-1.76,7.69-2,10.34-.42l150.24,86.73C258.78,292,258.45,294.7,255.38,296.47Z"/><path class="cls-58" d="M257.94,267.36l-14.12-2.46L105.94,185.28c-2.65-1.53-7.28-1.34-10.34.43l-63.89,36.9-7.19-1.25v7.3h0a3,3,0,0,0,1.78,2.61L176.5,318c2.65,1.53,7.28,1.34,10.34-.43L255.38,278c1.7-1,2.56-2.24,2.53-3.43h0Z"/><path class="cls-59" d="M255.38,270.74l-68.54,39.58c-3.06,1.77-7.69,2-10.34.43L26.26,224c-2.65-1.53-2.32-4.2.74-6l68.55-39.59c3.06-1.77,7.69-2,10.34-.43l150.24,86.74C258.78,266.29,258.45,269,255.38,270.74Z"/><path class="cls-4" d="M255.38,269.8l-68.54,39.59c-3.06,1.77-7.69,2-10.34.43L26.26,223.08A3.31,3.31,0,0,1,24.52,221a2.92,2.92,0,0,0,1.74,3L176.5,310.74c2.65,1.53,7.28,1.34,10.34-.43l68.54-39.58c1.91-1.1,2.76-2.55,2.49-3.86A4.66,4.66,0,0,1,255.38,269.8Z"/><polygon class="cls-15" points="255.49 264.39 175.86 310.38 26.9 224.38 106.53 178.39 255.49 264.39"/><path class="cls-17" d="M71.55,196.4l-10.61,6.1a1.7,1.7,0,0,1-1.55.07l-.11-.06c-.4-.23-.35-.64.11-.9L70,195.5a1.76,1.76,0,0,1,1.55-.06l.11.06C72.06,195.73,72,196.13,71.55,196.4Z"/><g class="cls-60"><rect class="cls-4" x="73.17" y="209.02" width="134.66" height="72.24"/><ellipse class="cls-4" cx="140.48" cy="244.86" rx="16" ry="54.11" transform="translate(-140.97 266.74) rotate(-64.6)"/><ellipse class="cls-4" cx="140.48" cy="244.86" rx="15.93" ry="53.89" transform="translate(-140.97 266.74) rotate(-64.6)"/><ellipse class="cls-4" cx="140.48" cy="244.86" rx="15.87" ry="53.68" transform="translate(-140.97 266.74) rotate(-64.6)"/><ellipse class="cls-4" cx="140.48" cy="244.86" rx="15.81" ry="53.47" transform="translate(-140.97 266.74) rotate(-64.6)"/><ellipse class="cls-61" cx="140.48" cy="244.86" rx="15.74" ry="53.26" transform="translate(-140.97 266.74) rotate(-64.6)"/><ellipse class="cls-62" cx="140.48" cy="244.86" rx="15.68" ry="53.05" transform="translate(-140.97 266.74) rotate(-64.6)"/><ellipse class="cls-62" cx="140.48" cy="244.86" rx="15.62" ry="52.83" transform="translate(-140.97 266.74) rotate(-64.6)"/><ellipse class="cls-63" cx="140.48" cy="244.86" rx="15.56" ry="52.62" transform="translate(-140.97 266.74) rotate(-64.6)"/><ellipse class="cls-64" cx="140.48" cy="244.86" rx="15.49" ry="52.41" transform="translate(-140.97 266.74) rotate(-64.6)"/><ellipse class="cls-65" cx="140.48" cy="244.86" rx="15.43" ry="52.2" transform="translate(-140.97 266.74) rotate(-64.6)"/><ellipse class="cls-65" cx="140.48" cy="244.86" rx="15.37" ry="51.98" transform="translate(-140.97 266.74) rotate(-64.6)"/><ellipse class="cls-66" cx="140.48" cy="244.86" rx="15.31" ry="51.77" transform="translate(-140.97 266.74) rotate(-64.6)"/><path class="cls-66" d="M187.06,267c-3.61,7.6-27.39,3.86-53.12-8.35s-43.65-28.28-40-35.88,27.4-3.87,53.12,8.34S190.67,259.37,187.06,267Z"/><ellipse class="cls-67" cx="140.48" cy="244.86" rx="15.18" ry="51.35" transform="translate(-140.97 266.74) rotate(-64.6)"/><ellipse class="cls-68" cx="140.48" cy="244.86" rx="15.12" ry="51.14" transform="translate(-140.97 266.74) rotate(-64.6)"/><ellipse class="cls-68" cx="140.48" cy="244.86" rx="15.05" ry="50.92" transform="translate(-140.97 266.74) rotate(-64.6)"/><ellipse class="cls-69" cx="140.48" cy="244.86" rx="14.99" ry="50.71" transform="translate(-140.97 266.74) rotate(-64.6)"/><ellipse class="cls-69" cx="140.48" cy="244.86" rx="14.93" ry="50.5" transform="translate(-140.97 266.74) rotate(-64.6)"/><ellipse class="cls-70" cx="140.48" cy="244.86" rx="14.87" ry="50.29" transform="translate(-140.97 266.74) rotate(-64.6)"/><ellipse class="cls-71" cx="140.48" cy="244.86" rx="14.8" ry="50.07" transform="translate(-140.97 266.74) rotate(-64.6)"/><ellipse class="cls-72" cx="140.48" cy="244.86" rx="14.74" ry="49.86" transform="translate(-140.97 266.74) rotate(-64.6)"/><ellipse class="cls-72" cx="140.48" cy="244.86" rx="14.68" ry="49.65" transform="translate(-140.97 266.74) rotate(-64.6)"/><ellipse class="cls-73" cx="140.48" cy="244.86" rx="14.62" ry="49.44" transform="translate(-140.97 266.74) rotate(-64.6)"/><ellipse class="cls-73" cx="140.48" cy="244.86" rx="14.55" ry="49.23" transform="translate(-140.97 266.74) rotate(-64.6)"/><ellipse class="cls-74" cx="140.48" cy="244.86" rx="14.49" ry="49.01" transform="translate(-140.97 266.74) rotate(-64.6)"/><ellipse class="cls-75" cx="140.48" cy="244.86" rx="14.43" ry="48.8" transform="translate(-140.97 266.74) rotate(-64.6)"/><ellipse class="cls-76" cx="140.48" cy="244.86" rx="14.36" ry="48.59" transform="translate(-140.97 266.74) rotate(-64.6)"/><ellipse class="cls-77" cx="140.48" cy="244.86" rx="14.3" ry="48.38" transform="translate(-140.97 266.74) rotate(-64.6)"/><ellipse class="cls-78" cx="140.48" cy="244.86" rx="14.24" ry="48.16" transform="translate(-140.97 266.74) rotate(-64.6)"/><ellipse class="cls-79" cx="140.48" cy="244.86" rx="14.18" ry="47.95" transform="translate(-140.97 266.74) rotate(-64.6)"/><ellipse class="cls-80" cx="140.48" cy="244.86" rx="14.11" ry="47.74" transform="translate(-140.97 266.74) rotate(-64.6)"/><ellipse class="cls-81" cx="140.48" cy="244.86" rx="14.05" ry="47.53" transform="translate(-140.97 266.74) rotate(-64.6)"/><ellipse class="cls-82" cx="140.48" cy="244.86" rx="13.99" ry="47.32" transform="translate(-140.97 266.74) rotate(-64.6)"/><ellipse class="cls-83" cx="140.48" cy="244.86" rx="13.93" ry="47.1" transform="translate(-140.97 266.74) rotate(-64.6)"/><ellipse class="cls-84" cx="140.48" cy="244.86" rx="13.86" ry="46.89" transform="translate(-140.97 266.74) rotate(-64.6)"/><ellipse class="cls-85" cx="140.48" cy="244.86" rx="13.8" ry="46.68" transform="translate(-140.97 266.74) rotate(-64.6)"/><ellipse class="cls-86" cx="140.48" cy="244.86" rx="13.74" ry="46.47" transform="translate(-140.97 266.74) rotate(-64.6)"/><ellipse class="cls-87" cx="140.48" cy="244.86" rx="13.67" ry="46.26" transform="translate(-140.97 266.74) rotate(-64.6)"/><ellipse class="cls-88" cx="140.48" cy="244.86" rx="13.61" ry="46.04" transform="translate(-140.97 266.74) rotate(-64.6)"/><ellipse class="cls-89" cx="140.48" cy="244.86" rx="13.55" ry="45.83" transform="translate(-140.97 266.74) rotate(-64.6)"/><path class="cls-90" d="M181.69,264.43c-3.19,6.73-24.23,3.42-47-7.39S96.08,232,99.27,225.3s24.24-3.43,47,7.38S184.88,257.7,181.69,264.43Z"/><ellipse class="cls-91" cx="140.48" cy="244.86" rx="13.42" ry="45.41" transform="translate(-140.97 266.74) rotate(-64.6)"/><ellipse class="cls-91" cx="140.48" cy="244.86" rx="13.36" ry="45.19" transform="translate(-140.97 266.74) rotate(-64.6)"/><ellipse class="cls-92" cx="140.48" cy="244.86" rx="13.3" ry="44.98" transform="translate(-140.97 266.74) rotate(-64.6)"/><ellipse class="cls-93" cx="140.48" cy="244.86" rx="13.24" ry="44.77" transform="translate(-140.97 266.74) rotate(-64.6)"/><ellipse class="cls-94" cx="140.48" cy="244.86" rx="13.17" ry="44.56" transform="translate(-140.97 266.74) rotate(-64.6)"/><ellipse class="cls-95" cx="140.48" cy="244.86" rx="13.11" ry="44.35" transform="matrix(0.43, -0.9, 0.9, 0.43, -140.97, 266.74)"/><ellipse class="cls-96" cx="140.48" cy="244.86" rx="13.05" ry="44.13" transform="translate(-140.97 266.74) rotate(-64.6)"/><ellipse class="cls-97" cx="140.48" cy="244.86" rx="12.98" ry="43.92" transform="translate(-140.97 266.74) rotate(-64.6)"/><path class="cls-98" d="M179.94,263.61c-3.07,6.45-23.22,3.28-45-7.08s-37-24-33.94-30.42,23.22-3.27,45,7.08S183,257.16,179.94,263.61Z"/><ellipse class="cls-99" cx="140.48" cy="244.86" rx="12.86" ry="43.5" transform="translate(-140.97 266.74) rotate(-64.6)"/><ellipse class="cls-100" cx="140.48" cy="244.86" rx="12.8" ry="43.28" transform="translate(-140.97 266.74) rotate(-64.6)"/><ellipse class="cls-100" cx="140.48" cy="244.86" rx="12.73" ry="43.07" transform="translate(-140.97 266.74) rotate(-64.6)"/><ellipse class="cls-101" cx="140.48" cy="244.86" rx="12.67" ry="42.86" transform="translate(-140.97 266.74) rotate(-64.6)"/><ellipse class="cls-102" cx="140.48" cy="244.86" rx="12.61" ry="42.65" transform="translate(-140.97 266.74) rotate(-64.6)"/><ellipse class="cls-103" cx="140.48" cy="244.86" rx="12.55" ry="42.44" transform="translate(-140.97 266.74) rotate(-64.6)"/><ellipse class="cls-103" cx="140.48" cy="244.86" rx="12.48" ry="42.22" transform="translate(-140.97 266.74) rotate(-64.6)"/><ellipse class="cls-104" cx="140.48" cy="244.86" rx="12.42" ry="42.01" transform="translate(-140.97 266.74) rotate(-64.6)"/><ellipse class="cls-105" cx="140.48" cy="244.86" rx="12.36" ry="41.8" transform="translate(-140.97 266.74) rotate(-64.6)"/><ellipse class="cls-106" cx="140.48" cy="244.86" rx="12.29" ry="41.59" transform="translate(-140.97 266.74) rotate(-64.6)"/><path class="cls-107" d="M177.86,262.61c-2.9,6.1-22,3.1-42.63-6.7s-35-22.69-32.13-28.79,22-3.11,42.63,6.69S180.75,256.51,177.86,262.61Z"/><ellipse class="cls-108" cx="140.48" cy="244.86" rx="12.17" ry="41.16" transform="translate(-140.97 266.74) rotate(-64.6)"/><path class="cls-109" d="M177.47,262.43c-2.86,6-21.75,3.07-42.18-6.63s-34.67-22.46-31.8-28.5,21.75-3.07,42.18,6.63S180.34,256.39,177.47,262.43Z"/><ellipse class="cls-110" cx="140.48" cy="244.86" rx="12.04" ry="40.74" transform="translate(-140.97 266.74) rotate(-64.6)"/><ellipse class="cls-111" cx="140.48" cy="244.86" rx="11.98" ry="40.53" transform="translate(-140.97 266.74) rotate(-64.6)"/><ellipse class="cls-112" cx="140.48" cy="244.86" rx="11.92" ry="40.31" transform="translate(-140.97 266.74) rotate(-64.6)"/><path class="cls-113" d="M176.71,262.06c-2.81,5.92-21.31,3-41.31-6.49s-33.95-22-31.15-27.91,21.31-3,41.32,6.49S179.52,256.15,176.71,262.06Z"/><ellipse class="cls-114" cx="140.48" cy="244.86" rx="11.79" ry="39.89" transform="translate(-140.97 266.74) rotate(-64.6)"/><path class="cls-115" d="M176.32,261.88c-2.78,5.85-21.08,3-40.87-6.42s-33.59-21.76-30.81-27.62,21.08-3,40.87,6.43S179.1,256,176.32,261.88Z"/><ellipse class="cls-116" cx="140.48" cy="244.86" rx="11.67" ry="39.47" transform="translate(-140.97 266.74) rotate(-64.6)"/><ellipse class="cls-117" cx="140.48" cy="244.86" rx="11.6" ry="39.25" transform="translate(-140.97 266.74) rotate(-64.6)"/><ellipse class="cls-118" cx="140.48" cy="244.86" rx="11.54" ry="39.04" transform="translate(-140.97 266.74) rotate(-64.6)"/><ellipse class="cls-119" cx="140.48" cy="244.86" rx="11.48" ry="38.83" transform="translate(-140.97 266.74) rotate(-64.6)"/><path class="cls-120" d="M175.36,261.43c-2.7,5.69-20.51,2.89-39.78-6.26s-32.64-21.17-30-26.87,20.51-2.9,39.78,6.25S178.07,255.73,175.36,261.43Z"/><ellipse class="cls-121" cx="140.48" cy="244.86" rx="11.35" ry="38.4" transform="matrix(0.43, -0.9, 0.9, 0.43, -140.97, 266.74)"/><ellipse class="cls-122" cx="140.48" cy="244.86" rx="11.29" ry="38.19" transform="translate(-140.97 266.74) rotate(-64.6)"/><path class="cls-123" d="M174.79,261.15c-2.66,5.6-20.18,2.85-39.13-6.15s-32.15-20.83-29.49-26.43,20.18-2.85,39.13,6.15S177.45,255.55,174.79,261.15Z"/><ellipse class="cls-124" cx="140.48" cy="244.86" rx="11.17" ry="37.77" transform="translate(-140.97 266.74) rotate(-64.6)"/><path class="cls-125" d="M174.41,261c-2.63,5.54-19.95,2.82-38.69-6.08s-31.8-20.6-29.17-26.14,20-2.81,38.69,6.08S177,255.43,174.41,261Z"/><path class="cls-126" d="M174.21,260.88c-2.61,5.51-19.83,2.8-38.46-6s-31.62-20.48-29-26,19.83-2.8,38.47,6S176.83,255.37,174.21,260.88Z"/><ellipse class="cls-127" cx="140.48" cy="244.86" rx="10.98" ry="37.13" transform="translate(-140.97 266.74) rotate(-64.6)"/><ellipse class="cls-128" cx="140.48" cy="244.86" rx="10.91" ry="36.92" transform="translate(-140.97 266.74) rotate(-64.6)"/><path class="cls-129" d="M173.64,260.61c-2.57,5.41-19.5,2.75-37.81-6s-31.08-20.13-28.51-25.54,19.5-2.76,37.82,5.94S176.21,255.19,173.64,260.61Z"/><ellipse class="cls-130" cx="140.48" cy="244.86" rx="10.79" ry="36.49" transform="translate(-140.97 266.74) rotate(-64.6)"/><ellipse class="cls-131" cx="140.48" cy="244.86" rx="10.73" ry="36.28" transform="translate(-140.97 266.74) rotate(-64.6)"/><ellipse class="cls-132" cx="140.48" cy="244.86" rx="10.66" ry="36.07" transform="translate(-140.97 266.74) rotate(-64.6)"/><ellipse class="cls-133" cx="140.48" cy="244.86" rx="10.6" ry="35.86" transform="translate(-140.97 266.74) rotate(-64.6)"/><path class="cls-134" d="M172.68,260.15c-2.49,5.26-18.94,2.68-36.72-5.77s-30.18-19.55-27.68-24.81,18.94-2.67,36.72,5.77S175.18,254.89,172.68,260.15Z"/><ellipse class="cls-135" cx="140.48" cy="244.86" rx="10.48" ry="35.43" transform="translate(-140.97 266.74) rotate(-64.6)"/><ellipse class="cls-136" cx="140.48" cy="244.86" rx="10.41" ry="35.22" transform="translate(-140.97 266.74) rotate(-64.6)"/><ellipse class="cls-137" cx="140.48" cy="244.86" rx="10.35" ry="35.01" transform="translate(-140.97 266.74) rotate(-64.6)"/><path class="cls-138" d="M171.94,259.79c-2.43,5.13-18.48,2.61-35.84-5.64s-29.46-19.08-27-24.21,18.48-2.61,35.84,5.63S174.35,254.65,171.94,259.79Z"/><ellipse class="cls-139" cx="140.48" cy="244.86" rx="10.22" ry="34.59" transform="translate(-140.97 266.74) rotate(-64.6)"/><path class="cls-140" d="M171.53,259.6c-2.41,5.07-18.26,2.58-35.41-5.56s-29.1-18.85-26.69-23.92,18.26-2.58,35.41,5.56S173.94,254.54,171.53,259.6Z"/><ellipse class="cls-141" cx="140.48" cy="244.86" rx="10.1" ry="34.16" transform="translate(-140.97 266.74) rotate(-64.6)"/><path class="cls-142" d="M171.15,259.42c-2.38,5-18,2.55-35-5.49s-28.74-18.62-26.37-23.63,18-2.55,35,5.5S173.53,254.42,171.15,259.42Z"/><ellipse class="cls-143" cx="140.48" cy="244.86" rx="9.97" ry="33.74" transform="translate(-140.97 266.74) rotate(-64.6)"/><ellipse class="cls-144" cx="140.48" cy="244.86" rx="9.91" ry="33.52" transform="translate(-140.97 266.74) rotate(-64.6)"/><ellipse class="cls-145" cx="140.48" cy="244.86" rx="9.85" ry="33.31" transform="translate(-140.97 266.74) rotate(-64.6)"/><ellipse class="cls-146" cx="140.48" cy="244.86" rx="9.79" ry="33.1" transform="translate(-140.97 266.74) rotate(-64.6)"/><ellipse class="cls-147" cx="140.48" cy="244.86" rx="9.72" ry="32.89" transform="translate(-140.97 266.74) rotate(-64.6)"/><path class="cls-148" d="M170,258.88c-2.29,4.82-17.36,2.45-33.66-5.29s-27.67-17.92-25.4-22.74,17.36-2.45,33.66,5.29S172.29,254.06,170,258.88Z"/><ellipse class="cls-149" cx="140.48" cy="244.86" rx="9.6" ry="32.46" transform="translate(-140.97 266.74) rotate(-64.6)"/><ellipse class="cls-150" cx="140.48" cy="244.86" rx="9.53" ry="32.25" transform="matrix(0.43, -0.9, 0.9, 0.43, -140.97, 266.74)"/><path class="cls-151" d="M169.42,258.6c-2.24,4.73-17,2.41-33-5.18s-27.13-17.57-24.88-22.3,17-2.4,33,5.19S171.67,253.88,169.42,258.6Z"/><ellipse class="cls-152" cx="140.48" cy="244.86" rx="9.41" ry="31.83" transform="translate(-140.97 266.74) rotate(-64.6)"/><path class="cls-153" d="M169,258.42c-2.21,4.66-16.8,2.37-32.57-5.12s-26.76-17.3-24.53-22,16.8-2.37,32.57,5.12S171.25,253.76,169,258.42Z"/><ellipse class="cls-154" cx="140.48" cy="244.86" rx="9.28" ry="31.4" transform="translate(-140.97 266.74) rotate(-64.6)"/><ellipse class="cls-155" cx="140.48" cy="244.86" rx="9.22" ry="31.19" transform="translate(-140.97 266.74) rotate(-64.6)"/><ellipse class="cls-156" cx="140.48" cy="244.86" rx="9.16" ry="30.98" transform="translate(-140.97 266.74) rotate(-64.6)"/><path class="cls-157" d="M168.27,258.06c-2.15,4.54-16.34,2.31-31.69-5s-26-16.88-23.89-21.41,16.34-2.31,31.69,5S170.43,253.52,168.27,258.06Z"/><ellipse class="cls-158" cx="140.48" cy="244.86" rx="9.03" ry="30.55" transform="translate(-140.97 266.74) rotate(-64.6)"/><ellipse class="cls-159" cx="140.48" cy="244.86" rx="8.97" ry="30.34" transform="translate(-140.97 266.74) rotate(-64.6)"/><ellipse class="cls-160" cx="140.48" cy="244.86" rx="8.91" ry="30.13" transform="translate(-140.97 266.74) rotate(-64.6)"/><ellipse class="cls-161" cx="140.48" cy="244.86" rx="8.84" ry="29.92" transform="translate(-140.97 266.74) rotate(-64.6)"/><path class="cls-162" d="M167.31,257.6c-2.08,4.38-15.78,2.23-30.6-4.81s-25.14-16.29-23.06-20.67,15.78-2.23,30.6,4.81S169.4,253.22,167.31,257.6Z"/><path class="cls-163" d="M167.12,257.51c-2.06,4.35-15.66,2.21-30.38-4.77s-25-16.18-22.9-20.53S129.51,230,144.22,237,169.19,253.16,167.12,257.51Z"/><ellipse class="cls-164" cx="140.48" cy="244.86" rx="8.66" ry="29.28" transform="translate(-140.97 266.74) rotate(-64.6)"/><ellipse class="cls-165" cx="140.48" cy="244.86" rx="8.59" ry="29.07" transform="translate(-140.97 266.74) rotate(-64.6)"/><ellipse class="cls-166" cx="140.48" cy="244.86" rx="8.53" ry="28.86" transform="translate(-140.97 266.74) rotate(-64.6)"/><ellipse class="cls-167" cx="140.48" cy="244.86" rx="8.47" ry="28.64" transform="translate(-140.97 266.74) rotate(-64.6)"/><path class="cls-168" d="M166.16,257.06c-2,4.19-15.1,2.13-29.28-4.61s-24.07-15.59-22.08-19.78,15.1-2.14,29.29,4.6S168.16,252.86,166.16,257.06Z"/><ellipse class="cls-169" cx="140.48" cy="244.86" rx="8.34" ry="28.22" transform="translate(-140.97 266.74) rotate(-64.6)"/><path class="cls-170" d="M165.78,256.87c-2,4.13-14.84,2.13-28.84-4.53S113.22,237,115.18,232.85s14.88-2.1,28.85,4.53S167.74,252.74,165.78,256.87Z"/><ellipse class="cls-171" cx="140.48" cy="244.86" rx="8.22" ry="27.8" transform="translate(-140.97 266.74) rotate(-64.6)"/><ellipse class="cls-172" cx="140.48" cy="244.86" rx="8.15" ry="27.58" transform="translate(-140.97 266.74) rotate(-64.6)"/><path class="cls-173" d="M165.21,256.6c-1.92,4-14.54,2.06-28.2-4.43s-23.17-15-21.25-19,14.54-2,28.19,4.43S167.12,252.56,165.21,256.6Z"/><path class="cls-174" d="M165,256.51c-1.9,4-14.42,2-28-4.4s-23-14.89-21.09-18.9,14.42-2,28,4.4S166.94,252.51,165,256.51Z"/><ellipse class="cls-175" cx="140.48" cy="244.86" rx="7.97" ry="26.95" transform="translate(-140.97 266.74) rotate(-64.6)"/><path class="cls-176" d="M164.63,256.33c-1.87,3.94-14.2,2-27.54-4.33s-22.63-14.66-20.76-18.61,14.2-2,27.54,4.33S166.5,252.39,164.63,256.33Z"/><ellipse class="cls-177" cx="140.48" cy="244.86" rx="7.84" ry="26.52" transform="translate(-140.97 266.74) rotate(-64.6)"/><path class="cls-178" d="M164.25,256.15c-1.84,3.88-14,2-27.11-4.26s-22.27-14.43-20.43-18.31,14-2,27.11,4.26S166.09,252.27,164.25,256.15Z"/><path class="cls-179" d="M164.06,256.06c-1.83,3.84-13.87,1.95-26.89-4.23s-22.09-14.31-20.23-18.16,13.86-2,26.88,4.22S165.88,252.21,164.06,256.06Z"/><path class="cls-180" d="M163.86,256c-1.81,3.82-13.75,2-26.66-4.19s-21.92-14.19-20.1-18,13.75-1.94,26.66,4.19S165.68,252.15,163.86,256Z"/><ellipse class="cls-181" cx="140.48" cy="244.86" rx="7.59" ry="25.67" transform="translate(-140.97 266.74) rotate(-64.6)"/><path class="cls-182" d="M163.48,255.78c-1.78,3.76-13.52,1.91-26.23-4.12s-21.55-14-19.77-17.72S131,232,143.71,238.06,165.26,252,163.48,255.78Z"/><ellipse class="cls-183" cx="140.48" cy="244.86" rx="7.46" ry="25.25" transform="translate(-140.97 266.74) rotate(-64.6)"/><path class="cls-184" d="M163.1,255.6c-1.76,3.69-13.3,1.88-25.79-4s-21.2-13.73-19.45-17.43,13.3-1.88,25.8,4.06S164.85,251.91,163.1,255.6Z"/><path class="cls-185" d="M162.94,255.51c-1.74,3.66-13.19,1.86-25.58-4s-21-13.61-19.27-17.28,13.18-1.86,25.57,4S164.64,251.85,162.94,255.51Z"/><ellipse class="cls-186" cx="140.48" cy="244.86" rx="7.28" ry="24.61" transform="translate(-140.97 266.74) rotate(-64.6)"/><path class="cls-187" d="M162.52,255.33c-1.71,3.6-13,1.83-25.13-4s-20.66-13.39-18.95-17,13-1.83,25.13,3.95S164.23,251.73,162.52,255.33Z"/><ellipse class="cls-188" cx="140.48" cy="244.86" rx="7.15" ry="24.19" transform="translate(-140.97 266.74) rotate(-64.6)"/><ellipse class="cls-189" cx="140.48" cy="244.86" rx="7.09" ry="23.98" transform="translate(-140.97 266.74) rotate(-64.6)"/><ellipse class="cls-190" cx="140.48" cy="244.86" rx="7.03" ry="23.76" transform="translate(-140.97 266.74) rotate(-64.6)"/><ellipse class="cls-191" cx="140.48" cy="244.86" rx="6.96" ry="23.55" transform="translate(-140.97 266.74) rotate(-64.6)"/><path class="cls-192" d="M161.56,254.87c-1.63,3.44-12.39,1.75-24-3.78s-19.76-12.8-18.12-16.24,12.4-1.75,24,3.78S163.2,251.43,161.56,254.87Z"/><ellipse class="cls-193" cx="140.48" cy="244.86" rx="6.84" ry="23.13" transform="translate(-140.97 266.74) rotate(-64.6)"/><ellipse class="cls-194" cx="140.48" cy="244.86" rx="6.77" ry="22.92" transform="translate(-140.97 266.74) rotate(-64.6)"/><path class="cls-195" d="M161,254.6c-1.59,3.35-12.06,1.7-23.39-3.68s-19.22-12.45-17.63-15.8,12.06-1.7,23.39,3.68S162.58,251.25,161,254.6Z"/><path class="cls-196" d="M160.8,254.51c-1.58,3.32-12,1.69-23.17-3.64s-19-12.34-17.47-15.65,12-1.69,23.17,3.64S162.37,251.19,160.8,254.51Z"/><ellipse class="cls-197" cx="140.48" cy="244.86" rx="6.59" ry="22.28" transform="translate(-140.97 266.74) rotate(-64.6)"/><ellipse class="cls-198" cx="140.48" cy="244.86" rx="6.52" ry="22.07" transform="translate(-140.97 266.74) rotate(-64.6)"/><path class="cls-199" d="M160.22,254.24c-1.53,3.22-11.61,1.64-22.51-3.54s-18.5-12-17-15.21,11.61-1.64,22.51,3.54S161.75,251,160.22,254.24Z"/><path class="cls-200" d="M160,254.14c-1.51,3.2-11.5,1.63-22.29-3.5s-18.33-11.87-16.8-15.06,11.5-1.62,22.29,3.5S161.55,251,160,254.14Z"/><ellipse class="cls-201" cx="140.48" cy="244.86" rx="6.34" ry="21.43" transform="translate(-140.97 266.74) rotate(-64.6)"/><path class="cls-202" d="M159.65,254c-1.49,3.13-11.27,1.59-21.86-3.43s-18-11.64-16.48-14.77,11.28-1.59,21.86,3.44S161.13,250.83,159.65,254Z"/><ellipse class="cls-203" cx="140.48" cy="244.86" rx="6.21" ry="21.01" transform="translate(-140.97 266.74) rotate(-64.6)"/><path class="cls-204" d="M159.26,253.78c-1.45,3.07-11,1.56-21.42-3.37s-17.6-11.4-16.14-14.47,11-1.56,21.42,3.37S160.72,250.71,159.26,253.78Z"/><path class="cls-205" d="M159.07,253.69c-1.44,3-10.93,1.54-21.2-3.33S120.45,239.07,121.94,236s10.93-1.54,21.2,3.34S160.51,250.65,159.07,253.69Z"/><ellipse class="cls-206" cx="140.48" cy="244.86" rx="6.02" ry="20.37" transform="translate(-140.97 266.74) rotate(-64.6)"/><path class="cls-207" d="M158.69,253.51c-1.41,3-10.71,1.51-20.77-3.27s-17.06-11.05-15.65-14S133,234.72,143,239.5,160.1,250.53,158.69,253.51Z"/><path class="cls-208" d="M158.5,253.42c-1.4,2.94-10.6,1.49-20.55-3.23s-16.88-10.94-15.49-13.88,10.6-1.5,20.55,3.23S159.94,250.47,158.5,253.42Z"/><path class="cls-209" d="M158.31,253.33c-1.39,2.91-10.49,1.48-20.33-3.2s-16.71-10.82-15.32-13.73,10.48-1.48,20.32,3.19S159.69,250.42,158.31,253.33Z"/><path class="cls-210" d="M158.11,253.23c-1.36,2.88-10.37,1.47-20.1-3.16s-16.53-10.7-15.16-13.58,10.37-1.49,20.09,3.16S159.48,250.36,158.11,253.23Z"/><ellipse class="cls-211" cx="140.48" cy="244.86" rx="5.71" ry="19.31" transform="translate(-140.97 266.74) rotate(-64.6)"/><path class="cls-212" d="M157.73,253.05c-1.34,2.82-10.14,1.44-19.67-3.09s-16.12-10.47-14.83-13.29,10.14-1.43,19.67,3.09S159.07,250.24,157.73,253.05Z"/><path class="cls-213" d="M157.54,253c-1.32,2.79-10,1.42-19.45-3.06s-16-10.35-14.67-13.14,10-1.41,19.46,3.06S158.86,250.18,157.54,253Z"/><ellipse class="cls-214" cx="140.48" cy="244.86" rx="5.52" ry="18.67" transform="translate(-140.97 266.74) rotate(-64.6)"/><path class="cls-215" d="M157.16,252.78c-1.3,2.72-9.81,1.38-19-3s-15.63-10.12-14.33-12.85,9.8-1.38,19,3S158.45,250.06,157.16,252.78Z"/><path class="cls-216" d="M156.94,252.69c-1.27,2.69-9.69,1.37-18.79-3S122.7,239.69,124,237s9.69-1.37,18.79,3S158.24,250,156.94,252.69Z"/><path class="cls-217" d="M156.77,252.6c-1.26,2.66-9.58,1.35-18.58-2.92s-15.26-9.89-14-12.55,9.58-1.36,18.58,2.92S158,249.94,156.77,252.6Z"/><path class="cls-218" d="M156.58,252.51c-1.25,2.63-9.47,1.33-18.36-2.89s-15.09-9.77-13.84-12.4,9.47-1.34,18.36,2.88S157.83,249.88,156.58,252.51Z"/><path class="cls-219" d="M156.39,252.42c-1.23,2.59-9.36,1.32-18.14-2.86s-14.91-9.65-13.68-12.25,9.36-1.32,18.14,2.85S157.62,249.82,156.39,252.42Z"/><path class="cls-220" d="M156.2,252.32c-1.22,2.57-9.25,1.31-17.93-2.81S123.55,240,124.76,237.4s9.25-1.31,17.93,2.82S157.42,249.76,156.2,252.32Z"/><path class="cls-221" d="M156,252.23c-1.21,2.54-9.13,1.29-17.71-2.78s-14.55-9.42-13.34-12,9.13-1.29,17.7,2.78S157.21,249.7,156,252.23Z"/><ellipse class="cls-222" cx="140.48" cy="244.86" rx="5.02" ry="16.97" transform="translate(-140.97 266.74) rotate(-64.6)"/><path class="cls-223" d="M155.62,252.05c-1.17,2.47-8.9,1.26-17.26-2.71s-14.2-9.2-13-11.67,8.9-1.26,17.27,2.72S156.8,249.58,155.62,252.05Z"/><path class="cls-224" d="M155.43,252c-1.16,2.44-8.79,1.24-17.05-2.68s-14-9.08-12.85-11.52,8.79-1.24,17,2.68S156.59,249.52,155.43,252Z"/><path class="cls-225" d="M155.24,251.87c-1.14,2.41-8.68,1.23-16.83-2.65s-13.83-9-12.69-11.37,8.68-1.22,16.83,2.65S156.38,249.46,155.24,251.87Z"/><path class="cls-226" d="M155.05,251.78c-1.13,2.38-8.57,1.21-16.61-2.61s-13.66-8.85-12.5-11.17,8.57-1.21,16.62,2.61S156.18,249.4,155.05,251.78Z"/><ellipse class="cls-227" cx="140.48" cy="244.86" rx="4.7" ry="15.91" transform="translate(-140.97 266.74) rotate(-64.6)"/><path class="cls-228" d="M154.66,251.6c-1.1,2.31-8.34,1.17-16.17-2.55s-13.29-8.61-12.19-10.92,8.34-1.18,16.17,2.54S155.76,249.28,154.66,251.6Z"/><path class="cls-229" d="M154.47,251.51c-1.08,2.28-8.23,1.16-15.95-2.51s-13.12-8.5-12-10.78,8.23-1.16,16,2.51S155.56,249.22,154.47,251.51Z"/><path class="cls-230" d="M154.28,251.41c-1.07,2.26-8.11,1.15-15.74-2.47s-12.93-8.38-11.86-10.63,8.12-1.15,15.74,2.47S155.35,249.16,154.28,251.41Z"/><ellipse class="cls-231" cx="140.48" cy="244.86" rx="4.45" ry="15.06" transform="translate(-140.97 266.74) rotate(-64.6)"/><path class="cls-232" d="M153.94,251.23c-1,2.19-7.89,1.12-15.3-2.4s-12.58-8.15-11.54-10.34,7.89-1.11,15.3,2.41S154.94,249,153.94,251.23Z"/><path class="cls-233" d="M153.71,251.14c-1,2.16-7.78,1.1-15.09-2.37s-12.39-8-11.36-10.19,7.77-1.1,15.08,2.37S154.73,249,153.71,251.14Z"/><path class="cls-234" d="M153.51,251.05c-1,2.13-7.66,1.08-14.86-2.34s-12.21-7.91-11.2-10,7.66-1.08,14.86,2.34S154.52,248.92,153.51,251.05Z"/><path class="cls-235" d="M153.32,251c-1,2.1-7.55,1.07-14.64-2.3s-12-7.8-11-9.9,7.55-1.06,14.64,2.31S154.32,248.86,153.32,251Z"/><path class="cls-236" d="M153.13,250.87c-1,2.06-7.44,1-14.42-2.27s-11.86-7.68-10.88-9.74,7.44-1.06,14.43,2.26S154.11,248.8,153.13,250.87Z"/><path class="cls-237" d="M152.94,250.78c-1,2-7.33,1-14.21-2.24S127.06,241,128,239s7.33-1,14.21,2.23S153.94,248.74,152.94,250.78Z"/><path class="cls-238" d="M152.75,250.69c-.95,2-7.22,1-14-2.2S127.26,241,128.21,239s7.22-1,14,2.2S153.7,248.68,152.75,250.69Z"/><path class="cls-239" d="M152.56,250.6c-.94,2-7.11,1-13.77-2.17s-11.32-7.33-10.38-9.3,7.1-1,13.77,2.16S153.49,248.62,152.56,250.6Z"/><path class="cls-240" d="M152.36,250.5c-.92,1.94-7,1-13.55-2.13s-11.13-7.21-10.21-9.15,7-1,13.55,2.13S153.29,248.56,152.36,250.5Z"/><path class="cls-241" d="M152.17,250.41c-.9,1.91-6.87,1-13.33-2.09s-11-7.1-10.05-9,6.87-1,13.33,2.1S153.08,248.5,152.17,250.41Z"/><path class="cls-242" d="M151.94,250.32c-.89,1.88-6.76,1-13.11-2.06s-10.78-7-9.89-8.86,6.76-1,13.11,2.06S152.87,248.44,151.94,250.32Z"/><path class="cls-243" d="M151.79,250.23c-.88,1.85-6.65.94-12.9-2s-10.59-6.86-9.72-8.71,6.65-.94,12.9,2S152.67,248.38,151.79,250.23Z"/><path class="cls-244" d="M151.6,250.14c-.86,1.82-6.54.92-12.68-2s-10.42-6.75-9.56-8.57,6.54-.92,12.68,2S152.46,248.33,151.6,250.14Z"/><path class="cls-245" d="M151.41,250.05c-.85,1.78-6.43.91-12.46-2s-10.24-6.63-9.39-8.42,6.42-.9,12.45,2S152.25,248.27,151.41,250.05Z"/><path class="cls-246" d="M151.21,250c-.83,1.75-6.31.89-12.24-1.93s-10.05-6.51-9.22-8.26,6.31-.9,12.24,1.92S152.05,248.21,151.21,250Z"/><path class="cls-247" d="M151,249.87c-.81,1.72-6.2.87-12-1.89s-9.88-6.4-9.06-8.12,6.2-.88,12,1.89S151.84,248.15,151,249.87Z"/><path class="cls-248" d="M150.83,249.78c-.8,1.69-6.09.86-11.8-1.86s-9.7-6.28-8.9-8,6.09-.86,11.8,1.85S151.63,248.09,150.83,249.78Z"/><path class="cls-249" d="M150.64,249.69c-.79,1.65-6,.84-11.59-1.83s-9.52-6.16-8.73-7.82,6-.85,11.59,1.82S151.43,248,150.64,249.69Z"/><path class="cls-250" d="M150.45,249.59c-.78,1.63-5.86.83-11.37-1.78s-9.34-6.05-8.57-7.68,5.87-.83,11.37,1.79S151.22,248,150.45,249.59Z"/><path class="cls-251" d="M150.26,249.5c-.76,1.6-5.75.81-11.15-1.75s-9.16-5.93-8.4-7.53,5.74-.81,11.14,1.75S151,247.91,150.26,249.5Z"/><path class="cls-252" d="M150.06,249.41c-.74,1.57-5.63.8-10.92-1.72s-9-5.81-8.24-7.38,5.63-.79,10.93,1.72S150.81,247.85,150.06,249.41Z"/><path class="cls-253" d="M149.87,249.32c-.73,1.53-5.52.78-10.71-1.68s-8.8-5.7-8.07-7.24,5.52-.78,10.71,1.69S150.6,247.79,149.87,249.32Z"/><path class="cls-254" d="M149.68,249.23c-.71,1.5-5.41.76-10.49-1.65s-8.62-5.58-7.91-7.09,5.41-.76,10.49,1.65S150.39,247.73,149.68,249.23Z"/><path class="cls-255" d="M149.49,249.14c-.7,1.47-5.3.75-10.27-1.62s-8.45-5.46-7.75-6.94,5.3-.74,10.28,1.62S150.19,247.67,149.49,249.14Z"/><ellipse class="cls-256" cx="140.48" cy="244.86" rx="2.89" ry="9.76" transform="translate(-140.97 266.74) rotate(-64.6)"/><path class="cls-257" d="M149.11,249c-.67,1.41-5.08.71-9.84-1.55s-8.08-5.24-7.41-6.64,5.07-.72,9.83,1.54S149.77,247.55,149.11,249Z"/><path class="cls-258" d="M148.94,248.87c-.65,1.37-5,.7-9.61-1.52s-7.91-5.12-7.25-6.49,5-.7,9.61,1.51S149.57,247.49,148.94,248.87Z"/><path class="cls-259" d="M148.72,248.78c-.64,1.34-4.84.68-9.4-1.48s-7.72-5-7.08-6.35,4.85-.69,9.4,1.48S149.36,247.43,148.72,248.78Z"/><path class="cls-260" d="M148.53,248.68c-.62,1.32-4.73.67-9.18-1.44s-7.54-4.89-6.92-6.2,4.73-.67,9.18,1.44S149.16,247.37,148.53,248.68Z"/><path class="cls-261" d="M148.34,248.59c-.61,1.29-4.62.66-9-1.41s-7.37-4.77-6.76-6.05,4.62-.65,9,1.41S148.94,247.31,148.34,248.59Z"/><path class="cls-262" d="M148.15,248.5c-.6,1.25-4.51.64-8.75-1.37s-7.18-4.66-6.59-5.91,4.51-.64,8.75,1.38S148.74,247.25,148.15,248.5Z"/><path class="cls-263" d="M147.94,248.41c-.58,1.22-4.4.62-8.53-1.34s-7-4.54-6.42-5.76,4.39-.62,8.52,1.34S148.54,247.19,147.94,248.41Z"/><path class="cls-264" d="M147.76,248.32c-.56,1.19-4.28.6-8.3-1.3s-6.83-4.43-6.26-5.62,4.28-.6,8.3,1.31S148.33,247.13,147.76,248.32Z"/><path class="cls-265" d="M147.57,248.23c-.55,1.16-4.17.59-8.08-1.27s-6.65-4.31-6.1-5.47,4.17-.58,8.09,1.28S148.12,247.07,147.57,248.23Z"/><path class="cls-266" d="M147.38,248.14c-.53,1.12-4.06.57-7.87-1.24s-6.46-4.19-5.93-5.31,4.06-.58,7.87,1.23S147.94,247,147.38,248.14Z"/><path class="cls-267" d="M147.19,248.05c-.52,1.09-3.95.55-7.65-1.2s-6.29-4.08-5.77-5.17,3.95-.56,7.65,1.2S147.71,247,147.19,248.05Z"/><ellipse class="cls-268" cx="140.48" cy="244.86" rx="2.13" ry="7.21" transform="translate(-140.97 266.74) rotate(-64.6)"/><path class="cls-269" d="M146.81,247.87c-.49,1-3.72.52-7.22-1.14s-5.92-3.84-5.43-4.87,3.72-.53,7.21,1.13S147.3,246.83,146.81,247.87Z"/><path class="cls-270" d="M146.61,247.77c-.47,1-3.6.51-7-1.09s-5.75-3.73-5.27-4.73,3.6-.51,7,1.1S147.09,246.77,146.61,247.77Z"/><path class="cls-271" d="M146.42,247.68c-.46,1-3.49.5-6.77-1.06s-5.57-3.62-5.11-4.62,3.49-.49,6.77,1.07S146.88,246.71,146.42,247.68Z"/><path class="cls-272" d="M146.23,247.59c-.44.94-3.38.48-6.56-1s-5.39-3.49-4.94-4.43,3.38-.48,6.56,1S146.68,246.65,146.23,247.59Z"/><path class="cls-273" d="M146,247.5c-.43.91-3.27.46-6.34-1s-5.21-3.38-4.78-4.29,3.27-.46,6.34,1S146.47,246.59,146,247.5Z"/><path class="cls-274" d="M145.85,247.41c-.42.88-3.16.45-6.12-1s-5-3.26-4.62-4.14,3.16-.44,6.12,1S146.26,246.53,145.85,247.41Z"/><path class="cls-275" d="M145.66,247.32c-.41.84-3,.43-5.91-.93s-4.85-3.14-4.44-4,3-.43,5.9.93S146.06,246.47,145.66,247.32Z"/><path class="cls-276" d="M145.46,247.23c-.38.81-2.93.41-5.68-.89s-4.67-3-4.28-3.84,2.93-.42,5.68.89S145.85,246.41,145.46,247.23Z"/><path class="cls-277" d="M145.27,247.14c-.37.78-2.82.39-5.46-.86s-4.49-2.91-4.12-3.69,2.82-.4,5.46.86S145.64,246.35,145.27,247.14Z"/><path class="cls-278" d="M145.08,247.05c-.36.75-2.7.38-5.24-.83s-4.32-2.79-4-3.54,2.71-.38,5.25.82S145.44,246.29,145.08,247.05Z"/><path class="cls-279" d="M144.94,247c-.34.72-2.59.37-5-.78s-4.13-2.68-3.79-3.4,2.59-.37,5,.79S145.23,246.24,144.94,247Z"/><path class="cls-280" d="M144.7,246.86c-.33.69-2.48.35-4.81-.75s-3.95-2.56-3.63-3.25,2.48-.35,4.81.76S145,246.18,144.7,246.86Z"/><ellipse class="cls-281" cx="140.48" cy="244.86" rx="1.32" ry="4.46" transform="translate(-140.97 266.74) rotate(-64.6)"/><path class="cls-282" d="M144.31,246.68c-.29.63-2.25.32-4.37-.68s-3.59-2.33-3.29-3,2.25-.32,4.37.69S144.61,246.06,144.31,246.68Z"/><path class="cls-283" d="M144.12,246.59c-.28.6-2.14.3-4.15-.65s-3.41-2.21-3.13-2.81,2.14-.3,4.15.66S144.4,246,144.12,246.59Z"/><path class="cls-284" d="M143.94,246.5c-.27.56-2,.29-3.93-.62s-3.24-2.09-3-2.66,2-.28,3.93.62S144.2,245.94,143.94,246.5Z"/><path class="cls-285" d="M143.74,246.41c-.25.53-1.92.27-3.72-.58s-3.05-2-2.8-2.52,1.92-.27,3.72.59S144,245.88,143.74,246.41Z"/><path class="cls-286" d="M143.55,246.32c-.24.5-1.81.25-3.5-.55s-2.87-1.86-2.64-2.36,1.81-.26,3.5.55S143.79,245.82,143.55,246.32Z"/><path class="cls-287" d="M143.36,246.23c-.23.47-1.69.24-3.28-.52s-2.7-1.74-2.47-2.21,1.69-.24,3.27.51S143.58,245.76,143.36,246.23Z"/><path class="cls-288" d="M143.16,246.14c-.2.43-1.57.22-3.06-.48s-2.51-1.63-2.3-2.07,1.58-.23,3.06.48S143.37,245.7,143.16,246.14Z"/><path class="cls-289" d="M142.94,246c-.19.41-1.46.21-2.84-.44s-2.33-1.51-2.14-1.92,1.46-.21,2.84.45S143.17,245.64,142.94,246Z"/><path class="cls-290" d="M142.78,246c-.18.38-1.35.19-2.62-.41s-2.16-1.39-2-1.77,1.35-.19,2.62.41S142.94,245.58,142.78,246Z"/><path class="cls-291" d="M142.59,245.86c-.16.35-1.24.18-2.41-.37s-2-1.29-1.81-1.63,1.24-.17,2.41.38S142.75,245.52,142.59,245.86Z"/><path class="cls-292" d="M142.4,245.77c-.15.31-1.13.16-2.19-.34s-1.79-1.17-1.65-1.48,1.13-.16,2.19.35S142.55,245.46,142.4,245.77Z"/><path class="cls-293" d="M142.21,245.68c-.14.28-1,.14-2-.31s-1.62-1.05-1.48-1.33,1-.14,2,.31S142.34,245.4,142.21,245.68Z"/><path class="cls-294" d="M142,245.59c-.11.25-.9.13-1.74-.27s-1.44-.94-1.32-1.19.9-.12,1.75.28S142.13,245.34,142,245.59Z"/><path class="cls-295" d="M141.82,245.5c-.1.22-.79.11-1.53-.24s-1.25-.82-1.15-1,.79-.11,1.53.25S141.94,245.28,141.82,245.5Z"/><path class="cls-296" d="M141.63,245.41c-.09.19-.68.09-1.31-.21s-1.08-.7-1-.88.68-.1,1.31.2S141.72,245.22,141.63,245.41Z"/><path class="cls-297" d="M141.44,245.32c-.08.15-.56.08-1.09-.17s-.9-.59-.83-.74.57-.08,1.1.17S141.51,245.16,141.44,245.32Z"/><path class="cls-298" d="M141.25,245.23c-.06.12-.45.06-.88-.14s-.72-.47-.66-.59.45-.07.88.14S141.31,245.1,141.25,245.23Z"/><path class="cls-299" d="M141.06,245.13c-.05.1-.34.05-.66-.1s-.54-.35-.49-.44.33-.05.65.1S141.1,245,141.06,245.13Z"/><path class="cls-300" d="M140.86,245c0,.07-.22,0-.43-.06s-.36-.24-.33-.3.22,0,.43.07S140.94,245,140.86,245Z"/><path class="cls-301" d="M140.67,245h-.22c-.11,0-.18-.12-.16-.15s.11,0,.22,0S140.69,244.92,140.67,245Z"/></g><path class="cls-16" d="M247.21,156,139.36,218.3a8.09,8.09,0,0,1-7.31.3l-66-38.12c-1.87-1.08-1.64-3,.53-4.22L174.39,114a8.15,8.15,0,0,1,7.31-.3l66,38.12C249.61,152.89,249.37,154.79,247.21,156Z"/><path class="cls-18" d="M235.94,157.3l-94.35,54.48a7.11,7.11,0,0,1-6.4.26L77.38,178.69c-1.64-.95-1.43-2.6.46-3.7l94.35-54.47a7.13,7.13,0,0,1,6.41-.27l57.76,33.36C238,154.55,237.8,156.21,235.94,157.3Z"/><path class="cls-4" d="M135.22,219.71a6.65,6.65,0,0,1-3.36-.78l-66-38.12a2.55,2.55,0,0,1-1.45-2.16,3.35,3.35,0,0,1,2-2.72l107.85-62.27a8.57,8.57,0,0,1,7.69-.3l66,38.12a2.54,2.54,0,0,1,1.46,2.17,3.41,3.41,0,0,1-2,2.72L139.55,218.63A8.75,8.75,0,0,1,135.22,219.71Zm43.3-106.38a8.1,8.1,0,0,0-3.94,1L66.73,176.59a2.66,2.66,0,0,0-1.6,2.06,1.82,1.82,0,0,0,1.07,1.5l66,38.12a7.73,7.73,0,0,0,6.93-.3L247,155.71a2.68,2.68,0,0,0,1.6-2.06,1.83,1.83,0,0,0-1.08-1.51L181.5,114A6.05,6.05,0,0,0,178.52,113.33Z"/><path class="cls-4" d="M249,137.84l-1.2.95h-.07l-66-38.12a8.15,8.15,0,0,0-7.31.3L66.54,163.19a4.51,4.51,0,0,0-.68.46l-1.11-.82v2.71h0A2.16,2.16,0,0,0,66,167.42l66,38.13a8.12,8.12,0,0,0,7.31-.31L247.21,143a3,3,0,0,0,1.79-2.39h0Z"/><path class="cls-302" d="M247.21,140.23,139.36,202.49a8.12,8.12,0,0,1-7.31.31l-66-38.13c-1.87-1.08-1.64-3,.53-4.22L174.39,98.18a8.15,8.15,0,0,1,7.31-.3l66,38.12C249.61,137.09,249.37,139,247.21,140.23Z"/><polygon class="cls-4" points="152.03 179.62 131.36 191.55 128.97 190.17 149.64 178.24 152.03 179.62"/><polygon class="cls-4" points="177.44 164.95 156.77 176.88 154.38 175.5 175.05 163.57 177.44 164.95"/><polygon class="cls-4" points="202.85 150.28 182.18 162.21 179.78 160.83 200.46 148.9 202.85 150.28"/><polygon class="cls-4" points="228.26 135.61 207.59 147.54 205.19 146.16 225.87 134.23 228.26 135.61"/><path class="cls-4" d="M244.94,218.36,211.76,199c-6.57-3.79-12.77-4.39-17.45-1.69s-7.26,8.37-7.26,16v2.43c.23.16.48.31.73.46v-2.89c0-7.32,2.45-12.76,6.89-15.33s10.39-2,16.72,1.69L244.57,219a.37.37,0,0,0,.5-.13.36.36,0,0,0-.11-.5Z"/><path class="cls-4" d="M141.48,195.35V120.59c0-15-10.55-33.23-23.51-40.71-6.34-3.67-12.33-4.25-16.85-1.64s-7,8.09-7,15.42v5.21l.74.73V93.66c0-7.06,2.36-12.31,6.64-14.78s10-1.9,16.13,1.63c12.76,7.37,23.14,25.34,23.14,40.08v74.76c0,12.4,7.29,27.08,17.19,35.91v-1C148.44,221.55,141.48,207.36,141.48,195.35Z"/><path class="cls-4" d="M158,231s-8.44-8.6-11.73-15.69-5-13.66-5.05-19.51-.11-56.17-.11-56.17.36-20.87-.52-24.16S137.65,94.6,120.44,82s-25.81,1-25.71,8.11,0,11.67,0,11.67,9.43,7.63,13,18.53,3.9,9,4,19.85.12,65.85.12,65.85-.8,9.67,1.6,17.14,6.73,15.77,11.86,21.19,12.63,11.79,19.63,11.16,11.71-3.21,13-14.29Z"/><polygon class="cls-4" points="101.12 78.24 72.11 94.97 94.73 101.71 101.12 78.24"/><path class="cls-303" d="M187.05,215.74v3.35c-1.62-1.17-9.2-6.35-16.41-6.1-8.12.29-10.85,7.72-10.85,7.72s-1.92,5.55-1.78,8.15c0,.45.05,1,.07,1.54l-.14-.12v1l.17.15c.07,2.5.09,5.25.09,5.25a45.16,45.16,0,0,1-.64,8.21c-1.26,5.85-6.21,9.17-6.6,9.69l29.78-17.14h.08l.11-.07.16-.09h0c4.31-2.66,6.68-8,6.68-15.12v-6C187.53,216.05,187.28,215.9,187.05,215.74Z"/><path class="cls-4" d="M163.85,215l30.46-17.63a15.14,15.14,0,0,1,11.47-.43c6.28,2.3,39.2,22,39.2,22l-29.41,17s-34.16-21.17-38.17-22.23C169.17,211.49,163.85,215,163.85,215Z"/><path class="cls-304" d="M94.1,101.16h0a29.42,29.42,0,0,0-15-7.33C69.84,92.41,66,103.24,66,103.24a59.16,59.16,0,0,0-1,9c0,3.33.28,15.41.28,15.41l29.34-16.9h0a.38.38,0,0,0,.21-.32v-8.58A9.26,9.26,0,0,0,94.1,101.16Z"/><path class="cls-305" d="M145.25,255.89a21.48,21.48,0,0,1-10.53-3.22c-12.86-7.43-23.33-25.56-23.33-40.41V137.5c0-14.73-10.38-32.71-23.14-40.08-6.11-3.53-11.84-4.11-16.12-1.63s-6.65,7.72-6.65,14.78v16.71a.38.38,0,0,1-.3.43.38.38,0,0,1-.43-.31.24.24,0,0,1,0-.12V110.57c0-7.33,2.49-12.81,7-15.42s10.51-2,16.86,1.64c13,7.48,23.5,25.74,23.5,40.71v74.76c0,14.62,10.3,32.47,23,39.78,6.06,3.5,11.75,4.08,16,1.62s6.6-7.67,6.6-14.67v-8.77c0-7.59,2.58-13.26,7.26-16s10.88-2.1,17.45,1.69l33.18,19.32a.37.37,0,1,1-.27.69.21.21,0,0,1-.1-.06L182,216.58c-6.34-3.65-12.28-4.26-16.72-1.69s-6.9,8-6.9,15.33V239c0,7.28-2.47,12.71-7,15.3A12.34,12.34,0,0,1,145.25,255.89Z"/><polygon class="cls-306" points="119.28 153.92 119.28 151.28 122.36 149.5 122.36 152.14 119.28 153.92"/><polygon class="cls-306" points="127.97 143.97 127.97 141.33 133.83 137.94 133.83 140.58 127.97 143.97"/><polygon class="cls-306" points="119.58 143.42 119.58 140.78 133.83 132.55 133.83 135.19 119.58 143.42"/><polygon class="cls-306" points="124.53 150.88 124.53 148.25 136.43 141.38 136.43 144.01 124.53 150.88"/><polygon class="cls-306" points="119.58 148.81 119.58 146.17 125.44 142.78 125.44 145.42 119.58 148.81"/><polygon class="cls-306" points="123.03 179.59 123.03 182.23 119.42 184.32 119.42 181.68 123.03 179.59"/><polygon class="cls-306" points="129.6 175.8 129.6 178.44 125.99 180.53 125.99 177.88 129.6 175.8"/><polygon class="cls-306" points="133.54 168.59 133.54 171.23 119.59 179.28 119.59 176.65 133.54 168.59"/><polygon class="cls-306" points="126.58 160.24 126.58 157.6 133.54 153.59 133.54 156.22 126.58 160.24"/><polygon class="cls-306" points="119.42 164.38 119.42 161.74 123.03 159.65 123.03 162.29 119.42 164.38"/><polygon class="cls-306" points="119.42 169.31 119.42 166.67 126.3 162.7 126.3 165.34 119.42 169.31"/><polygon class="cls-306" points="129.07 163.74 129.07 161.1 133.54 158.52 133.54 161.16 129.07 163.74"/><polygon class="cls-306" points="126.58 190.98 126.58 188.34 133.54 184.32 133.54 186.96 126.58 190.98"/><polygon class="cls-306" points="119.42 195.11 119.42 192.47 123.03 190.39 123.03 193.03 119.42 195.11"/><polygon class="cls-306" points="119.42 200.04 119.42 197.4 126.3 193.44 126.3 196.07 119.42 200.04"/><polygon class="cls-306" points="129.07 194.47 129.07 191.83 133.54 189.25 133.54 191.89 129.07 194.47"/><polygon class="cls-306" points="202.16 219.13 199.88 217.81 202.96 216.04 205.24 217.35 202.16 219.13"/><polygon class="cls-306" points="206.58 211.65 204.29 210.33 210.16 206.94 212.44 208.26 206.58 211.65"/><polygon class="cls-306" points="193.52 213.8 191.23 212.48 205.49 204.25 207.77 205.57 193.52 213.8"/><polygon class="cls-306" points="207.42 216.1 205.13 214.78 217.03 207.91 219.31 209.23 207.42 216.1"/><polygon class="cls-306" points="198.19 216.49 195.91 215.17 201.77 211.79 204.05 213.11 198.19 216.49"/><polygon class="cls-4" points="46.3 225.13 44.96 225.9 41.8 224.08 43.14 223.31 46.3 225.13"/><polygon class="cls-4" points="48.76 223.71 47.42 224.48 44.26 222.66 45.6 221.89 48.76 223.71"/><polygon class="cls-4" points="51.22 222.29 49.88 223.06 46.72 221.24 48.06 220.47 51.22 222.29"/><polygon class="cls-4" points="53.68 220.87 52.34 221.64 49.18 219.82 50.52 219.04 53.68 220.87"/><path class="cls-4" d="M227.31,266.49l-23.54-13.58a5,5,0,0,0-2-.55h-1.28l-.4.1h-.15a3.06,3.06,0,0,0-.49.22L181.88,263h0l-16.75,9.7-1.63.16v1.65a1.76,1.76,0,0,0,1,1.16l23.55,13.59a4.68,4.68,0,0,0,2,.55h.68l.42-.05h.18a2.6,2.6,0,0,0,.4-.1l.15-.05a3.06,3.06,0,0,0,.49-.22h0L227.49,269a1.38,1.38,0,0,0,.81-1.18h0v-1.38Z"/><path class="cls-307" d="M164.32,271.72l17.56-10.17,27.29,15.74-16.8,10.61a4.79,4.79,0,0,1-4.33-.09l-23.55-13.59C163.24,273.51,163.17,272.39,164.32,271.72Z"/><path class="cls-308" d="M199.44,251.37l-17.56,10.18L209,277.19l18.49-9.64c1.15-.66,1.07-1.78-.17-2.5l-23.55-13.58A4.79,4.79,0,0,0,199.44,251.37Z"/><path class="cls-309" d="M228.29,266.21a1.33,1.33,0,0,1-.8,1.34L192.37,287.9a4.24,4.24,0,0,1-2.32.46l2.33-20.76Z"/><path class="cls-310" d="M163.52,273.06a1.33,1.33,0,0,1,.8-1.34l35.12-20.35a4.24,4.24,0,0,1,2.32-.46l-2.33,20.76Z"/><path class="cls-4" d="M190.3,279.5h-.63a4.84,4.84,0,0,1-1.82-.57L164.3,265.3a2.35,2.35,0,0,1-1-1.07h0l-.07-.4v-.07a1.22,1.22,0,0,1,0-.27v-.15a1.75,1.75,0,0,1,.12-.32.35.35,0,0,1,.06-.14,1.76,1.76,0,0,1,.24-.3l.09-.11a2.15,2.15,0,0,1,.46-.33l35.11-20.35a4,4,0,0,1,.56-.25H200l.48-.13h.14l.51-.06h1.09a4.67,4.67,0,0,1,1.82.57l23.55,13.58a2.38,2.38,0,0,1,1,1.08h0l.07.41h0v.43a1.75,1.75,0,0,1-.12.32.61.61,0,0,1-.07.14,1.63,1.63,0,0,1-.23.29l-.09.11a2.15,2.15,0,0,1-.46.33L192.57,279a4,4,0,0,1-.56.25h-.12a4.27,4.27,0,0,1-.48.13h-.14l-.51.07h-.46Zm.78-.82.25.34-.08-.37a1.61,1.61,0,0,0,.36-.1l.27.32-.13-.36a2.35,2.35,0,0,0,.43-.19L227.3,258a1.44,1.44,0,0,0,.32-.23l.33.19-.28-.26.14-.16a1.17,1.17,0,0,0,.09-.24v-.2h0a1.38,1.38,0,0,0-.77-.9l-23.55-13.58a4.12,4.12,0,0,0-1.84-.5h-1l-.24-.35.08.37-.36.1-.28-.32.13.36a2,2,0,0,0-.42.19L164.51,262.8l-.32.23-.19.24a.92.92,0,0,0-.09.23v.25a1.4,1.4,0,0,0,.77.89l23.55,13.59a4.4,4.4,0,0,0,1.84.5h.64Z"/><path class="cls-16" d="M227.94,257.93a1.37,1.37,0,0,0,.19-.23.13.13,0,0,1,.05-.1,1.13,1.13,0,0,0,.08-.24v-.11a1,1,0,0,0,0-.25h0a1.78,1.78,0,0,0-1-1.16l-23.55-13.58a4.68,4.68,0,0,0-2-.55H201l-.42,0h-.18a2.62,2.62,0,0,0-.4.11h-.16a2.62,2.62,0,0,0-.48.22l-11.71,6.79-5.85,3.39h0l-17.56,10.17a2.14,2.14,0,0,0-.39.28l-.07.09a2.11,2.11,0,0,0-.19.23v.11l-.09.24v.11a1,1,0,0,0,0,.24h0a1.78,1.78,0,0,0,1,1.16l23.55,13.59a4.68,4.68,0,0,0,2,.55h.68l.42-.05h.18a2.6,2.6,0,0,0,.4-.1l.15-.05a2.71,2.71,0,0,0,.49-.22h0l35.12-20.35a2.14,2.14,0,0,0,.39-.28Z"/><text class="cls-311" transform="translate(148.33 136.09) rotate(-29.47)">ASTRA</text><text class="cls-312" transform="matrix(0.76, 0.46, -0.35, 0.94, 677.32, 146.01)">ASTRA</text><text class="cls-311" transform="matrix(0.85, 0.52, -0.52, 0.85, 369.86, 141.8)">ASTRA</text></g><text class="cls-313" transform="translate(64 363)">PAYMENT RECEIPT/HISTORY</text><text class="cls-313" transform="translate(368.35 363)">EASY PAYMENT</text><text class="cls-313" transform="translate(603.76 363)">SAFE &amp; SECURE PAYMENT</text></svg>