<svg xmlns="http://www.w3.org/2000/svg" viewBox="0 0 450 225"><defs><style>.cls-1{isolation:isolate;}.cls-2{fill:#634eff;}.cls-3{opacity:0.7;}.cls-14,.cls-16,.cls-4{fill:#fff;}.cls-20,.cls-5{fill:gray;}.cls-5{opacity:0.45;mix-blend-mode:color-burn;}.cls-6{fill:#ffc68c;}.cls-7{fill:#ffd5a8;}.cls-8{fill:#ffb578;}.cls-43,.cls-9{fill:#ff4521;}.cls-10{fill:#ffb5a6;}.cls-11{fill:#292642;}.cls-12{fill:#888;}.cls-13{fill:#727272;}.cls-14,.cls-18{mix-blend-mode:soft-light;}.cls-15{fill:#1a00d4;}.cls-16{font-size:4px;font-family:Poppins-Regular, Poppins;}.cls-17{fill:#ffdcc2;}.cls-18{fill:#ffa59d;}.cls-19{fill:#fea359;}.cls-20{opacity:0.5;}.cls-20,.cls-32,.cls-36,.cls-39,.cls-43{mix-blend-mode:multiply;}.cls-21{fill:#d2d2d2;}.cls-22{fill:#b4b4b4;}.cls-23{fill:#f3a11b;}.cls-24{fill:#b37e07;}.cls-25{fill:#b88108;}.cls-26{fill:#ffd315;}.cls-27{fill:#463039;}.cls-28{fill:#ccc;}.cls-29{fill:#f5f5f5;}.cls-30{fill:#fec7a6;}.cls-31{fill:#2f977e;}.cls-32{fill:#333;}.cls-32,.cls-43{opacity:0.31;}.cls-33{fill:#f2f2f2;}.cls-34{fill:#fed9ae;}.cls-35{fill:#ffe1b9;}.cls-36{opacity:0.2;}.cls-37{fill:#4d4d4d;}.cls-38{fill:#3d210b;}.cls-39{opacity:0.14;}.cls-40{fill:#969696;}.cls-41{fill:#62415f;}.cls-42{fill:#e5e5e5;}.cls-44{font-size:12px;fill:#fffd11;font-family:OldEnglishTextMT, Old English Text MT;}</style></defs><title>Asset 5</title><g class="cls-1"><g id="Layer_2" data-name="Layer 2"><g id="Layer_1-2" data-name="Layer 1"><rect class="cls-2" width="450" height="225"/><g class="cls-3"><path class="cls-4" d="M229,137.56a.76.76,0,0,0-.76.76.77.77,0,1,0,.76-.76Z"/><path class="cls-4" d="M229.25,134a.76.76,0,1,0,.77.76A.76.76,0,0,0,229.25,134Z"/><circle class="cls-4" cx="229.41" cy="131.16" r="0.76"/><path class="cls-4" d="M229.43,126.83a.77.77,0,0,0-.76.77.76.76,0,0,0,1.52,0A.77.77,0,0,0,229.43,126.83Z"/><path class="cls-4" d="M228.52,124a.77.77,0,1,0,.76-.76A.76.76,0,0,0,228.52,124Z"/><circle class="cls-4" cx="229" cy="120.43" r="0.76"/><circle class="cls-4" cx="228.58" cy="116.9" r="0.76"/><path class="cls-4" d="M227.26,113.36a.77.77,0,1,0,.77-.76A.76.76,0,0,0,227.26,113.36Z"/><circle class="cls-4" cx="227.3" cy="109.83" r="0.76"/><circle class="cls-4" cx="226.45" cy="106.38" r="0.76"/><path class="cls-4" d="M224.7,102.93a.77.77,0,0,0,.76.77.78.78,0,0,0,.77-.77.77.77,0,0,0-.77-.76A.76.76,0,0,0,224.7,102.93Z"/><circle class="cls-4" cx="224.33" cy="99.53" r="0.76"/><circle class="cls-4" cx="223.07" cy="96.19" r="0.76"/><path class="cls-4" d="M221.66,93.67a.76.76,0,0,0,.76-.76.76.76,0,1,0-1.52,0A.76.76,0,0,0,221.66,93.67Z"/><path class="cls-4" d="M220.13,90.43a.77.77,0,0,0,0-1.53.77.77,0,1,0,0,1.53Z"/><circle class="cls-4" cx="218.46" cy="86.51" r="0.76"/><path class="cls-4" d="M216.69,82.66a.77.77,0,1,0,.76.76A.76.76,0,0,0,216.69,82.66Z"/><path class="cls-4" d="M214.77,79.64a.77.77,0,0,0-.76.77.76.76,0,1,0,1.52,0A.77.77,0,0,0,214.77,79.64Z"/><circle class="cls-4" cx="212.73" cy="77.47" r="0.76"/><path class="cls-4" d="M210.56,73.84a.76.76,0,0,0-.76.76.76.76,0,1,0,1.52,0A.76.76,0,0,0,210.56,73.84Z"/><path class="cls-4" d="M208.32,71.08a.77.77,0,1,0,.76.76A.76.76,0,0,0,208.32,71.08Z"/><circle class="cls-4" cx="205.95" cy="69.17" r="0.76"/><circle class="cls-4" cx="203.45" cy="66.58" r="0.76"/><circle class="cls-4" cx="200.88" cy="64.11" r="0.76"/><circle class="cls-4" cx="198.19" cy="61.74" r="0.76"/><circle class="cls-4" cx="195.4" cy="59.47" r="0.76"/><circle class="cls-4" cx="192.55" cy="57.32" r="0.76"/><circle class="cls-4" cx="189.61" cy="55.3" r="0.76"/><circle class="cls-4" cx="186.55" cy="53.37" r="0.76"/><circle class="cls-4" cx="183.44" cy="51.59" r="0.76"/><path class="cls-4" d="M180.28,49.16a.77.77,0,0,0-.76.77.76.76,0,1,0,1.52,0A.77.77,0,0,0,180.28,49.16Z"/><circle class="cls-4" cx="177.02" cy="48.4" r="0.76"/><path class="cls-4" d="M173.73,46.24A.77.77,0,0,0,173,47a.76.76,0,1,0,1.52,0A.77.77,0,0,0,173.73,46.24Z"/><path class="cls-4" d="M170.35,45a.77.77,0,1,0,.76.76A.76.76,0,0,0,170.35,45Z"/><path class="cls-4" d="M167,43.86a.77.77,0,1,0,.76.76A.76.76,0,0,0,167,43.86Z"/><path class="cls-4" d="M163.51,42.87a.77.77,0,1,0,.77.77A.77.77,0,0,0,163.51,42.87Z"/><circle class="cls-4" cx="160.03" cy="42.8" r="0.76"/><path class="cls-4" d="M156.53,41.34a.77.77,0,1,0,.76.76A.76.76,0,0,0,156.53,41.34Z"/><path class="cls-4" d="M153,40.79a.77.77,0,1,0,.76.76A.76.76,0,0,0,153,40.79Z"/><circle class="cls-4" cx="149.44" cy="41.13" r="0.76"/><path class="cls-4" d="M145.85,40.11a.77.77,0,1,0,.76.76A.76.76,0,0,0,145.85,40.11Z"/><path class="cls-4" d="M142.29,40a.77.77,0,0,0-.76.77.76.76,0,0,0,1.52,0A.77.77,0,0,0,142.29,40Z"/><path class="cls-4" d="M138.72,40a.76.76,0,1,0,.76.76A.76.76,0,0,0,138.72,40Z"/><circle class="cls-4" cx="135.11" cy="40.94" r="0.76"/><path class="cls-4" d="M131.56,40.47a.76.76,0,1,0,.76.76A.76.76,0,0,0,131.56,40.47Z"/><circle class="cls-4" cx="128.01" cy="41.68" r="0.76"/><circle class="cls-4" cx="124.48" cy="42.27" r="0.76"/><circle class="cls-4" cx="120.96" cy="43.01" r="0.76"/><path class="cls-4" d="M117.5,43.13a.76.76,0,0,0,0,1.52.76.76,0,1,0,0-1.52Z"/><circle class="cls-4" cx="114.08" cy="44.9" r="0.76"/><circle class="cls-4" cx="110.68" cy="46.06" r="0.76"/><circle class="cls-4" cx="107.33" cy="47.35" r="0.76"/><circle class="cls-4" cx="104.07" cy="48.78" r="0.76"/><path class="cls-4" d="M100.86,49.56a.76.76,0,0,0-.76.76.77.77,0,0,0,.76.77.78.78,0,0,0,.77-.77A.77.77,0,0,0,100.86,49.56Z"/><path class="cls-4" d="M97.7,51.26a.77.77,0,0,0-.76.77.76.76,0,1,0,1.52,0A.77.77,0,0,0,97.7,51.26Z"/><circle class="cls-4" cx="94.64" cy="53.81" r="0.76"/><path class="cls-4" d="M91.63,55a.76.76,0,1,0,.76.76A.76.76,0,0,0,91.63,55Z"/><path class="cls-4" d="M88.7,57.05a.76.76,0,0,0-.76.76.77.77,0,0,0,.76.77.78.78,0,0,0,.77-.77A.77.77,0,0,0,88.7,57.05Z"/><circle class="cls-4" cx="85.85" cy="60" r="0.76"/><circle class="cls-4" cx="83.11" cy="62.28" r="0.76"/><path class="cls-4" d="M80.45,63.91a.77.77,0,1,0,.76.76A.76.76,0,0,0,80.45,63.91Z"/><path class="cls-4" d="M77.89,66.41a.77.77,0,1,0,.77.77A.77.77,0,0,0,77.89,66.41Z"/><path class="cls-4" d="M75.43,69a.77.77,0,1,0,.77.76A.76.76,0,0,0,75.43,69Z"/><path class="cls-4" d="M73.07,71.72a.76.76,0,0,0-.76.76.76.76,0,1,0,1.52,0A.76.76,0,0,0,73.07,71.72Z"/><path class="cls-4" d="M70.83,74.52a.76.76,0,1,0,0,1.52.76.76,0,1,0,0-1.52Z"/><circle class="cls-4" cx="68.71" cy="78.17" r="0.76"/><path class="cls-4" d="M67.47,81.13a.78.78,0,0,0-.77-.77.77.77,0,0,0-.76.77.76.76,0,0,0,.76.76A.77.77,0,0,0,67.47,81.13Z"/><path class="cls-4" d="M64.81,84.92a.76.76,0,0,0,0-1.52.76.76,0,1,0,0,1.52Z"/><path class="cls-4" d="M63.05,88a.76.76,0,1,0-.76-.76A.76.76,0,0,0,63.05,88Z"/><path class="cls-4" d="M61.41,91.24a.77.77,0,0,0,.76-.77.77.77,0,0,0-1.53,0A.77.77,0,0,0,61.41,91.24Z"/><circle class="cls-4" cx="59.89" cy="93.75" r="0.76"/><circle class="cls-4" cx="58.52" cy="97.05" r="0.76"/><path class="cls-4" d="M57.3,101.19a.76.76,0,0,0,.77-.76.77.77,0,1,0-1.53,0A.76.76,0,0,0,57.3,101.19Z"/><path class="cls-4" d="M56.22,104.6a.77.77,0,1,0-.77-.77A.76.76,0,0,0,56.22,104.6Z"/><path class="cls-4" d="M55.23,108a.76.76,0,1,0,0-1.52.76.76,0,1,0,0,1.52Z"/><circle class="cls-4" cx="54.43" cy="110.75" r="0.76"/><circle class="cls-4" cx="53.77" cy="114.29" r="0.76"/><path class="cls-4" d="M53.22,118.58a.77.77,0,1,0-.77-.77A.76.76,0,0,0,53.22,118.58Z"/><path class="cls-4" d="M52.84,122.14a.77.77,0,0,0,.76-.77.76.76,0,0,0-.76-.76.77.77,0,0,0-.77.76A.78.78,0,0,0,52.84,122.14Z"/><circle class="cls-4" cx="52.61" cy="124.96" r="0.76"/><circle class="cls-4" cx="52.5" cy="128.52" r="0.76"/><path class="cls-4" d="M52.55,132.87a.77.77,0,1,0-.76-.77A.76.76,0,0,0,52.55,132.87Z"/><path class="cls-4" d="M53.51,135.69a.77.77,0,0,0-.77-.76.76.76,0,1,0,0,1.52A.77.77,0,0,0,53.51,135.69Z"/><circle class="cls-4" cx="53.07" cy="139.25" r="0.76"/><path class="cls-4" d="M54.31,142.8a.77.77,0,0,0-.77-.76.76.76,0,0,0-.76.76.77.77,0,0,0,.76.77A.78.78,0,0,0,54.31,142.8Z"/><circle class="cls-4" cx="54.15" cy="146.31" r="0.76"/><path class="cls-4" d="M55.68,149.81a.77.77,0,1,0-.77.76A.76.76,0,0,0,55.68,149.81Z"/><path class="cls-4" d="M56.59,153.29a.77.77,0,0,0-.77-.76.76.76,0,1,0,0,1.52A.77.77,0,0,0,56.59,153.29Z"/><path class="cls-4" d="M57.62,156.7a.77.77,0,1,0-.77.76A.76.76,0,0,0,57.62,156.7Z"/><path class="cls-4" d="M58.82,160.09a.76.76,0,0,0-.76-.76.76.76,0,1,0,0,1.52A.76.76,0,0,0,58.82,160.09Z"/><circle class="cls-4" cx="59.35" cy="163.4" r="0.76"/><circle class="cls-4" cx="60.8" cy="166.68" r="0.76"/><path class="cls-4" d="M62.38,169.11a.77.77,0,1,0,.76.77A.76.76,0,0,0,62.38,169.11Z"/><circle class="cls-4" cx="64.09" cy="173.01" r="0.76"/><circle class="cls-4" cx="65.92" cy="176.08" r="0.76"/><circle class="cls-4" cx="67.9" cy="179.07" r="0.76"/><circle class="cls-4" cx="69.97" cy="181.98" r="0.76"/><path class="cls-4" d="M72.16,184a.77.77,0,0,0-.76.77.76.76,0,0,0,1.52,0A.77.77,0,0,0,72.16,184Z"/><circle class="cls-4" cx="74.48" cy="187.55" r="0.76"/><circle class="cls-4" cx="76.86" cy="190.18" r="0.76"/><circle class="cls-4" cx="79.4" cy="192.73" r="0.76"/><circle class="cls-4" cx="82.01" cy="195.17" r="0.76"/><path class="cls-4" d="M84.74,196.74a.76.76,0,1,0,0,1.52.76.76,0,1,0,0-1.52Z"/><path class="cls-4" d="M87.56,199a.77.77,0,1,0,0,1.53.77.77,0,0,0,0-1.53Z"/><path class="cls-4" d="M90.45,201.06a.76.76,0,1,0,.76.76A.76.76,0,0,0,90.45,201.06Z"/><path class="cls-4" d="M93.4,203.05a.77.77,0,1,0,.76.77A.76.76,0,0,0,93.4,203.05Z"/><circle class="cls-4" cx="96.47" cy="205.69" r="0.76"/><path class="cls-4" d="M99.61,206.67a.76.76,0,1,0,.76.76A.76.76,0,0,0,99.61,206.67Z"/><path class="cls-4" d="M102.82,208.29a.76.76,0,1,0,.76.76A.76.76,0,0,0,102.82,208.29Z"/><circle class="cls-4" cx="106.08" cy="210.52" r="0.76"/><circle class="cls-4" cx="109.4" cy="211.88" r="0.76"/><path class="cls-4" d="M112.78,212.32a.77.77,0,0,0-.76.77.76.76,0,1,0,1.52,0A.77.77,0,0,0,112.78,212.32Z"/><path class="cls-4" d="M116.21,213.4a.76.76,0,1,0,.76.76A.76.76,0,0,0,116.21,213.4Z"/><path class="cls-4" d="M119.64,214.33a.76.76,0,1,0,.76.76A.76.76,0,0,0,119.64,214.33Z"/><circle class="cls-4" cx="123.15" cy="215.87" r="0.76"/><path class="cls-4" d="M126.66,215.76a.77.77,0,1,0,.76.76A.76.76,0,0,0,126.66,215.76Z"/><circle class="cls-4" cx="130.22" cy="217.02" r="0.76"/><path class="cls-4" d="M133.79,216.62a.76.76,0,1,0,.76.76A.76.76,0,0,0,133.79,216.62Z"/><path class="cls-4" d="M137.34,216.84a.76.76,0,1,0,.76.76A.76.76,0,0,0,137.34,216.84Z"/><circle class="cls-4" cx="141.31" cy="217.71" r="0.76"/><path class="cls-4" d="M145.24,216.84a.76.76,0,1,0,.76.76A.76.76,0,0,0,145.24,216.84Z"/><circle class="cls-4" cx="149.08" cy="217.3" r="0.76"/><path class="cls-4" d="M152.64,216.15a.76.76,0,0,0,0,1.52.76.76,0,1,0,0-1.52Z"/><circle class="cls-4" cx="156.19" cy="216.37" r="0.76"/><circle class="cls-4" cx="159.7" cy="215.69" r="0.76"/><path class="cls-4" d="M163.16,214.1a.77.77,0,1,0,.76.77A.76.76,0,0,0,163.16,214.1Z"/><circle class="cls-4" cx="166.63" cy="213.89" r="0.76"/><path class="cls-4" d="M170,212a.76.76,0,1,0,0,1.52.76.76,0,0,0,0-1.52Z"/><path class="cls-4" d="M173.38,210.79a.76.76,0,1,0,.76.76A.76.76,0,0,0,173.38,210.79Z"/><path class="cls-4" d="M176.67,209.41a.76.76,0,1,0,.76.76A.76.76,0,0,0,176.67,209.41Z"/><path class="cls-4" d="M179.92,207.88a.77.77,0,1,0,.76.76A.76.76,0,0,0,179.92,207.88Z"/><circle class="cls-4" cx="183.1" cy="207.02" r="0.76"/><circle class="cls-4" cx="186.21" cy="205.25" r="0.76"/><circle class="cls-4" cx="189.22" cy="203.37" r="0.76"/><circle class="cls-4" cx="192.17" cy="201.35" r="0.76"/><path class="cls-4" d="M195.05,198.44a.76.76,0,0,0-.76.76.77.77,0,1,0,.76-.76Z"/><path class="cls-4" d="M197.83,196.21a.76.76,0,0,0-.76.76.76.76,0,1,0,1.52,0A.76.76,0,0,0,197.83,196.21Z"/><circle class="cls-4" cx="200.53" cy="194.62" r="0.76"/><circle class="cls-4" cx="203.12" cy="192.16" r="0.76"/><path class="cls-4" d="M205.63,188.82a.76.76,0,1,0,0,1.52.76.76,0,1,0,0-1.52Z"/><path class="cls-4" d="M208,186.16a.76.76,0,1,0,.76.76A.76.76,0,0,0,208,186.16Z"/><path class="cls-4" d="M210.3,183.39a.76.76,0,1,0,0,1.52.76.76,0,1,0,0-1.52Z"/><path class="cls-4" d="M212.47,180.54a.77.77,0,0,0-.76.77.76.76,0,0,0,1.52,0A.77.77,0,0,0,212.47,180.54Z"/><path class="cls-4" d="M214.53,177.6a.77.77,0,0,0-.76.77.76.76,0,0,0,1.52,0A.77.77,0,0,0,214.53,177.6Z"/><circle class="cls-4" cx="216.47" cy="175.36" r="0.76"/><circle class="cls-4" cx="218.26" cy="172.25" r="0.76"/><path class="cls-4" d="M220,168.33a.76.76,0,1,0,.76.76A.76.76,0,0,0,220,168.33Z"/><path class="cls-4" d="M221.52,165.09a.77.77,0,1,0,.76.77A.76.76,0,0,0,221.52,165.09Z"/><circle class="cls-4" cx="222.92" cy="162.57" r="0.76"/><path class="cls-4" d="M224.2,158.45a.76.76,0,0,0-.76.76.77.77,0,1,0,.76-.76Z"/><path class="cls-4" d="M225.36,155.05a.77.77,0,0,0,0,1.53.77.77,0,1,0,0-1.53Z"/><circle class="cls-4" cx="226.37" cy="152.37" r="0.76"/><path class="cls-4" d="M227.23,148.14a.76.76,0,0,0,0,1.52.76.76,0,1,0,0-1.52Z"/><path class="cls-4" d="M228,144.64a.76.76,0,1,0,.76.76A.76.76,0,0,0,228,144.64Z"/><circle class="cls-4" cx="228.54" cy="141.87" r="0.76"/></g><circle class="cls-5" cx="212.75" cy="74.88" r="27.5"/><circle class="cls-5" cx="69.18" cy="74.88" r="27.5"/><circle class="cls-5" cx="140.96" cy="40.96" r="27.5"/><circle class="cls-5" cx="57.78" cy="143.48" r="27.5"/><circle class="cls-5" cx="224.15" cy="143.48" r="27.5"/><path class="cls-6" d="M159.85,111.4a3.85,3.85,0,0,0-3.26,3.59,3.32,3.32,0,0,0,3.26,3.38c.9,0,2-1.74,2-3.49S161,111.54,159.85,111.4Z"/><path class="cls-7" d="M161,112.07c-.21,0,.33,1.24.31,2.81,0,1.23-.61,2.72-.36,2.8s1.14-1.27,1.14-2.8S161.4,112.1,161,112.07Z"/><path class="cls-6" d="M159.76,118.85a3.83,3.83,0,0,0-3.26,3.58,3.31,3.31,0,0,0,3.26,3.38c.9,0,4-.82,4-3.28C163.72,120.26,160.92,119,159.76,118.85Z"/><path class="cls-7" d="M160.87,119.51c-.21,0,.33,1.24.31,2.82,0,1.22-.6,2.71-.36,2.79.39.12,1.58-1.28,1.58-2.8S161.31,119.55,160.87,119.51Z"/><path class="cls-6" d="M159.49,126.48a3.64,3.64,0,0,0-3.08,3.39,3.14,3.14,0,0,0,3.08,3.2c.86,0,3.83-1,3.83-3.3S160.59,126.61,159.49,126.48Z"/><path class="cls-7" d="M160.55,127.11c-.21,0,.31,1.17.29,2.66,0,1.16-.58,2.57-.34,2.64s1.24-1.21,1.24-2.64S161,127.14,160.55,127.11Z"/><path class="cls-6" d="M159.54,133.74a3.51,3.51,0,0,0-3,3.27,3,3,0,0,0,3,3.1c.83,0,1.8-1.59,1.85-3.19S160.6,133.86,159.54,133.74Z"/><path class="cls-7" d="M160.56,134.34c-.2,0,.3,1.14.28,2.58,0,1.12-.55,2.48-.33,2.55s1-1.16,1-2.55S161,134.38,160.56,134.34Z"/><path class="cls-6" d="M110.37,145.16c.06,4.39,8.38,12.58,15.72,13.81s29.56-13.41,29.14-16.16-11.84-25.44-17.67-24.21S110.28,137.79,110.37,145.16Z"/><path class="cls-6" d="M110.38,139.59,66.19,209.81h35.88s24.32-49.42,26-50.84S110.38,139.59,110.38,139.59Z"/><path class="cls-8" d="M155.1,141.33s-28.37,3.49-30.11,5.38.59,12.13,3.1,12.26S151.47,150.83,155.1,141.33Z"/><path class="cls-8" d="M160.91,117.68l-4.32,3.18,6.73,3.08-6.91,5.93,6.49,1.3L156.56,137s4.12,2.64,3.55,2.87-6.94,5.68-6.94,5.68l.69-28.95Z"/><path class="cls-8" d="M124.43,148.44s-1.3,1.43-5,1.71a17.74,17.74,0,0,0-5.76,1.21c-.71.22,11.43,6.61,10.76,9.64S96.5,209.81,96.5,209.81h5.57l29.1-56.74Z"/><polygon class="cls-9" points="99.61 154.05 123.62 170.14 96.3 225 51.69 225 99.61 154.05"/><rect class="cls-10" x="125.92" y="93.03" width="29.76" height="51.38"/><path class="cls-11" d="M155.13,89.67h-28.6a2.54,2.54,0,0,0-2.48,2.61v52.39a2.54,2.54,0,0,0,2.48,2.61h28.6a2.54,2.54,0,0,0,2.48-2.61V92.28A2.54,2.54,0,0,0,155.13,89.67Zm0,51.66H126.57V96.06H155.1Z"/><path class="cls-12" d="M144.71,92H137a1,1,0,1,0,0,2h7.75a1,1,0,0,0,0-2Z"/><path class="cls-13" d="M144,92.31h-6.49a.73.73,0,1,0,0,1.44H144a.73.73,0,1,0,0-1.44Z"/><rect class="cls-12" x="137.8" y="142.68" width="6.06" height="3.26" rx="0.98"/><path class="cls-14" d="M154.36,96.06H126.57v26.65C138.9,121.1,149.35,109.4,154.36,96.06Z"/><rect class="cls-15" x="129.44" y="126.98" width="22.03" height="5.88"/><text class="cls-16" transform="translate(134.49 131.08)">Sign in</text><path class="cls-6" d="M122,150.77c1.72-.8,5-3.94,4.62-13.57-.17-3.71-3.31-7.31-3.2-10.9.08-3-.78-10.59-.78-11.06,0-.78,2.32-5.49,1.89-8.66s-2.2-5.7-3-5.27c-1.55.82-1.47,3.4-2.92,6.55s-3.39,6.16-3.53,7.38c-.77,7.08-6.22,18.31-6.14,26.8C108.93,145.53,115.9,153.59,122,150.77Z"/><path class="cls-7" d="M119.09,106.56c.15.4,1.58,0,1.92-.3s1.43-4.23,1.15-4.45a2,2,0,0,0-1-.54C121,101.27,118.85,105.93,119.09,106.56Z"/><path class="cls-6" d="M160.28,209.81s-.73-10.3-2.55-12.17-4.47-4.88-5.7-6.17c-1.68-1.76-7.38-11.08-7.67-11.95a69.53,69.53,0,0,0-6.56-13.72c-1.68-2.17-5.24-3.32-4.86-4.78s5.29-3.37,8.85-.39,7.66,10.74,7.66,10.74a72.59,72.59,0,0,0-1.39-7.4c-1.16-4.12-4.08-14.18-4.89-16.72-1-3.23-3.89-11.27-4.19-12.89s-1.37-4.51,1.25-5.57c2.44-1,3.87,1.45,5,4s4.33,10.76,5.53,14a68.81,68.81,0,0,0,4.66,9.75,4.87,4.87,0,0,0,2.56,1.59s.38-3.6.54-5.28c.07-.77.33-3.88,3.45-4,2.93-.14,3.85,3.47,3.85,3.47a3.25,3.25,0,0,1,2.23-.69c1.41.12,2.26.93,2.79,2.53.19.61.54,2.24.54,2.24a2.58,2.58,0,0,1,2.14-.51c1.29.27,1.93,2.05,2.27,3a98.15,98.15,0,0,1,3,10.77c.35,2.63-.39,15.88,0,17.88S185,209.81,185,209.81Z"/><path class="cls-7" d="M140.21,128.78a2.31,2.31,0,0,1,2.65.5,10.81,10.81,0,0,1,1.48,4.67c-.2.61-3,1.86-3.62,1.59-.88-.35-1.91-3.44-2.05-4.35A2.12,2.12,0,0,1,140.21,128.78Z"/><path class="cls-8" d="M144.86,164.07a61.62,61.62,0,0,1,5.15,7.49l.94,1.68a34.36,34.36,0,0,0-.81,4.77,20.67,20.67,0,0,0,.83,4.53,9.59,9.59,0,0,1-2-5.77,45.14,45.14,0,0,0-.11-5C148.52,169.27,144.86,164.07,144.86,164.07Z"/><path class="cls-8" d="M167.78,152.32a66.53,66.53,0,0,0,.52,7.55c.4,1.4,1.09,2.31,1.62,2.27.73-.06.7-1.2.18-2.82S167.78,152.32,167.78,152.32Z"/><path class="cls-8" d="M173.34,156.4a36.34,36.34,0,0,0,.83,5.46c.47,1.29.79,2,1.37,2s.68-.59.39-1.56A63.37,63.37,0,0,0,173.34,156.4Z"/><path class="cls-8" d="M155,155.8a5.38,5.38,0,0,0,1.26,2.36,2.87,2.87,0,0,0,1.53.88v-1.22a13,13,0,0,1-1.44-.59A3.28,3.28,0,0,1,155,155.8Z"/><path class="cls-17" d="M141.34,135.54h0c.64.26,3.26-.91,3.59-1.53a3.88,3.88,0,0,0-2.11.24A2.67,2.67,0,0,0,141.34,135.54Z"/><path class="cls-8" d="M165.43,198.59c-2.62-2.81-6.52-5-9.82-8s-7.41-9.84-8-11.49c-2-5.55-5.26-11.13-6.37-12.41-2.24-2.58.42-3.54-2.79-2.23a8.29,8.29,0,0,1,1.37,1.34,69.53,69.53,0,0,1,6.56,13.72c.29.87,6,10.19,7.67,11.95,1.23,1.29,3.89,4.3,5.7,6.17s2.55,12.17,2.55,12.17H167C166,206.47,167.29,200.58,165.43,198.59Z"/><path class="cls-7" d="M139.3,165.14a2.61,2.61,0,0,0,.9-1.33c-.06-.21-2.7-2.67-3.78-2.79s-1.91.22-1.93.48A29.65,29.65,0,0,0,139.3,165.14Z"/><path class="cls-18" d="M178.8,169.7a96,96,0,0,0-3-10.77c-.34-1-1-2.77-2.26-3a2.58,2.58,0,0,0-2.14.51s-.35-1.63-.55-2.24c-.52-1.6-1.38-2.41-2.78-2.53a3.22,3.22,0,0,0-2.23.69,6.53,6.53,0,0,0-.51-1.25,43.55,43.55,0,0,0-5.08,24.6c1.18,13.54,5.12,26.11,14.85,34.14h10s-5.85-20.24-6.28-22.23S179.16,172.33,178.8,169.7Z"/><path class="cls-19" d="M142.64,138.71a2.87,2.87,0,0,1,1.27-.82,2.59,2.59,0,0,1,1.48-.06,4.49,4.49,0,0,0-1.43.25A4.39,4.39,0,0,0,142.64,138.71Z"/><path class="cls-19" d="M142.83,139.11h0l2.75-.87a4.2,4.2,0,0,0-1.44.25A4.27,4.27,0,0,0,142.83,139.11Z"/><path class="cls-19" d="M145.43,147a2.8,2.8,0,0,1,1.27-.82,2.54,2.54,0,0,1,1.48,0,4.2,4.2,0,0,0-1.44.25A4.11,4.11,0,0,0,145.43,147Z"/><path class="cls-19" d="M145.63,147.47a2.8,2.8,0,0,1,1.27-.82,2.6,2.6,0,0,1,1.48-.06,4.53,4.53,0,0,0-1.44.25A4.23,4.23,0,0,0,145.63,147.47Z"/><polygon class="cls-9" points="158.17 225 159.48 208.93 184.71 205.75 188.44 225 158.17 225"/><path class="cls-20" d="M92.81,87.18a10.37,10.37,0,0,0-8.15-1.84c-.23,0-.46-.08-.69-.1l18.53-6.49L101,74.52,97.48,64.4V52.56h-55V76.2h.85l5.77,16.49,1.49,4.23,2-.68a6.13,6.13,0,0,0,.44,1,6.52,6.52,0,0,0,2.69,5.21l.1.07a7.25,7.25,0,0,0,2.14,2.64,8.92,8.92,0,0,0,2.29,1.3A10.58,10.58,0,0,0,70.48,105,6.44,6.44,0,0,0,73,99.68a6.55,6.55,0,0,0,0-1,6.55,6.55,0,0,0,0-1,5.92,5.92,0,0,0,0-1,6.15,6.15,0,0,0,0-1,6.48,6.48,0,0,0-2.68-5.51l-.08-.06,5.22-1.83a6.27,6.27,0,0,0-1.61,4.48A6.09,6.09,0,0,0,75,96.56a6.7,6.7,0,0,0,2.66,4.57,9.06,9.06,0,0,0,2.29,1.29,10.56,10.56,0,0,0,2.67.67A10.23,10.23,0,0,0,90.2,101,7.06,7.06,0,0,0,92,98.75a7.68,7.68,0,0,0,1-.7,6.44,6.44,0,0,0,2.5-5.36A6.51,6.51,0,0,0,92.81,87.18Z"/><rect class="cls-4" x="42.69" y="62.99" width="55.01" height="19.15" transform="matrix(0.94, -0.33, 0.33, 0.94, -20.03, 27.26)"/><path class="cls-9" d="M91.39,56.44,43.64,73.16a1.43,1.43,0,0,0-.16.3l5.28,15.07.31.14L96.81,72a2.29,2.29,0,0,0,.16-.31L91.69,56.58Zm2.16,11.75a2.72,2.72,0,0,0-1.74,3.41l-39,13.67a2.73,2.73,0,0,0-3.5-1.58l-2.38-6.77a2.73,2.73,0,0,0,1.76-3.42l39-13.67a2.7,2.7,0,0,0,3.49,1.58Z"/><rect class="cls-21" x="46.59" y="81.48" width="55.01" height="4.48" transform="translate(-23.5 29.18) rotate(-19.29)"/><rect class="cls-4" x="60.64" y="63.16" width="18.17" height="19.15" transform="matrix(0.94, -0.33, 0.33, 0.94, -20.11, 27.12)"/><rect class="cls-22" x="64.55" y="81.64" width="18.17" height="4.48" transform="translate(-23.58 29.04) rotate(-19.29)"/><rect class="cls-23" x="62.37" y="65.3" width="2.44" height="19.15" transform="translate(-21.16 25.19) rotate(-19.28)"/><rect class="cls-23" x="74.8" y="60.95" width="2.44" height="19.15" transform="translate(-19.03 29.07) rotate(-19.29)"/><rect class="cls-24" x="66.27" y="83.79" width="2.44" height="4.48" transform="translate(-24.63 27.12) rotate(-19.29)"/><rect class="cls-25" x="78.71" y="79.44" width="2.44" height="4.48" transform="translate(-22.52 31.03) rotate(-19.31)"/><path class="cls-9" d="M60,76.15a2.93,2.93,0,1,1-3.58-1.44A2.74,2.74,0,0,1,60,76.15Z"/><path class="cls-9" d="M85.34,67.27a2.93,2.93,0,1,1-3.59-1.45A2.75,2.75,0,0,1,85.34,67.27Z"/><rect class="cls-4" x="40.77" y="50.56" width="55.01" height="19.15"/><path class="cls-9" d="M93.6,51.92H43a1.75,1.75,0,0,0-.24.23v16a2.83,2.83,0,0,0,.25.24H93.59a1.43,1.43,0,0,0,.25-.24v-16A1.75,1.75,0,0,0,93.6,51.92ZM91.77,63.73A2.71,2.71,0,0,0,89,66.37H47.63a2.72,2.72,0,0,0-2.79-2.64V56.55a2.73,2.73,0,0,0,2.79-2.65H89a2.72,2.72,0,0,0,2.78,2.65Z"/><rect class="cls-21" x="40.77" y="69.72" width="55.01" height="4.48"/><rect class="cls-4" x="58.69" y="50.56" width="18.17" height="19.15"/><rect class="cls-22" x="58.69" y="69.72" width="18.17" height="4.48"/><rect class="cls-23" x="60.05" y="50.56" width="2.45" height="19.15"/><rect class="cls-23" x="73.23" y="50.56" width="2.44" height="19.15"/><rect class="cls-24" x="60.05" y="69.72" width="2.45" height="4.48"/><rect class="cls-25" x="73.23" y="69.72" width="2.44" height="4.48"/><path class="cls-9" d="M57.42,60.14a2.93,2.93,0,1,1-2.9-2.55A2.74,2.74,0,0,1,57.42,60.14Z"/><path class="cls-9" d="M84.32,60.14a2.93,2.93,0,1,1-2.91-2.55A2.74,2.74,0,0,1,84.32,60.14Z"/><path class="cls-26" d="M71.28,97.68a6.56,6.56,0,0,1-2.5,4.63,10.58,10.58,0,0,1-10.28,1.45,8.89,8.89,0,0,1-2.29-1.29,6.61,6.61,0,0,1-2.69-4.78A6.44,6.44,0,0,1,56,92.33a10.46,10.46,0,0,1,12.58-.16A6.5,6.5,0,0,1,71.28,97.68Z"/><path class="cls-23" d="M68.78,103a10.58,10.58,0,0,1-10.28,1.45,8.92,8.92,0,0,1-2.29-1.3,6.48,6.48,0,0,1-2.69-5.5,6.61,6.61,0,0,0,2.69,4.78,8.89,8.89,0,0,0,2.29,1.29,10.58,10.58,0,0,0,10.28-1.45,6.56,6.56,0,0,0,2.5-4.63A6.44,6.44,0,0,1,68.78,103Z"/><path class="cls-23" d="M67.67,101.44a8.66,8.66,0,0,1-10.38.13,5.16,5.16,0,0,1-.15-8.37,8.64,8.64,0,0,1,10.37-.13A5.15,5.15,0,0,1,67.67,101.44Z"/><path class="cls-26" d="M71.28,95.7a6.56,6.56,0,0,1-2.5,4.63,10.58,10.58,0,0,1-10.28,1.45,8.89,8.89,0,0,1-2.29-1.29,6.61,6.61,0,0,1-2.69-4.78A6.44,6.44,0,0,1,56,90.35a10.46,10.46,0,0,1,12.58-.16A6.5,6.5,0,0,1,71.28,95.7Z"/><path class="cls-23" d="M68.78,101.06a10.22,10.22,0,0,1-7.61,2.11,10.55,10.55,0,0,1-2.67-.66,9.23,9.23,0,0,1-2.29-1.3,6.48,6.48,0,0,1-2.69-5.5,6.61,6.61,0,0,0,2.69,4.78,8.89,8.89,0,0,0,2.29,1.29,10.58,10.58,0,0,0,10.28-1.45,6.56,6.56,0,0,0,2.5-4.63A6.44,6.44,0,0,1,68.78,101.06Z"/><path class="cls-23" d="M67.67,99.46a8.66,8.66,0,0,1-10.38.13,5.16,5.16,0,0,1-.15-8.37,8.64,8.64,0,0,1,10.37-.13A5.15,5.15,0,0,1,67.67,99.46Z"/><path class="cls-26" d="M64.55,97.43a1.7,1.7,0,0,1-1,1,2.67,2.67,0,0,1-1.25.17,3.41,3.41,0,0,1-.42,0l-.24.64-1.14-.28.25-.66a2.64,2.64,0,0,1-.78-.46,1.75,1.75,0,0,1-.57-.8,1.72,1.72,0,0,1,0-1l1.53.31a1,1,0,0,0,.18.92,1,1,0,0,0,.58.33,1.36,1.36,0,0,0,.94-.09.72.72,0,0,0,.32-.38c.1-.26,0-.56-.3-.92L61.55,95a4.19,4.19,0,0,1-.8-1.09,1.3,1.3,0,0,1,0-1,1.74,1.74,0,0,1,1.45-1,3.62,3.62,0,0,1,1,0l.24-.64,1.14.29-.24.63a3.53,3.53,0,0,1,.8.42,1.68,1.68,0,0,1,.56.67,1.25,1.25,0,0,1,.07.81l-1.57-.21a.82.82,0,0,0-.14-.69,1.18,1.18,0,0,0-1.31-.24.73.73,0,0,0-.36.41,1.1,1.1,0,0,0,.28,1,3.92,3.92,0,0,0,.55.58c.3.27.49.46.58.56a3.57,3.57,0,0,1,.63.91,1.77,1.77,0,0,1,.13.36A1.2,1.2,0,0,1,64.55,97.43Z"/><path class="cls-26" d="M69,95a6.54,6.54,0,0,1-2.49,4.63,10.61,10.61,0,0,1-10.29,1.45A9.06,9.06,0,0,1,54,99.76,6.61,6.61,0,0,1,51.28,95a6.44,6.44,0,0,1,2.5-5.36,10.46,10.46,0,0,1,12.58-.16A6.48,6.48,0,0,1,69,95Z"/><path class="cls-23" d="M66.55,100.33a10.23,10.23,0,0,1-7.61,2.11,10.12,10.12,0,0,1-2.68-.66,9.09,9.09,0,0,1-2.29-1.3A6.48,6.48,0,0,1,51.28,95,6.61,6.61,0,0,0,54,99.76a9.06,9.06,0,0,0,2.29,1.29A10.61,10.61,0,0,0,66.55,99.6,6.54,6.54,0,0,0,69,95,6.46,6.46,0,0,1,66.55,100.33Z"/><path class="cls-23" d="M65.43,98.73a8.63,8.63,0,0,1-10.37.13,5.15,5.15,0,0,1-.16-8.37,8.66,8.66,0,0,1,10.38-.13A5.16,5.16,0,0,1,65.43,98.73Z"/><path class="cls-26" d="M62.31,96.71a1.69,1.69,0,0,1-1,1,2.72,2.72,0,0,1-1.26.17,3.29,3.29,0,0,1-.42,0l-.24.63-1.14-.28.25-.66a3.2,3.2,0,0,1-.78-.45,1.83,1.83,0,0,1-.57-.81,1.6,1.6,0,0,1,0-1l1.52.3a1,1,0,0,0,.76,1.26,1.39,1.39,0,0,0,1-.1.67.67,0,0,0,.31-.38c.1-.26,0-.56-.29-.92l-1.1-1.14a4.44,4.44,0,0,1-.8-1.09,1.35,1.35,0,0,1,0-1,1.77,1.77,0,0,1,1.46-1,3.55,3.55,0,0,1,1,0l.25-.64,1.14.29-.25.63a3.53,3.53,0,0,1,.8.42,1.5,1.5,0,0,1,.56.68,1.16,1.16,0,0,1,.07.8l-1.57-.21a.83.83,0,0,0-.13-.69,1,1,0,0,0-.57-.31,1,1,0,0,0-.74.07.73.73,0,0,0-.36.41,1.07,1.07,0,0,0,.28,1,3.76,3.76,0,0,0,.54.58c.3.27.49.46.58.56a3.76,3.76,0,0,1,.64.92c0,.13.1.24.13.35A1.22,1.22,0,0,1,62.31,96.71Z"/><path class="cls-26" d="M71.28,93.62a6.56,6.56,0,0,1-2.49,4.63,10.3,10.3,0,0,1-7.62,2.11,10.14,10.14,0,0,1-2.67-.66,9.09,9.09,0,0,1-2.29-1.3,6.61,6.61,0,0,1-2.69-4.78A6.44,6.44,0,0,1,56,88.26a10.47,10.47,0,0,1,12.58-.15A6.48,6.48,0,0,1,71.28,93.62Z"/><path class="cls-23" d="M68.79,99a10.26,10.26,0,0,1-7.62,2.12,10.56,10.56,0,0,1-2.67-.67,9.06,9.06,0,0,1-2.29-1.29,6.51,6.51,0,0,1-2.69-5.51,6.61,6.61,0,0,0,2.69,4.78,9.09,9.09,0,0,0,2.29,1.3,10.14,10.14,0,0,0,2.67.66,10.3,10.3,0,0,0,7.62-2.11,6.56,6.56,0,0,0,2.49-4.63A6.44,6.44,0,0,1,68.79,99Z"/><path class="cls-23" d="M67.67,97.38a8.63,8.63,0,0,1-10.37.12,5.15,5.15,0,0,1-.16-8.37A8.64,8.64,0,0,1,67.52,89,5.16,5.16,0,0,1,67.67,97.38Z"/><path class="cls-26" d="M64.55,95.35a1.66,1.66,0,0,1-1,1,2.65,2.65,0,0,1-1.25.18l-.42,0-.24.64L60.5,96.8l.25-.66a2.66,2.66,0,0,1-.78-.45,1.73,1.73,0,0,1-.57-.81,1.68,1.68,0,0,1,0-1l1.53.31a1.06,1.06,0,0,0,.18.91,1,1,0,0,0,.58.34,1.36,1.36,0,0,0,.94-.1.66.66,0,0,0,.32-.37q.15-.39-.3-.93l-1.09-1.14a4,4,0,0,1-.8-1.09,1.28,1.28,0,0,1,0-1,1.72,1.72,0,0,1,1.46-1,2.91,2.91,0,0,1,1,0l.25-.64,1.14.28-.25.64a3.16,3.16,0,0,1,.8.41,1.71,1.71,0,0,1,.56.68,1.24,1.24,0,0,1,.07.81l-1.57-.21A.82.82,0,0,0,64,91.1a.91.91,0,0,0-.56-.31,1,1,0,0,0-.75.06.81.81,0,0,0-.36.41,1.09,1.09,0,0,0,.29,1,4.32,4.32,0,0,0,.54.57,8,8,0,0,1,.58.57,3.73,3.73,0,0,1,.64.91,2.44,2.44,0,0,1,.12.35A1.14,1.14,0,0,1,64.55,95.35Z"/><path class="cls-26" d="M68.32,92.06a6.56,6.56,0,0,1-2.5,4.63,10.18,10.18,0,0,1-7.61,2.11,10,10,0,0,1-2.67-.66,8.89,8.89,0,0,1-2.29-1.29,6.61,6.61,0,0,1-2.69-4.78,6.44,6.44,0,0,1,2.5-5.36,10.44,10.44,0,0,1,12.57-.16A6.51,6.51,0,0,1,68.32,92.06Z"/><path class="cls-23" d="M65.82,97.42a10.22,10.22,0,0,1-7.61,2.11,10.44,10.44,0,0,1-2.67-.66,8.92,8.92,0,0,1-2.29-1.3,6.48,6.48,0,0,1-2.69-5.5,6.61,6.61,0,0,0,2.69,4.78,8.89,8.89,0,0,0,2.29,1.29,10,10,0,0,0,2.67.66,10.18,10.18,0,0,0,7.61-2.11,6.56,6.56,0,0,0,2.5-4.63A6.44,6.44,0,0,1,65.82,97.42Z"/><path class="cls-23" d="M64.71,95.82A8.66,8.66,0,0,1,54.33,96a5.16,5.16,0,0,1-.16-8.37,8.66,8.66,0,0,1,10.38-.13A5.16,5.16,0,0,1,64.71,95.82Z"/><path class="cls-26" d="M91,93.62a6.54,6.54,0,0,1-2.5,4.63,10.26,10.26,0,0,1-7.61,2.11,10.14,10.14,0,0,1-2.67-.66,9.09,9.09,0,0,1-2.29-1.3,6.61,6.61,0,0,1-2.69-4.78,6.44,6.44,0,0,1,2.5-5.36,10.47,10.47,0,0,1,12.58-.15A6.48,6.48,0,0,1,91,93.62Z"/><path class="cls-23" d="M88.5,99a10.23,10.23,0,0,1-7.61,2.12,10.56,10.56,0,0,1-2.67-.67,9.06,9.06,0,0,1-2.29-1.29,6.51,6.51,0,0,1-2.69-5.51,6.61,6.61,0,0,0,2.69,4.78,9.09,9.09,0,0,0,2.29,1.3,10.14,10.14,0,0,0,2.67.66,10.26,10.26,0,0,0,7.61-2.11A6.54,6.54,0,0,0,91,93.62,6.42,6.42,0,0,1,88.5,99Z"/><path class="cls-23" d="M87.39,97.38A8.64,8.64,0,0,1,77,97.5a5.16,5.16,0,0,1-.15-8.37A8.62,8.62,0,0,1,87.23,89,5.15,5.15,0,0,1,87.39,97.38Z"/><path class="cls-26" d="M84.27,95.35a1.66,1.66,0,0,1-1,1A2.65,2.65,0,0,1,82,96.5l-.42,0-.24.64-1.14-.29.25-.66a2.66,2.66,0,0,1-.78-.45,1.73,1.73,0,0,1-.57-.81,1.68,1.68,0,0,1,0-1l1.53.31a1.06,1.06,0,0,0,.18.91,1,1,0,0,0,.58.34,1.36,1.36,0,0,0,.94-.1.69.69,0,0,0,.32-.37q.15-.39-.3-.93l-1.09-1.14a4,4,0,0,1-.8-1.09,1.28,1.28,0,0,1,0-1,1.72,1.72,0,0,1,1.46-1,2.91,2.91,0,0,1,1,0l.25-.64,1.14.28L84,90.1a3.16,3.16,0,0,1,.8.41,1.71,1.71,0,0,1,.56.68,1.24,1.24,0,0,1,.07.81l-1.57-.21a.82.82,0,0,0-.14-.69.91.91,0,0,0-.56-.31,1,1,0,0,0-.75.06.76.76,0,0,0-.36.41,1.11,1.11,0,0,0,.28,1,5.4,5.4,0,0,0,.55.57,8,8,0,0,1,.58.57,3.73,3.73,0,0,1,.64.91,2.44,2.44,0,0,1,.12.35A1.14,1.14,0,0,1,84.27,95.35Z"/><path class="cls-26" d="M89.89,90.69a6.54,6.54,0,0,1-2.49,4.63,10.61,10.61,0,0,1-10.29,1.45,9.06,9.06,0,0,1-2.29-1.29,6.65,6.65,0,0,1-2.69-4.78,6.42,6.42,0,0,1,2.51-5.36,10.44,10.44,0,0,1,12.57-.16A6.48,6.48,0,0,1,89.89,90.69Z"/><path class="cls-23" d="M87.4,96.05a10.23,10.23,0,0,1-7.61,2.11,10.12,10.12,0,0,1-2.68-.66,9.09,9.09,0,0,1-2.29-1.3,6.48,6.48,0,0,1-2.69-5.5,6.65,6.65,0,0,0,2.69,4.78,9.06,9.06,0,0,0,2.29,1.29A10.61,10.61,0,0,0,87.4,95.32a6.54,6.54,0,0,0,2.49-4.63A6.43,6.43,0,0,1,87.4,96.05Z"/><path class="cls-23" d="M86.28,94.45a8.63,8.63,0,0,1-10.37.13,5.15,5.15,0,0,1-.16-8.37,8.66,8.66,0,0,1,10.38-.13A5.16,5.16,0,0,1,86.28,94.45Z"/><path class="cls-26" d="M83.16,92.43a1.69,1.69,0,0,1-1,1,2.72,2.72,0,0,1-1.26.17,3.29,3.29,0,0,1-.42,0l-.24.63-1.14-.28.25-.66a3.2,3.2,0,0,1-.78-.45A1.83,1.83,0,0,1,78,92a1.78,1.78,0,0,1,0-1l1.52.31a1,1,0,0,0,.76,1.25,1.39,1.39,0,0,0,.95-.1.67.67,0,0,0,.31-.38c.1-.26,0-.56-.29-.92L80.16,90a4.44,4.44,0,0,1-.8-1.09,1.35,1.35,0,0,1,0-1,1.77,1.77,0,0,1,1.46-1,3.55,3.55,0,0,1,1,0l.25-.64,1.14.29-.25.63a3.53,3.53,0,0,1,.8.42,1.59,1.59,0,0,1,.57.68,1.21,1.21,0,0,1,.06.8l-1.57-.21a.83.83,0,0,0-.13-.69,1,1,0,0,0-.57-.31,1,1,0,0,0-.74.07.76.76,0,0,0-.36.41,1.07,1.07,0,0,0,.28,1,3.76,3.76,0,0,0,.54.58c.3.27.49.46.58.56a3.76,3.76,0,0,1,.64.92c0,.13.1.24.13.35A1.22,1.22,0,0,1,83.16,92.43Z"/><path class="cls-26" d="M93.8,90.69a6.56,6.56,0,0,1-2.5,4.63,10.18,10.18,0,0,1-7.61,2.11A10,10,0,0,1,81,96.77a8.89,8.89,0,0,1-2.29-1.29A6.58,6.58,0,0,1,76,90.7a6.44,6.44,0,0,1,2.5-5.36,10.44,10.44,0,0,1,12.57-.16A6.51,6.51,0,0,1,93.8,90.69Z"/><path class="cls-23" d="M91.3,96.05a10.22,10.22,0,0,1-7.61,2.11A10,10,0,0,1,81,97.5a8.92,8.92,0,0,1-2.29-1.3A6.46,6.46,0,0,1,76,90.7a6.58,6.58,0,0,0,2.69,4.78A8.89,8.89,0,0,0,81,96.77a10,10,0,0,0,2.67.66,10.18,10.18,0,0,0,7.61-2.11,6.56,6.56,0,0,0,2.5-4.63A6.44,6.44,0,0,1,91.3,96.05Z"/><path class="cls-23" d="M90.19,94.45a8.64,8.64,0,0,1-10.38.13,5.16,5.16,0,0,1-.16-8.37A8.66,8.66,0,0,1,90,86.08,5.16,5.16,0,0,1,90.19,94.45Z"/><path class="cls-20" d="M70.73,148.11l2.87.07v-15h0V113.61H44.88V133a2.66,2.66,0,0,0-1.19,1.22l-1.38,2.82-2.18,4.43L43.32,146,48.9,154a.18.18,0,0,0,.08.09v2.33a2.83,2.83,0,0,0,.76,1.86,4.9,4.9,0,0,0,1.54,1.12l0,3.16-2.78,0,0,5.49L52,168l-3.44,0h-.63L48,177.3l6.11-.05,18.13-.13-.07-9.27h-.71l0-5.49-2.7,0,0-3.26a3.39,3.39,0,0,0,2.07-2.91l-.06-8.12h0Z"/><rect class="cls-27" x="43.18" y="111.61" width="28.72" height="34.49"/><rect class="cls-28" x="45.87" y="114.42" width="6.69" height="6.69" rx="0.67"/><path class="cls-29" d="M52.56,119.31a.61.61,0,0,1-.67.54H46.53a.6.6,0,0,1-.66-.54V115a.6.6,0,0,1,.66-.54h5.36a.61.61,0,0,1,.67.54Z"/><rect class="cls-28" x="54.19" y="114.42" width="6.69" height="6.69" rx="0.67"/><path class="cls-29" d="M60.89,119.31a.61.61,0,0,1-.67.54H54.86a.61.61,0,0,1-.67-.54V115a.61.61,0,0,1,.67-.54h5.36a.61.61,0,0,1,.67.54Z"/><rect class="cls-28" x="62.52" y="114.42" width="6.69" height="6.69" rx="0.67"/><path class="cls-29" d="M69.21,119.31a.61.61,0,0,1-.67.54H63.19a.61.61,0,0,1-.67-.54V115a.61.61,0,0,1,.67-.54h5.35a.61.61,0,0,1,.67.54Z"/><rect class="cls-28" x="45.87" y="122.17" width="6.69" height="6.69" rx="0.67"/><path class="cls-29" d="M52.56,127.06a.61.61,0,0,1-.67.54H46.53a.6.6,0,0,1-.66-.54v-4.35a.6.6,0,0,1,.66-.54h5.36a.61.61,0,0,1,.67.54Z"/><rect class="cls-28" x="54.19" y="122.17" width="6.69" height="6.69" rx="0.67"/><path class="cls-29" d="M60.89,127.06a.61.61,0,0,1-.67.54H54.86a.61.61,0,0,1-.67-.54v-4.35a.61.61,0,0,1,.67-.54h5.36a.61.61,0,0,1,.67.54Z"/><rect class="cls-28" x="62.52" y="122.17" width="6.69" height="6.69" rx="0.67"/><path class="cls-29" d="M69.21,127.06a.61.61,0,0,1-.67.54H63.19a.61.61,0,0,1-.67-.54v-4.35a.61.61,0,0,1,.67-.54h5.35a.61.61,0,0,1,.67.54Z"/><rect class="cls-28" x="45.87" y="129.92" width="6.69" height="6.69" rx="0.67"/><path class="cls-29" d="M52.56,134.81a.62.62,0,0,1-.67.55H46.53a.61.61,0,0,1-.66-.55v-4.34a.6.6,0,0,1,.66-.55h5.36a.61.61,0,0,1,.67.55Z"/><rect class="cls-28" x="54.19" y="129.92" width="6.69" height="6.69" rx="0.67"/><path class="cls-29" d="M60.89,134.81a.62.62,0,0,1-.67.55H54.86a.62.62,0,0,1-.67-.55v-4.34a.61.61,0,0,1,.67-.55h5.36a.61.61,0,0,1,.67.55Z"/><rect class="cls-28" x="62.52" y="129.92" width="6.69" height="6.69" rx="0.67"/><path class="cls-29" d="M69.21,134.81a.62.62,0,0,1-.67.55H63.19a.62.62,0,0,1-.67-.55v-4.34a.61.61,0,0,1,.67-.55h5.35a.61.61,0,0,1,.67.55Z"/><rect class="cls-28" x="54.19" y="137.67" width="6.69" height="6.69" rx="0.67"/><path class="cls-29" d="M60.89,142.57a.61.61,0,0,1-.67.54H54.86a.61.61,0,0,1-.67-.54v-4.35a.62.62,0,0,1,.67-.55h5.36a.62.62,0,0,1,.67.55Z"/><path class="cls-30" d="M67,157.13l0,6.44-17.41.13v-.14l0-6.2a4.9,4.9,0,0,1-1.54-1.12,2.83,2.83,0,0,1-.76-1.86v-2.33a.18.18,0,0,1-.08-.09L41.62,144l-3.19-4.54,2.18-4.43L42,132.24a2.67,2.67,0,0,1,1.72-1.43,2.35,2.35,0,0,1,1.6.17,1.75,1.75,0,0,1,.27.16,2.44,2.44,0,0,1,1.06,2,2.73,2.73,0,0,1-.29,1.22l-.73,1.49-1.55,3.18,1.59,2.27,1.55,2.2,0-4.64a1.89,1.89,0,0,1,0-.41,2.42,2.42,0,0,1,0-.47L47,120.07a2.87,2.87,0,0,1,1.84-2.84,1.91,1.91,0,0,1,.58-.1,2.23,2.23,0,0,1,1.72.85,3.12,3.12,0,0,1,.73,2L52,135.25h.78l0-6.8a2.42,2.42,0,0,1,1.87-2.38,2.35,2.35,0,0,1,.54-.07,2.46,2.46,0,0,1,1.73.7,2.37,2.37,0,0,1,.69,1.36,2,2,0,0,1,0,.36l.06,6.79h.7l0-5.21a2.4,2.4,0,0,1,1.86-2.37,2,2,0,0,1,.54-.07A2.42,2.42,0,0,1,63.19,130l.05,5.2h.84l0-3.09a2.43,2.43,0,0,1,1.87-2.38,2.51,2.51,0,0,1,.55-.06,2.39,2.39,0,0,1,2.44,2.4l.17,22.2A3.39,3.39,0,0,1,67,157.13Z"/><polygon class="cls-31" points="67.04 161.22 67.04 161.22 67.04 161.22 67.04 161.22 67.05 162.71 67.05 162.71 67.05 162.71 67.05 162.71 67.04 161.22"/><polygon class="cls-4" points="69.78 165.86 52.37 165.99 51.19 166 50.31 166.01 46.87 166.03 46.84 160.54 51.15 160.51 69.74 160.37 69.78 165.86"/><polygon class="cls-9" points="70.56 175.12 52.43 175.25 46.32 175.3 46.24 166.04 46.87 166.03 46.87 166.04 50.31 166.01 51.19 166 52.37 165.99 69.78 165.86 70.49 165.85 70.56 175.12"/><path class="cls-32" d="M71.9,131.2v15L69,146.11,68.92,132a2.4,2.4,0,0,0-.4-1.33,3,3,0,0,0-.32-.39,2.5,2.5,0,0,0-2.27-.63,2.6,2.6,0,0,0-.62.25,2.4,2.4,0,0,0-1.25,2.14l0,3.09h-.84l0-5.21v0a2.39,2.39,0,0,0-.27-1.07,2.56,2.56,0,0,0-.46-.62,2.47,2.47,0,0,0-1.23-.66,4,4,0,0,0-.49,0,2,2,0,0,0-.55.07,2.57,2.57,0,0,0-.6.23,2.32,2.32,0,0,0-1,1,2.39,2.39,0,0,0-.27,1.07V130l0,5.21h-.7l0-5.27v-1.52a2.2,2.2,0,0,0,0-.36,3.63,3.63,0,0,0-.1-.45,2.51,2.51,0,0,0-.59-.91,2.43,2.43,0,0,0-3.88.65.42.42,0,0,1-.1-.28v.5a2.33,2.33,0,0,0-.16.88l0,6.8H52L51.9,120a3.19,3.19,0,0,0-.63-1.93V118l1.64,1,1.31.84,2,1.26,1.66,1.06,1.74,1.11,1.64,1,5.15,3.28,1.45.92Z"/><path class="cls-20" d="M238.78,85.32l-14.17-5-1.12.82,1.12-.82-1.89-3.88h-.56V71.85l.06-.06,0,0a19.6,19.6,0,0,0,6-10.78l.19,0c1.24-.39,2.38-2.22,2.73-4.56.42-2.79-.42-5.26-1.89-5.57l-.05,0a.48.48,0,0,0-.12,0,10.4,10.4,0,0,0,.37-5.64,5,5,0,0,0-1.89-3.52,2.8,2.8,0,0,0-3.51.21c.39-6.5-6-8.29-10.58-8.29-5.66,0-11,3.36-14.12,8.39-.49.84-1.44,1.79-1.35,2.84s.9,2.19,1.28,3.12a5.75,5.75,0,0,1,.63,1.72c.07.31-.1,1-.06,1.17-1.51.27-2.37,2.77-1.95,5.59a6.52,6.52,0,0,0,2.09,4.21l0,.15a19.56,19.56,0,0,0,6.31,11.26v4.36h-.78l-1.88,3.88,0,0L206,82l-2.34-1.7h0l-12,4.46-1.49.54-.12.06h0a2.54,2.54,0,0,0-1.87,2.36v18.59a2.68,2.68,0,0,0,2.82,2.52H238a2.68,2.68,0,0,0,2.82-2.52V87.74A2.58,2.58,0,0,0,238.78,85.32Zm-17.17-2.84.36-.27-.36.27-3.34,2.43Zm7.09-31.65a1.53,1.53,0,0,0-.36.07c-.05,0-.1.06-.16.08s0,0,0-.08A1.44,1.44,0,0,1,228.7,50.83Zm-10.1-10.1a7,7,0,0,1,4.9,1.58,7,7,0,0,0-4.9-1.58,44.45,44.45,0,0,0-6.57.54A44.45,44.45,0,0,1,218.6,40.73ZM206.29,82.25l.31.23.15.11-.15-.11Zm4.07,3h0l1.08-1.42h0Zm5.41-2.74-1.66-2.19h0l1.66,2.19,1.85,2.45Z"/><path class="cls-33" d="M239.11,85.74v18.59a2.68,2.68,0,0,1-2.82,2.52H189.21a2.68,2.68,0,0,1-2.82-2.52V85.74a2.54,2.54,0,0,1,1.87-2.36h0a.24.24,0,0,0,.1-.05l1.47-.54,12.05-4.46h0l2.65,1.93.33.24.31.22,3.45,2.52,1.08-1.41,1-1.33,1.65-2.18h0l1.66,2.19,2.08,2.74,3.76-2.74.55-.41,2.45-1.78,14.17,5A2.58,2.58,0,0,1,239.11,85.74Z"/><rect class="cls-34" x="204.56" y="69.57" width="15.91" height="8.72"/><path class="cls-35" d="M199.62,59a1.61,1.61,0,0,1-1.19-.25,6.21,6.21,0,0,1-2.3-4.36c-.42-2.82.44-5.32,2-5.59a1.42,1.42,0,0,1,.41,0,.67.67,0,0,1,.24,0,2.11,2.11,0,0,1,.94.52,6.88,6.88,0,0,1,1.9,4.07C202,56.28,201.12,58.77,199.62,59Z"/><path class="cls-35" d="M229.37,54.43c-.35,2.34-1.49,4.17-2.73,4.56a1.51,1.51,0,0,1-.76,0c-1.5-.27-2.37-2.76-1.94-5.58a7.06,7.06,0,0,1,1.76-4,2.53,2.53,0,0,1,.94-.61,1.65,1.65,0,0,1,.79-.06l0,0C229,49.17,229.79,51.64,229.37,54.43Z"/><g class="cls-36"><path class="cls-37" d="M220.52,69.79l-7.63,8.26-.48.24h-7.85v-8.4a13.84,13.84,0,0,0,8.19,2.73A14.49,14.49,0,0,0,220.52,69.79Z"/></g><path class="cls-35" d="M227,53.94a23.76,23.76,0,0,1-.53,5.05c-1.68,8.09-7.35,14-14.08,14s-12.49-6-14.13-14.24a24.7,24.7,0,0,1-.48-4.85,24.32,24.32,0,0,1,.54-5.11,2.66,2.66,0,0,1,.11-.47c0,.16.08.34.13.51a2.11,2.11,0,0,1,.94.52c-.45-1.8.89-5,1.93-6.56,1.44-2.2,3.85-2.62,6.26-3.15a54.21,54.21,0,0,1,9.22-1,7,7,0,0,1,4.9,1.58c-.78,2.81,1.51,7.11,3.72,9.2a2.53,2.53,0,0,1,.94-.61c.08.34.15.69.2,1A23.82,23.82,0,0,1,227,53.94Z"/><path class="cls-38" d="M227.3,48.86l-.05,0a1.65,1.65,0,0,0-.79.06,2.53,2.53,0,0,0-.94.61c-2.21-2.09-4.5-6.39-3.72-9.2a7,7,0,0,0-4.9-1.58,54.21,54.21,0,0,0-9.22,1c-2.41.53-4.82,1-6.26,3.15-1,1.56-2.38,4.76-1.93,6.56a4.1,4.1,0,0,0-1.41-.55c0-.16.13-.86.06-1.17a5.75,5.75,0,0,0-.63-1.72c-.38-.93-1.28-2.08-1.28-3.12s.86-2,1.35-2.84c3.17-5,8.46-8.39,14.12-8.39,4.62,0,11,1.79,10.58,8.29a2.8,2.8,0,0,1,3.51-.21,5,5,0,0,1,1.89,3.52A10.37,10.37,0,0,1,227.3,48.86Z"/><polygon class="cls-4" points="212.41 78.29 210.74 80.48 208.66 83.22 204.9 80.48 204.56 80.23 201.92 78.31 201.9 78.29 203.78 74.41 204.56 74.41 212.41 78.29"/><polygon class="cls-4" points="222.91 78.29 220.46 80.08 219.91 80.48 216.15 83.22 214.07 80.48 212.41 78.29 220.25 74.41 221.02 74.41 222.91 78.29"/><g class="cls-39"><path class="cls-37" d="M205.19,80.7l-7.84,1.24-7.52,1.18-1.55.25h0l.12-.06,1.49-.54,12.05-4.46,2.64,1.92.34.24Z"/></g><g class="cls-39"><polygon class="cls-37" points="211.34 77.76 205.22 80.71 205.21 80.71 204.9 80.48 204.56 80.23 201.92 78.31 201.9 78.29 203.78 74.41 204.56 74.41 211.34 77.76"/></g><polygon class="cls-9" points="209.72 81.8 212.36 83.01 215.06 81.8 212.39 78.29 209.72 81.8"/><polygon class="cls-9" points="211.32 82.54 208.93 106.85 215.69 106.85 213.42 82.54 211.32 82.54"/><path class="cls-4" d="M220.46,92.86h12.39a.68.68,0,0,1,.68.68v7.4a.68.68,0,0,1-.68.68H220.46a.67.67,0,0,1-.67-.67v-7.4A.68.68,0,0,1,220.46,92.86Z"/><rect class="cls-40" x="220.78" y="94.75" width="4.01" height="4.69"/><rect class="cls-40" x="225.93" y="94.75" width="5.53" height="1.25"/><rect class="cls-40" x="225.93" y="97.23" width="6.55" height="1.32"/><rect class="cls-20" x="191.57" y="130.55" width="68.55" height="30.54"/><rect class="cls-41" x="189.87" y="128.55" width="68.55" height="30.54"/><path class="cls-42" d="M249.19,144.75v1.52h-48.9v-1.53l-3.73,3.38v5h56.37v-5Z"/><path class="cls-42" d="M252.93,135.47v12.67l-3.74-3.39v-1.89h-48.9v1.88l-3.73,3.38V135.47Z"/><rect class="cls-42" x="200.29" y="142.86" width="48.9" height="3.41"/><rect class="cls-9" x="200.29" y="142.86" width="48.9" height="3.41"/><path class="cls-4" d="M258,152.71H191.52c1.68-1.54,3.37-3.06,5-4.59l3.73-3.38c.69-.63,1.39-1.25,2.07-1.88h44.75l2.08,1.89,3.74,3.39Z"/><path class="cls-9" d="M209.71,145.93a4.81,4.81,0,0,1,3.67-1.8c1.39,0,2.18.81,1.77,1.8s-2.05,1.8-3.67,1.8S209.07,146.93,209.71,145.93Z"/><path class="cls-9" d="M234.9,145.93c-.43-1,.33-1.8,1.72-1.8a4.94,4.94,0,0,1,3.72,1.8c.66,1-.11,1.8-1.73,1.8S235.33,146.93,234.9,145.93Z"/><path class="cls-9" d="M252.93,150.14q-2-1.92-4-3.87l-3.48-3.41h-3.26a5.07,5.07,0,0,0,2.06.53l2.7,2.88,2.07,2.2c-1.59,0-2.2.84-1.34,1.88H201.67c.86-1,.27-1.88-1.32-1.88l2.07-2.2,2.71-2.88a5,5,0,0,0,2.05-.53h-3.25l-3.49,3.41c-1.29,1.26-2.58,2.53-3.88,3.78L195,151.58a.48.48,0,0,0,.12.17h59.15a.48.48,0,0,0,.12-.17Z"/><path class="cls-32" d="M249.37,144.91H200.11l.18-.17.67-.61,1.4-1.27h44.75l1.4,1.27.68.62Z"/><rect class="cls-9" x="191.52" y="152.71" width="66.44" height="1.5"/><path class="cls-4" d="M258,155.92H191.52l1.88-1.72h2.21c-.21.2-.4.4-.61.59a.41.41,0,0,0,.12.17h59.15a.41.41,0,0,0,.12-.17l-.6-.59h2.29C256.7,154.78,257.34,155.35,258,155.92Z"/><path class="cls-9" d="M254.39,154.79a.41.41,0,0,1-.12.17H195.12a.41.41,0,0,1-.12-.17c.21-.19.4-.39.61-.59h58.18Z"/><path class="cls-43" d="M258,155.92H191.52l1.88-1.72h62.68C256.7,154.78,257.34,155.35,258,155.92Z"/><rect class="cls-9" x="191.52" y="155.92" width="66.44" height="1.5"/><text class="cls-44" transform="matrix(0.9, 0.44, -0.44, 0.9, 54.13, 93.38)">#</text><text class="cls-44" transform="translate(79.51 92.46) rotate(14.43)">#</text><path class="cls-9" d="M222.84,146.56l1.3.11.48-1,.67.05-.48,1,1.55.12.48-1,.68.06-.48,1,.72,0-.06.45-.87-.06-.4.86,1.15.09-.06.46-1.29-.11-.47,1-.68,0,.47-1-1.55-.12-.47,1-.68-.06.48-1-.74-.06.06-.45.88.07.4-.87-1.15-.09Zm1.77.6-.4.87,1.54.12.41-.87Z"/><path class="cls-15" d="M137.93,114.15H136.2c-.18,0-.32-.12-.28-.25l3.91-11a.33.33,0,0,1,.35-.15l.75.13c.15,0,.24.14.21.24l-3.5,9.79c0,.12.09.25.28.25h0c.16,0,.28.09.28.2V114C138.21,114.06,138.08,114.15,137.93,114.15Z"/><path class="cls-15" d="M139.69,114.15h-2v-.94h1l3.42-9.23h0c.72.14,1.15.65,1,1.15Z"/><path class="cls-15" d="M146.28,113.26h-3.81c-.7,0-1.26-.39-1.26-.88h3.63c.34,0,.58-.23.47-.45l-1.92-4.16c-.1-.23.08-.48.41-.56h0a.72.72,0,0,1,.79.29l2.37,5.12C147.1,112.94,146.76,113.26,146.28,113.26Z"/><path class="cls-4" d="M134.75,35.74h-2.62c-.28,0-.49-.19-.43-.4l6-17.61a.48.48,0,0,1,.53-.24l1.15.22c.23,0,.37.22.31.38l-5.33,15.74c-.07.19.14.39.43.39h0c.24,0,.43.15.43.32v.87C135.19,35.6,135,35.74,134.75,35.74Z"/><path class="cls-4" d="M137.45,35.74h-3.1V34.22h1.51l5.22-14.82h0c1.09.21,1.75,1,1.46,1.84Z"/><path class="cls-4" d="M147.5,34.31h-5.82c-1.06,0-1.92-.63-1.92-1.41h5.54c.51,0,.88-.38.72-.74l-2.93-6.68c-.16-.37.12-.77.62-.89h0a1,1,0,0,1,1.21.46l3.6,8.22C148.75,33.79,148.23,34.31,147.5,34.31Z"/><path class="cls-4" d="M125.2,50.62l-2.37,0-.36,1.48h-1.62l2.21-8.36,1.79,0,2.38,8.32H125.6ZM124,46l-.75,3.06,1.57,0Z"/><path class="cls-4" d="M130,52.14a2.27,2.27,0,0,1-2.34-2.24l1.52,0a.79.79,0,0,0,.79.77.54.54,0,0,0,.6-.55c0-1.07-2.75-.26-2.77-2.71a1.93,1.93,0,0,1,2-2.07c1.3,0,2,.93,2.15,2.23l-1.43,0a.74.74,0,0,0-.75-.75c-.36,0-.56.2-.56.52,0,1.06,2.74.28,2.79,2.75A1.94,1.94,0,0,1,130,52.14Z"/><path class="cls-4" d="M133.17,47.07h-.62l0-1.69h.62l0-1.61h1.55l0,1.61h1l0,1.69h-1l0,2.67c0,.39.13.56.48.55h.55V52H135c-1.05,0-1.79-.56-1.81-2.29l0-2.65Z"/><path class="cls-4" d="M138.19,52l-1.55,0-.06-6.63,1.54,0v1.11a1.87,1.87,0,0,1,1.57-1.19l0,2.15h-.42c-.73,0-1.15.34-1.14,1.49Z"/><path class="cls-4" d="M142.36,45.19a1.69,1.69,0,0,1,1.56,1v-.94l1.55,0,.07,6.64H144V51a1.7,1.7,0,0,1-1.55,1c-1.23,0-2.23-1.31-2.25-3.4S141.12,45.21,142.36,45.19Zm.47,1.77c-.58,0-1.09.58-1.08,1.64s.54,1.64,1.12,1.64,1.09-.59,1.08-1.65S143.42,47,142.83,47Z"/><path class="cls-4" d="M147.41,48.36l0,3.51h-.53l-.08-8.45,2.21,0a1.9,1.9,0,0,1,1.57.66,2.73,2.73,0,0,1,.58,1.79,2.69,2.69,0,0,1-.54,1.8,1.91,1.91,0,0,1-1.55.69Zm0-.6h1.69a1.42,1.42,0,0,0,1.19-.55,2.13,2.13,0,0,0,.38-1.34,2.2,2.2,0,0,0-.41-1.34,1.4,1.4,0,0,0-1.2-.53l-1.69,0Z"/><path class="cls-4" d="M155.34,51.78c0-.22-.06-.4-.07-.56a3.91,3.91,0,0,1,0-.49,2.2,2.2,0,0,1-.68.85,1.64,1.64,0,0,1-1,.35,1.32,1.32,0,0,1-1.1-.47,2.15,2.15,0,0,1-.4-1.33,1.73,1.73,0,0,1,.55-1.37,2.07,2.07,0,0,1,1.45-.54h1.17v-.78a1.54,1.54,0,0,0-.33-1A1.16,1.16,0,0,0,154,46a1.18,1.18,0,0,0-.88.36,1.23,1.23,0,0,0-.32.88h-.49v0A1.71,1.71,0,0,1,152.7,46a1.63,1.63,0,0,1,1.27-.55,1.65,1.65,0,0,1,1.27.51,2.18,2.18,0,0,1,.49,1.51l0,3.09c0,.22,0,.43,0,.64a4.44,4.44,0,0,0,.1.62h-.56Zm-1.76-.47a1.64,1.64,0,0,0,1-.39,1.88,1.88,0,0,0,.6-1l0-1.2H154a1.45,1.45,0,0,0-1.06.41,1.29,1.29,0,0,0-.41,1,1.3,1.3,0,0,0,.27.86A.9.9,0,0,0,153.58,51.31Z"/><path class="cls-4" d="M158.45,50.05l.17.75h0L160,45.46h.59l-2,7.31a3.9,3.9,0,0,1-.47,1.09,1,1,0,0,1-.86.46l-.22,0a.68.68,0,0,1-.2-.06l.06-.58.17,0h.16a.62.62,0,0,0,.55-.33,3.15,3.15,0,0,0,.35-.82l.24-.85L156.5,45.5h.59Z"/></g></g></g></svg>